<svg width="26" height="26" viewBox="0 0 26 26" fill="none" xmlns="http://www.w3.org/2000/svg">
<g clip-path="url(#clip0_2116_26269)">
<path fill-rule="evenodd" clip-rule="evenodd" d="M2.66847 22.7624H21.8957L20.8187 23.8393L22.0915 25.1121L25.3413 21.8624L22.1351 18.6562L20.8623 19.929L21.8957 20.9624H17.125L23.1685 14.9189V17.3624H24.9685V0.100098H8.06847V1.9001H11.0157L4.46847 8.44737V3.58109L5.5454 4.65802L6.81819 3.38523L4.46847 1.03551V1.0001H4.43306L3.56847 0.135509L2.70388 1.0001H2.66847V1.03551L0.362305 3.34167L1.6351 4.61447L2.66847 3.58109V22.7624ZM4.46847 16.6495V19.7608L22.3292 1.9001H19.2178L4.46847 16.6495ZM16.6722 1.9001L4.46847 14.1039V10.993L13.5613 1.9001H16.6722ZM23.1685 3.60643L5.8125 20.9624H8.92268L23.1569 6.72818L23.1685 6.73976V3.60643ZM23.1685 9.26219L11.4683 20.9624H14.5794L23.1685 12.3733V9.26219Z" fill="#2B298F"/>
</g>
<defs>
<clipPath id="clip0_2116_26269">
<rect width="26" height="26" fill="white"/>
</clipPath>
</defs>
</svg>
