<svg width="346" height="111" viewBox="0 0 346 111" fill="none" xmlns="http://www.w3.org/2000/svg">
<path d="M28.4193 52.5104C33.15 52.5104 37.879 52.5104 42.6062 52.5104C43.7891 52.4917 44.9453 52.8696 45.8971 53.5861C46.8488 54.3027 47.5434 55.3181 47.8741 56.4764C48.0192 57.0198 48.0904 57.581 48.0856 58.1441C48.0856 67.0177 48.0642 75.8859 48.1123 84.7677C48.1203 85.5126 47.982 86.2516 47.7056 86.9411C47.4292 87.6307 47.0203 88.2569 46.503 88.7829C45.9856 89.3089 45.3703 89.724 44.6933 90.0038C44.0163 90.2837 43.2912 90.4226 42.5607 90.4123C33.1028 90.4305 23.6448 90.4305 14.1869 90.4123C10.5358 90.4123 8.63257 87.3444 8.64863 84.7513C8.70217 75.895 8.70217 67.0387 8.64863 58.1823C8.6425 57.4336 8.7831 56.6911 9.06218 55.9985C9.34126 55.3059 9.75319 54.6771 10.2738 54.149C10.7944 53.621 11.4132 53.2042 12.0939 52.9233C12.7746 52.6424 13.5035 52.503 14.2377 52.5132H28.4246" fill="#844993"/>
<path d="M3.45293 77.4059C2.62612 76.4804 2.15963 75.2786 2.14131 74.0268C2.12347 64.9648 2.12347 55.902 2.14131 46.8382C2.14131 45.6045 2.59904 44.5045 3.45561 43.4536L3.45293 77.4059Z" fill="#844993"/>
<path d="M7.57543 51.3145V85.2122C6.92036 84.4839 6.49429 83.5721 6.35214 82.5946C6.27872 82.0731 6.2456 81.5465 6.2531 81.0197C6.2531 72.4272 6.2531 63.8347 6.2531 55.2422C6.20663 53.8107 6.68365 52.4128 7.59149 51.3199" fill="#844993"/>
<path d="M1.36778 39.5342V73.4592C0.706079 72.6906 0.278218 71.7422 0.136464 70.7297C0.095331 70.3737 0.0783377 70.0153 0.085605 69.657C0.085605 60.8989 0.085605 52.1399 0.085605 43.3801C0.0457894 42.2456 0.339419 41.125 0.928789 40.162C1.04389 39.9818 1.17773 39.8126 1.37581 39.5396" fill="#844993"/>
<path d="M5.46332 81.2793C4.71115 80.2995 4.28286 79.3223 4.23736 78.2059C4.19721 77.2096 4.2213 76.2079 4.21862 75.2035C4.21862 67.1969 4.21862 59.1904 4.21862 51.1838C4.18898 49.8196 4.63263 48.4886 5.47135 47.4253L5.46332 81.2793Z" fill="#844993"/>
<path d="M28.4142 12.9378C33.145 12.9378 37.8739 12.9378 42.6011 12.9378C43.85 12.9062 45.0714 13.315 46.0589 14.0953C47.0465 14.8755 47.7397 15.9793 48.0216 17.2204C48.1321 17.6952 48.1861 18.1818 48.1822 18.6697C48.1929 27.4879 48.1929 36.3051 48.1822 45.1214C48.1822 48.4623 45.8293 50.9325 42.561 50.9407C33.103 50.9625 23.6451 50.9625 14.1871 50.9407C10.9295 50.9407 8.56592 48.4841 8.56592 45.1678C8.56592 36.3333 8.56592 27.4979 8.56592 18.6616C8.56592 15.9075 10.2068 13.7676 12.8006 13.1016C13.2859 12.9879 13.783 12.9348 14.2808 12.9432C18.992 12.9323 23.704 12.9323 28.4169 12.9432" fill="#71757C"/>
<path d="M346 87.1396H91.4331V89.2632H346V87.1396Z" fill="#844993"/>
<path d="M1.44015 34.1434C0.772799 33.4405 0.318335 32.5563 0.131211 31.5968C0.0422676 31.1549 -0.00168626 30.7049 4.9459e-05 30.2538C4.9459e-05 21.3666 4.9459e-05 12.4729 4.9459e-05 3.57292C0.00437016 2.45459 0.345421 1.3646 0.977073 0.450368C1.0587 0.327192 1.14811 0.209574 1.24475 0.0982622C1.30484 0.0559778 1.37067 0.0228741 1.44015 0V34.1434Z" fill="#71757C"/>
<path d="M5.56226 41.9744C4.85175 41.2264 4.38443 40.2734 4.22387 39.2449C4.15281 38.7608 4.12147 38.2714 4.13018 37.7819C4.13018 29.0966 4.13018 20.4113 4.13018 11.7261C4.09663 10.5141 4.43849 9.32217 5.10721 8.31964C5.21963 8.15314 5.35347 8.00029 5.56494 7.72461L5.56226 41.9744Z" fill="#71757C"/>
<path d="M3.49587 3.83789V38.0413C2.86005 37.3858 2.42242 36.5577 2.2351 35.6557C2.13338 35.1401 2.08671 34.6148 2.09591 34.089C2.09591 25.3327 2.09145 16.5756 2.08253 7.81751C2.03619 6.54997 2.40229 5.3024 3.12379 4.26915C3.20677 4.15178 3.31117 4.05079 3.49854 3.83789" fill="#71757C"/>
<path d="M7.59396 45.8801C6.72669 44.8648 6.22613 43.7784 6.22345 42.5501C6.20026 33.3917 6.20026 24.2324 6.22345 15.0722C6.22345 13.8358 6.7026 12.733 7.59396 11.7095V45.8801Z" fill="#71757C"/>
<path d="M14.3528 98.2623H10.9453V96.1196H20.2632V98.2623H16.853V107.715H14.3528V98.2623Z" fill="#71757C"/>
<path d="M21.5693 96.1193H26.698C27.3175 96.1029 27.934 96.2105 28.5129 96.4359C28.9735 96.6209 29.3891 96.9059 29.7308 97.2712C30.0416 97.6132 30.2754 98.0203 30.4161 98.464C30.7036 99.3586 30.7036 100.323 30.4161 101.218C30.2743 101.659 30.0405 102.063 29.7308 102.403C29.3897 102.769 28.974 103.055 28.5129 103.241C27.934 103.466 27.3175 103.573 26.698 103.557H24.0694V107.714H21.5693V96.1193ZM26.0128 101.578C26.2898 101.579 26.5664 101.557 26.8399 101.513C27.0874 101.476 27.3256 101.391 27.5412 101.262C27.7483 101.129 27.9159 100.941 28.0257 100.719C28.1468 100.437 28.2094 100.132 28.2094 99.8246C28.2094 99.5169 28.1468 99.2125 28.0257 98.9307C27.9128 98.7136 27.7445 98.5316 27.5385 98.4039C27.3228 98.2749 27.0847 98.1896 26.8372 98.1528C26.5636 98.1088 26.2871 98.0869 26.0101 98.0873H24.0694V101.562L26.0128 101.578Z" fill="#71757C"/>
<path d="M35.2984 96.1196H37.8628L42.1162 107.717H39.5197L38.6604 105.135H34.407L33.5157 107.717H30.9995L35.2984 96.1196ZM38.01 103.233L36.5752 98.9774H36.5431L35.0655 103.233H38.01Z" fill="#71757C"/>
<path d="M43.104 96.1196H45.6041V100.569H50.2055V96.1196H52.7083V107.715H50.2055V102.714H45.6041V107.715H43.104V96.1196Z" fill="#71757C"/>
<path d="M60.0027 107.977C59.1935 107.991 58.3902 107.833 57.6444 107.513C56.9778 107.221 56.3807 106.786 55.8938 106.238C55.4071 105.681 55.0332 105.032 54.7936 104.327C54.534 103.568 54.4045 102.768 54.4109 101.964C54.4049 101.146 54.5343 100.333 54.7936 99.5588C55.0316 98.842 55.4054 98.1798 55.8938 97.6099C56.3783 97.0528 56.9756 96.6095 57.6444 96.3107C58.9554 95.7589 60.4141 95.6904 61.7693 96.1169C62.3138 96.2919 62.8232 96.5646 63.2737 96.9221C63.7195 97.2793 64.0909 97.7239 64.3658 98.2295C64.6601 98.7818 64.8422 99.389 64.9012 100.015H62.4921C62.4525 99.7289 62.3549 99.4546 62.2056 99.2094C62.0566 98.9653 61.8684 98.7485 61.6489 98.568C61.422 98.3817 61.1659 98.2359 60.8913 98.1367C60.6077 98.0342 60.3089 97.9825 60.008 97.9839C59.5097 97.9681 59.0158 98.0827 58.5733 98.3169C58.1883 98.5308 57.8603 98.8372 57.6176 99.2094C57.3659 99.5983 57.1846 100.03 57.0823 100.484C56.9695 100.968 56.9129 101.464 56.9137 101.961C56.9131 102.44 56.9697 102.918 57.0823 103.383C57.1867 103.826 57.368 104.247 57.6176 104.625C57.8623 104.993 58.19 105.296 58.5733 105.509C59.0158 105.743 59.5097 105.858 60.008 105.842C60.3393 105.861 60.6707 105.807 60.9796 105.683C61.2886 105.56 61.568 105.37 61.7988 105.127C62.2511 104.6 62.5276 103.941 62.5884 103.244H64.9975C64.9501 103.927 64.7852 104.597 64.5103 105.223C64.2576 105.782 63.9003 106.287 63.4584 106.707C63.0159 107.123 62.4961 107.443 61.9299 107.649C61.311 107.871 60.6587 107.981 60.0027 107.974" fill="#71757C"/>
<path d="M66.708 96.1196H76.1704V107.715H73.6676V98.2623H69.2081V107.715H66.708V96.1196Z" fill="#71757C"/>
<path d="M83.4643 107.977C82.6551 107.991 81.8519 107.833 81.1061 107.513C80.4386 107.221 79.8405 106.786 79.3528 106.238C78.866 105.681 78.4921 105.032 78.2526 104.327C77.9929 103.568 77.8634 102.768 77.8699 101.963C77.8639 101.146 77.9933 100.333 78.2526 99.5587C78.4906 98.8419 78.8644 98.1797 79.3528 97.6099C79.838 97.0523 80.4362 96.609 81.1061 96.3106C82.6143 95.6829 84.3037 95.6829 85.8118 96.3106C86.4849 96.6075 87.086 97.051 87.5732 97.6099C88.0617 98.1796 88.4355 98.8418 88.6733 99.5587C88.9328 100.333 89.0622 101.146 89.0561 101.963C89.0626 102.768 88.9331 103.568 88.6733 104.327C88.434 105.032 88.0601 105.681 87.5732 106.238C87.0835 106.788 86.4825 107.223 85.8118 107.513C85.0684 107.831 84.2681 107.989 83.4616 107.977M83.4616 105.848C83.959 105.863 84.452 105.748 84.8937 105.515C85.2767 105.301 85.6043 104.998 85.8493 104.63C86.0985 104.252 86.2798 103.831 86.3847 103.388C86.4961 102.923 86.5518 102.445 86.5506 101.966C86.552 101.469 86.4963 100.973 86.3847 100.49C86.2819 100.036 86.1006 99.6039 85.8493 99.2148C85.6063 98.8429 85.2784 98.5366 84.8937 98.3223C84.4463 98.1034 83.9565 97.9898 83.4603 97.9898C82.9641 97.9898 82.4743 98.1034 82.0269 98.3223C81.642 98.5362 81.314 98.8426 81.0713 99.2148C80.8195 99.6037 80.6382 100.035 80.5359 100.49C80.4231 100.973 80.3665 101.469 80.3673 101.966C80.3667 102.445 80.4233 102.923 80.5359 103.388C80.6403 103.831 80.8216 104.252 81.0713 104.63C81.3159 104.999 81.6436 105.302 82.0269 105.515C82.4694 105.749 82.9633 105.863 83.4616 105.848Z" fill="#71757C"/>
<path d="M90.7588 96.1193H95.8875C96.5069 96.1029 97.1235 96.2105 97.7023 96.4359C98.163 96.6209 98.5786 96.9059 98.9203 97.2712C99.231 97.6132 99.4649 98.0203 99.6055 98.464C99.893 99.3586 99.893 100.323 99.6055 101.218C99.4637 101.659 99.2299 102.063 98.9203 102.403C98.5792 102.769 98.1635 103.055 97.7023 103.241C97.1235 103.466 96.5069 103.573 95.8875 103.557H93.2589V107.714H90.7588V96.1193ZM95.2022 101.578C95.4792 101.579 95.7558 101.557 96.0294 101.513C96.2769 101.476 96.5151 101.391 96.7307 101.262C96.9366 101.134 97.1049 100.952 97.2179 100.735C97.3388 100.453 97.4012 100.149 97.4012 99.841C97.4012 99.5333 97.3388 99.229 97.2179 98.9471C97.1049 98.73 96.9366 98.5479 96.7307 98.4203C96.515 98.2913 96.2768 98.206 96.0294 98.1692C95.7558 98.1252 95.4792 98.1033 95.2022 98.1037H93.2589V101.578H95.2022Z" fill="#71757C"/>
<path d="M103.899 98.2623H100.492V96.1196H109.81V98.2623H106.402V107.715H103.899V98.2623Z" fill="#71757C"/>
<path d="M111.116 96.1196H113.616V100.569H118.22V96.1196H120.72V107.715H118.22V102.714H113.616V107.715H111.116V96.1196Z" fill="#71757C"/>
<path d="M128.014 107.977C127.205 107.991 126.402 107.833 125.656 107.513C124.988 107.221 124.39 106.786 123.903 106.238C123.416 105.681 123.042 105.032 122.802 104.327C122.543 103.568 122.413 102.768 122.42 101.963C122.414 101.146 122.543 100.333 122.802 99.5587C123.04 98.8419 123.414 98.1797 123.903 97.6099C124.388 97.0523 124.986 96.609 125.656 96.3106C127.164 95.6829 128.853 95.6829 130.362 96.3106C131.035 96.6075 131.636 97.051 132.123 97.6099C132.611 98.1796 132.985 98.8418 133.223 99.5587C133.483 100.333 133.612 101.146 133.606 101.963C133.612 102.768 133.483 103.568 133.223 104.327C132.984 105.032 132.61 105.681 132.123 106.238C131.633 106.788 131.032 107.223 130.362 107.513C129.618 107.831 128.818 107.989 128.011 107.977M128.011 105.848C128.509 105.863 129.002 105.748 129.444 105.515C129.826 105.301 130.154 104.998 130.399 104.63C130.648 104.252 130.83 103.831 130.934 103.388C131.046 102.923 131.102 102.445 131.1 101.966C131.102 101.469 131.046 100.973 130.934 100.49C130.832 100.036 130.65 99.604 130.399 99.2148C130.156 98.8429 129.828 98.5367 129.444 98.3223C128.996 98.1034 128.506 97.9898 128.01 97.9898C127.514 97.9898 127.024 98.1034 126.577 98.3223C126.192 98.5362 125.864 98.8426 125.621 99.2148C125.369 99.6037 125.188 100.035 125.086 100.49C124.973 100.973 124.916 101.469 124.917 101.966C124.917 102.445 124.973 102.923 125.086 103.388C125.19 103.831 125.371 104.252 125.621 104.63C125.866 104.999 126.193 105.302 126.577 105.515C127.019 105.749 127.513 105.863 128.011 105.848Z" fill="#71757C"/>
<path d="M139.848 102.291H135.054V104.273H139.848V102.291Z" fill="#71757C"/>
<path d="M141.968 107.845C141.603 107.848 141.24 107.783 140.897 107.652V105.572C140.955 105.598 141.017 105.614 141.079 105.621C141.145 105.631 141.211 105.636 141.278 105.637C141.462 105.643 141.646 105.61 141.817 105.54C141.989 105.47 142.144 105.365 142.273 105.231C142.579 104.869 142.787 104.432 142.878 103.964C143.043 103.233 143.142 102.489 143.173 101.74C143.226 100.83 143.253 99.7379 143.253 98.4642V96.125H151.441V107.723H148.957V98.2622H145.617C145.584 99.6051 145.539 100.861 145.48 102.029C145.443 103.06 145.301 104.084 145.057 105.086C144.888 105.841 144.527 106.537 144.011 107.106C143.532 107.599 142.852 107.845 141.971 107.845" fill="#71757C"/>
<path d="M158.733 107.977C157.924 107.991 157.12 107.833 156.375 107.513C155.707 107.221 155.109 106.786 154.621 106.238C154.135 105.681 153.761 105.032 153.521 104.327C153.261 103.568 153.132 102.768 153.138 101.963C153.132 101.146 153.262 100.333 153.521 99.5587C153.759 98.8419 154.133 98.1797 154.621 97.6099C155.107 97.0523 155.705 96.609 156.375 96.3106C157.883 95.6829 159.572 95.6829 161.08 96.3106C161.753 96.6075 162.355 97.051 162.842 97.6099C163.33 98.1796 163.704 98.8418 163.942 99.5587C164.201 100.333 164.331 101.146 164.325 101.963C164.331 102.768 164.202 103.568 163.942 104.327C163.703 105.032 163.329 105.681 162.842 106.238C162.352 106.788 161.751 107.223 161.08 107.513C160.337 107.831 159.537 107.989 158.73 107.977M158.73 105.848C159.228 105.863 159.721 105.748 160.162 105.515C160.545 105.301 160.873 104.998 161.118 104.63C161.367 104.252 161.548 103.831 161.653 103.388C161.765 102.923 161.82 102.445 161.819 101.966C161.821 101.469 161.765 100.973 161.653 100.49C161.55 100.036 161.369 99.6039 161.118 99.2148C160.875 98.8429 160.547 98.5366 160.162 98.3223C159.715 98.1034 159.225 97.9898 158.729 97.9898C158.233 97.9898 157.743 98.1034 157.295 98.3223C156.911 98.5362 156.583 98.8426 156.34 99.2148C156.088 99.6037 155.907 100.035 155.804 100.49C155.693 100.973 155.637 101.469 155.639 101.966C155.638 102.445 155.695 102.923 155.807 103.388C155.912 103.831 156.093 104.252 156.343 104.63C156.587 104.999 156.915 105.302 157.298 105.515C157.741 105.749 158.235 105.863 158.733 105.848" fill="#71757C"/>
<path d="M166.1 96.1196H173.999V98.2623H168.6V107.715H166.1V96.1196Z" fill="#71757C"/>
<path d="M175.163 96.1196H177.647V104.158H177.695L182.026 96.1196H184.829V107.715H182.345V99.6598H182.297L177.966 107.715H175.163V96.1196Z" fill="#71757C"/>
<path d="M192.126 107.977C191.317 107.991 190.514 107.833 189.768 107.513C189.1 107.221 188.502 106.786 188.014 106.238C187.528 105.681 187.154 105.032 186.914 104.327C186.655 103.568 186.525 102.768 186.531 101.964C186.525 101.146 186.655 100.333 186.914 99.5588C187.152 98.842 187.526 98.1798 188.014 97.6099C188.5 97.0525 189.098 96.6092 189.768 96.3107C191.079 95.7589 192.537 95.6904 193.893 96.1169C194.437 96.2919 194.946 96.5646 195.397 96.9221C195.843 97.2793 196.214 97.7239 196.489 98.2295C196.783 98.7818 196.965 99.389 197.024 100.015H194.615C194.576 99.7289 194.478 99.4546 194.329 99.2094C194.18 98.9653 193.992 98.7485 193.772 98.568C193.545 98.3817 193.289 98.2359 193.015 98.1367C192.731 98.0342 192.432 97.9825 192.131 97.9839C191.633 97.9681 191.139 98.0827 190.697 98.3169C190.312 98.5308 189.984 98.8372 189.741 99.2094C189.489 99.5983 189.308 100.03 189.206 100.484C189.094 100.968 189.038 101.464 189.04 101.961C189.039 102.44 189.096 102.918 189.208 103.383C189.313 103.826 189.494 104.247 189.744 104.625C189.988 104.993 190.316 105.296 190.699 105.509C191.142 105.743 191.636 105.858 192.134 105.842C192.465 105.861 192.797 105.807 193.106 105.683C193.415 105.56 193.694 105.37 193.925 105.127C194.377 104.6 194.654 103.941 194.714 103.244H197.123C197.073 103.926 196.905 104.594 196.628 105.217C196.376 105.777 196.018 106.281 195.576 106.702C195.134 107.117 194.614 107.437 194.048 107.644C193.429 107.866 192.777 107.976 192.121 107.968" fill="#71757C"/>
<path d="M201.347 98.2623H197.939V96.1196H207.257V98.2623H203.847V107.715H201.347V98.2623Z" fill="#71757C"/>
<path d="M208.563 96.1196H211.048V104.158H211.096L215.427 96.1196H218.229V107.715H215.745V99.6598H215.697L211.366 107.715H208.563V96.1196Z" fill="#71757C"/>
<path d="M226.546 103.315C226.269 103.38 225.935 103.45 225.542 103.525C225.138 103.602 224.727 103.64 224.316 103.639C223.7 103.648 223.084 103.578 222.485 103.429C221.992 103.309 221.534 103.072 221.147 102.739C220.772 102.401 220.489 101.97 220.325 101.489C220.128 100.879 220.038 100.239 220.057 99.597V96.1196H222.541V99.627C222.541 100.331 222.735 100.824 223.122 101.106C223.568 101.405 224.094 101.553 224.627 101.53C225.005 101.531 225.383 101.498 225.756 101.431C226.107 101.366 226.372 101.314 226.559 101.267V96.1196H229.059V107.717H226.559L226.546 103.315Z" fill="#71757C"/>
<path d="M231.26 96.1196H239.767V98.2623H233.76V100.749H239.271V102.73H233.76V105.572H239.892V107.715H231.26V96.1196Z" fill="#71757C"/>
<path d="M246.679 107.977C245.869 107.991 245.066 107.833 244.32 107.513C243.653 107.221 243.055 106.786 242.567 106.238C242.08 105.681 241.707 105.032 241.467 104.327C241.207 103.568 241.078 102.768 241.084 101.964C241.078 101.146 241.208 100.333 241.467 99.5588C241.705 98.842 242.079 98.1798 242.567 97.6099C243.052 97.0525 243.651 96.6092 244.32 96.3107C245.631 95.7589 247.09 95.6904 248.445 96.1169C248.99 96.2919 249.499 96.5646 249.95 96.9221C250.396 97.2793 250.767 97.7239 251.042 98.2295C251.336 98.7818 251.518 99.389 251.577 100.015H249.168C249.128 99.7289 249.031 99.4546 248.882 99.2094C248.733 98.9653 248.544 98.7485 248.325 98.568C248.098 98.3817 247.842 98.2359 247.567 98.1367C247.284 98.0342 246.985 97.9825 246.684 97.9839C246.186 97.9681 245.692 98.0827 245.249 98.3169C244.864 98.5308 244.536 98.8372 244.294 99.2094C244.042 99.5983 243.861 100.03 243.758 100.484C243.647 100.968 243.591 101.464 243.592 101.961C243.592 102.44 243.649 102.918 243.761 103.383C243.865 103.826 244.047 104.247 244.296 104.625C244.541 104.993 244.869 105.296 245.252 105.509C245.694 105.743 246.188 105.858 246.687 105.842C247.018 105.861 247.349 105.807 247.658 105.683C247.967 105.56 248.247 105.37 248.477 105.127C248.93 104.6 249.206 103.941 249.267 103.244H251.676C251.626 103.926 251.458 104.594 251.181 105.217C250.928 105.777 250.571 106.281 250.129 106.702C249.687 107.117 249.167 107.437 248.601 107.644C247.982 107.866 247.329 107.976 246.673 107.968" fill="#71757C"/>
<path d="M253.384 96.1196H255.884V100.765L260.327 96.1196H263.451L258.545 100.975L263.879 107.715H260.742L256.73 102.567L255.884 103.492V107.715H253.384V96.1196Z" fill="#71757C"/>
<path d="M264.883 96.1196H267.367V104.158H267.415L271.749 96.1196H274.551V107.715H272.067V99.6598H272.019L267.685 107.715H264.883V96.1196Z" fill="#71757C"/>
<path d="M276.749 96.1193H279.233V104.158H279.281L283.615 96.1166H286.415V107.714H283.931V99.6595H283.882L279.549 107.714H276.746L276.749 96.1193ZM281.733 95.1285C279.684 95.1285 278.66 94.2951 278.66 92.6283H280.507C280.508 92.9267 280.609 93.2157 280.793 93.4472C280.917 93.5677 281.066 93.6593 281.228 93.7154C281.39 93.7715 281.563 93.7908 281.733 93.772C281.905 93.7893 282.079 93.7701 282.243 93.7156C282.408 93.6611 282.559 93.5725 282.689 93.4554C282.786 93.3414 282.859 93.2088 282.905 93.0654C282.951 92.9219 282.969 92.7705 282.956 92.6201H284.803C284.803 94.2888 283.779 95.1222 281.73 95.1203" fill="#71757C"/>
<path d="M301.501 107.715H293.045V96.1196H295.545V105.572H300.005V96.1196H302.505V105.572H303.763V110.362H301.501V107.715Z" fill="#71757C"/>
<path d="M305.021 96.1196H313.528V98.2623H307.524V100.749H313.033V102.73H307.524V105.572H313.654V107.715H305.021V96.1196Z" fill="#71757C"/>
<path d="M315.343 96.1196H317.843V100.569H322.447V96.1196H324.947V107.715H322.447V102.714H317.843V107.715H315.343V96.1196Z" fill="#71757C"/>
<path d="M329.664 98.2623H326.254V96.1196H335.572V98.2623H332.164V107.715H329.664V98.2623Z" fill="#71757C"/>
<path d="M336.878 96.1193H342.007C342.626 96.1029 343.243 96.2105 343.821 96.4359C344.282 96.6209 344.698 96.9059 345.039 97.2712C345.35 97.6132 345.584 98.0203 345.725 98.464C346.012 99.3586 346.012 100.323 345.725 101.218C345.583 101.659 345.349 102.063 345.039 102.403C344.698 102.769 344.283 103.055 343.821 103.241C343.243 103.466 342.626 103.573 342.007 103.557H339.378V107.714H336.878V96.1193ZM341.321 101.578C341.598 101.579 341.875 101.557 342.148 101.513C342.396 101.476 342.634 101.391 342.85 101.262C343.056 101.134 343.224 100.952 343.337 100.735C343.458 100.453 343.521 100.149 343.521 99.841C343.521 99.5333 343.458 99.2289 343.337 98.9471C343.224 98.73 343.056 98.5479 342.85 98.4203C342.634 98.2913 342.396 98.206 342.148 98.1692C341.875 98.1252 341.598 98.1033 341.321 98.1037H339.378V101.578H341.321Z" fill="#71757C"/>
<path d="M69.7191 52.4694C74.4498 52.4694 79.1788 52.4694 83.906 52.4694C85.0889 52.4506 86.2451 52.8286 87.1969 53.5451C88.1486 54.2616 88.8432 55.2771 89.1739 56.4354C89.319 56.9788 89.3902 57.5399 89.3853 58.1031C89.3853 66.9767 89.3639 75.8449 89.4121 84.7267C89.4197 85.4718 89.281 86.211 89.0041 86.9006C88.7272 87.5902 88.3178 88.2163 87.7999 88.7421C87.2821 89.2678 86.6662 89.6826 85.9888 89.962C85.3113 90.2413 84.5858 90.3795 83.8551 90.3686C74.3972 90.3868 64.9393 90.3868 55.4813 90.3686C51.8302 90.3686 49.927 87.3006 49.9431 84.7076C49.9966 75.8513 49.9966 66.9949 49.9431 58.1386C49.9369 57.3898 50.0775 56.6474 50.3566 55.9548C50.6357 55.2622 51.0476 54.6334 51.5682 54.1053C52.0889 53.5772 52.7077 53.1605 53.3884 52.8796C54.0691 52.5987 54.7979 52.4592 55.5322 52.4694H69.7191Z" fill="#71757C"/>
<path d="M122.222 83.9297H118.164L115.345 78.337H98.2377L95.4244 83.9215H91.3638L103.969 58.8237H109.555L122.222 83.9297ZM113.779 75.0397L107.245 61.8207H106.378L99.8277 75.0343L113.779 75.0397Z" fill="#844993"/>
<path d="M141.09 69.3046C141.09 70.8241 140.716 72.0068 139.969 72.853C139.18 73.7519 138.011 74.2014 136.462 74.2014H125.945V79.8514H123.56V64.3506H136.564C139.581 64.3506 141.09 66.0019 141.09 69.3046ZM138.705 69.3046C138.705 67.4085 137.951 66.4605 136.443 66.4605H125.945V72.1106H136.462C137.958 72.1106 138.705 71.1753 138.705 69.3046Z" fill="#844993"/>
<path d="M141.09 69.3046C141.09 70.8241 140.716 72.0068 139.969 72.853C139.18 73.7519 138.011 74.2014 136.462 74.2014H125.945V79.8514H123.56V64.3506H136.564C139.581 64.3506 141.09 66.0019 141.09 69.3046ZM138.705 69.3046C138.705 67.4085 137.951 66.4605 136.443 66.4605H125.945V72.1106H136.462C137.958 72.1033 138.705 71.1643 138.705 69.2937V69.3046Z" stroke="#844993" stroke-miterlimit="10"/>
<path d="M159.721 66.4496H152.587V79.8487H150.202V66.4496H143.068V64.3506H159.721V66.4496Z" fill="#844993"/>
<path d="M159.721 66.4496H152.587V79.8487H150.202V66.4496H143.068V64.3506H159.721V66.4496Z" stroke="#844993" stroke-miterlimit="10"/>
<path d="M176.619 79.8487H161.361V64.3506H176.619V66.4523H163.757V70.9314H176.172V73.0332H163.757V77.7497H176.619V79.8487ZM166.854 62.3799H164.266V59.6504H166.854V62.3799ZM173.546 62.3799H170.958V59.6504H173.546V62.3799Z" fill="#844993"/>
<path d="M176.619 79.8487H161.361V64.3506H176.619V66.4523H163.757V70.9314H176.172V73.0332H163.757V77.7497H176.619V79.8487ZM166.854 62.3799H164.266V59.6504H166.854V62.3799ZM173.546 62.3799H170.958V59.6504H173.546V62.3799Z" stroke="#844993" stroke-miterlimit="10"/>
<path d="M204.666 79.849H202.281V66.4499H201.834L192.904 79.849H191.419L182.489 66.4499H182.061V79.849H179.676V64.3481H183.908L192.163 77.0649L200.415 64.3481H204.666V79.849Z" fill="#844993"/>
<path d="M204.666 79.849H202.281V66.4499H201.834L192.904 79.849H191.419L182.489 66.4499H182.061V79.849H179.676V64.3481H183.908L192.163 77.0649L200.415 64.3481H204.666V79.849Z" stroke="#844993" stroke-miterlimit="10"/>
</svg>
