<svg width="1920" height="14" viewBox="0 0 1920 14" fill="none" xmlns="http://www.w3.org/2000/svg">
<line x1="4.37114e-08" y1="0.5" x2="1920" y2="0.500168" stroke="#6773DA"/>
<line x1="0.5" y1="2" x2="0.499999" y2="14" stroke="#6773DA"/>
<line x1="15.5" y1="2" x2="15.5" y2="14" stroke="#6773DA"/>
<line x1="30.5" y1="2" x2="30.5" y2="14" stroke="#6773DA"/>
<line x1="45.5" y1="2" x2="45.5" y2="14" stroke="#6773DA"/>
<line x1="60.5" y1="2" x2="60.5" y2="14" stroke="#6773DA"/>
<line x1="75.5" y1="2" x2="75.5" y2="14" stroke="#6773DA"/>
<line x1="90.5" y1="2" x2="90.5" y2="14" stroke="#6773DA"/>
<line x1="105.5" y1="2" x2="105.5" y2="14" stroke="#6773DA"/>
<line x1="120.5" y1="2" x2="120.5" y2="14" stroke="#6773DA"/>
<line x1="135.5" y1="2" x2="135.5" y2="14" stroke="#6773DA"/>
<line x1="150.5" y1="2" x2="150.5" y2="14" stroke="#6773DA"/>
<line x1="165.5" y1="2" x2="165.5" y2="14" stroke="#6773DA"/>
<line x1="180.5" y1="2" x2="180.5" y2="14" stroke="#6773DA"/>
<line x1="195.5" y1="2" x2="195.5" y2="14" stroke="#6773DA"/>
<line x1="210.5" y1="2" x2="210.5" y2="14" stroke="#6773DA"/>
<line x1="225.5" y1="2" x2="225.5" y2="14" stroke="#6773DA"/>
<line x1="240.5" y1="2" x2="240.5" y2="14" stroke="#6773DA"/>
<line x1="255.5" y1="2" x2="255.5" y2="14" stroke="#6773DA"/>
<line x1="270.5" y1="2" x2="270.5" y2="14" stroke="#6773DA"/>
<line x1="285.5" y1="2" x2="285.5" y2="14" stroke="#6773DA"/>
<line x1="300.5" y1="2" x2="300.5" y2="14" stroke="#6773DA"/>
<line x1="315.5" y1="2" x2="315.5" y2="14" stroke="#6773DA"/>
<line x1="330.5" y1="2" x2="330.5" y2="14" stroke="#6773DA"/>
<line x1="345.5" y1="2" x2="345.5" y2="14" stroke="#6773DA"/>
<line x1="360.5" y1="2" x2="360.5" y2="14" stroke="#6773DA"/>
<line x1="375.5" y1="2" x2="375.5" y2="14" stroke="#6773DA"/>
<line x1="390.5" y1="2" x2="390.5" y2="14" stroke="#6773DA"/>
<line x1="405.5" y1="2" x2="405.5" y2="14" stroke="#6773DA"/>
<line x1="420.5" y1="2" x2="420.5" y2="14" stroke="#6773DA"/>
<line x1="435.5" y1="2" x2="435.5" y2="14" stroke="#6773DA"/>
<line x1="450.5" y1="2" x2="450.5" y2="14" stroke="#6773DA"/>
<line x1="465.5" y1="2" x2="465.5" y2="14" stroke="#6773DA"/>
<line x1="480.5" y1="2" x2="480.5" y2="14" stroke="#6773DA"/>
<line x1="495.5" y1="2" x2="495.5" y2="14" stroke="#6773DA"/>
<line x1="510.5" y1="2" x2="510.5" y2="14" stroke="#6773DA"/>
<line x1="525.5" y1="2" x2="525.5" y2="14" stroke="#6773DA"/>
<line x1="540.5" y1="2" x2="540.5" y2="14" stroke="#6773DA"/>
<line x1="555.5" y1="2" x2="555.5" y2="14" stroke="#6773DA"/>
<line x1="570.5" y1="2" x2="570.5" y2="14" stroke="#6773DA"/>
<line x1="585.5" y1="2" x2="585.5" y2="14" stroke="#6773DA"/>
<line x1="600.5" y1="2" x2="600.5" y2="14" stroke="#6773DA"/>
<line x1="615.5" y1="2" x2="615.5" y2="14" stroke="#6773DA"/>
<line x1="630.5" y1="2" x2="630.5" y2="14" stroke="#6773DA"/>
<line x1="645.5" y1="2" x2="645.5" y2="14" stroke="#6773DA"/>
<line x1="660.5" y1="2" x2="660.5" y2="14" stroke="#6773DA"/>
<line x1="675.5" y1="2" x2="675.5" y2="14" stroke="#6773DA"/>
<line x1="690.5" y1="2" x2="690.5" y2="14" stroke="#6773DA"/>
<line x1="705.5" y1="2" x2="705.5" y2="14" stroke="#6773DA"/>
<line x1="720.5" y1="2" x2="720.5" y2="14" stroke="#6773DA"/>
<line x1="735.5" y1="2" x2="735.5" y2="14" stroke="#6773DA"/>
<line x1="750.5" y1="2" x2="750.5" y2="14" stroke="#6773DA"/>
<line x1="765.5" y1="2" x2="765.5" y2="14" stroke="#6773DA"/>
<line x1="780.5" y1="2" x2="780.5" y2="14" stroke="#6773DA"/>
<line x1="795.5" y1="2" x2="795.5" y2="14" stroke="#6773DA"/>
<line x1="810.5" y1="2" x2="810.5" y2="14" stroke="#6773DA"/>
<line x1="825.5" y1="2" x2="825.5" y2="14" stroke="#6773DA"/>
<line x1="840.5" y1="2" x2="840.5" y2="14" stroke="#6773DA"/>
<line x1="855.5" y1="2" x2="855.5" y2="14" stroke="#6773DA"/>
<line x1="870.5" y1="2" x2="870.5" y2="14" stroke="#6773DA"/>
<line x1="885.5" y1="2" x2="885.5" y2="14" stroke="#6773DA"/>
<line x1="900.5" y1="2" x2="900.5" y2="14" stroke="#6773DA"/>
<line x1="915.5" y1="2" x2="915.5" y2="14" stroke="#6773DA"/>
<line x1="930.5" y1="2" x2="930.5" y2="14" stroke="#6773DA"/>
<line x1="945.5" y1="2" x2="945.5" y2="14" stroke="#6773DA"/>
<line x1="960.5" y1="2" x2="960.5" y2="14" stroke="#6773DA"/>
<line x1="975.5" y1="2" x2="975.5" y2="14" stroke="#6773DA"/>
<line x1="990.5" y1="2" x2="990.5" y2="14" stroke="#6773DA"/>
<line x1="1005.5" y1="2" x2="1005.5" y2="14" stroke="#6773DA"/>
<line x1="1020.5" y1="2" x2="1020.5" y2="14" stroke="#6773DA"/>
<line x1="1035.5" y1="2" x2="1035.5" y2="14" stroke="#6773DA"/>
<line x1="1050.5" y1="2" x2="1050.5" y2="14" stroke="#6773DA"/>
<line x1="1065.5" y1="2" x2="1065.5" y2="14" stroke="#6773DA"/>
<line x1="1080.5" y1="2" x2="1080.5" y2="14" stroke="#6773DA"/>
<line x1="1095.5" y1="2" x2="1095.5" y2="14" stroke="#6773DA"/>
<line x1="1110.5" y1="2" x2="1110.5" y2="14" stroke="#6773DA"/>
<line x1="1125.5" y1="2" x2="1125.5" y2="14" stroke="#6773DA"/>
<line x1="1140.5" y1="2" x2="1140.5" y2="14" stroke="#6773DA"/>
<line x1="1155.5" y1="2" x2="1155.5" y2="14" stroke="#6773DA"/>
<line x1="1170.5" y1="2" x2="1170.5" y2="14" stroke="#6773DA"/>
<line x1="1185.5" y1="2" x2="1185.5" y2="14" stroke="#6773DA"/>
<line x1="1200.5" y1="2" x2="1200.5" y2="14" stroke="#6773DA"/>
<line x1="1215.5" y1="2" x2="1215.5" y2="14" stroke="#6773DA"/>
<line x1="1230.5" y1="2" x2="1230.5" y2="14" stroke="#6773DA"/>
<line x1="1245.5" y1="2" x2="1245.5" y2="14" stroke="#6773DA"/>
<line x1="1260.5" y1="2" x2="1260.5" y2="14" stroke="#6773DA"/>
<line x1="1275.5" y1="2" x2="1275.5" y2="14" stroke="#6773DA"/>
<line x1="1290.5" y1="2" x2="1290.5" y2="14" stroke="#6773DA"/>
<line x1="1305.5" y1="2" x2="1305.5" y2="14" stroke="#6773DA"/>
<line x1="1320.5" y1="2" x2="1320.5" y2="14" stroke="#6773DA"/>
<line x1="1335.5" y1="2" x2="1335.5" y2="14" stroke="#6773DA"/>
<line x1="1350.5" y1="2" x2="1350.5" y2="14" stroke="#6773DA"/>
<line x1="1365.5" y1="2" x2="1365.5" y2="14" stroke="#6773DA"/>
<line x1="1380.5" y1="2" x2="1380.5" y2="14" stroke="#6773DA"/>
<line x1="1395.5" y1="2" x2="1395.5" y2="14" stroke="#6773DA"/>
<line x1="1410.5" y1="2" x2="1410.5" y2="14" stroke="#6773DA"/>
<line x1="1425.5" y1="2" x2="1425.5" y2="14" stroke="#6773DA"/>
<line x1="1440.5" y1="2" x2="1440.5" y2="14" stroke="#6773DA"/>
<line x1="1455.5" y1="2" x2="1455.5" y2="14" stroke="#6773DA"/>
<line x1="1470.5" y1="2" x2="1470.5" y2="14" stroke="#6773DA"/>
<line x1="1485.5" y1="2" x2="1485.5" y2="14" stroke="#6773DA"/>
<line x1="1500.5" y1="2" x2="1500.5" y2="14" stroke="#6773DA"/>
<line x1="1515.5" y1="2" x2="1515.5" y2="14" stroke="#6773DA"/>
<line x1="1530.5" y1="2" x2="1530.5" y2="14" stroke="#6773DA"/>
<line x1="1545.5" y1="2" x2="1545.5" y2="14" stroke="#6773DA"/>
<line x1="1560.5" y1="2" x2="1560.5" y2="14" stroke="#6773DA"/>
<line x1="1575.5" y1="2" x2="1575.5" y2="14" stroke="#6773DA"/>
<line x1="1590.5" y1="2" x2="1590.5" y2="14" stroke="#6773DA"/>
<line x1="1605.5" y1="2" x2="1605.5" y2="14" stroke="#6773DA"/>
<line x1="1620.5" y1="2" x2="1620.5" y2="14" stroke="#6773DA"/>
<line x1="1635.5" y1="2" x2="1635.5" y2="14" stroke="#6773DA"/>
<line x1="1650.5" y1="2" x2="1650.5" y2="14" stroke="#6773DA"/>
<line x1="1665.5" y1="2" x2="1665.5" y2="14" stroke="#6773DA"/>
<line x1="1680.5" y1="2" x2="1680.5" y2="14" stroke="#6773DA"/>
<line x1="1695.5" y1="2" x2="1695.5" y2="14" stroke="#6773DA"/>
<line x1="1710.5" y1="2" x2="1710.5" y2="14" stroke="#6773DA"/>
<line x1="1725.5" y1="2" x2="1725.5" y2="14" stroke="#6773DA"/>
<line x1="1740.5" y1="2" x2="1740.5" y2="14" stroke="#6773DA"/>
<line x1="1755.5" y1="2" x2="1755.5" y2="14" stroke="#6773DA"/>
<line x1="1770.5" y1="2" x2="1770.5" y2="14" stroke="#6773DA"/>
<line x1="1785.5" y1="2" x2="1785.5" y2="14" stroke="#6773DA"/>
<line x1="1800.5" y1="2" x2="1800.5" y2="14" stroke="#6773DA"/>
<line x1="1815.5" y1="2" x2="1815.5" y2="14" stroke="#6773DA"/>
<line x1="1830.5" y1="2" x2="1830.5" y2="14" stroke="#6773DA"/>
<line x1="1845.5" y1="2" x2="1845.5" y2="14" stroke="#6773DA"/>
<line x1="1860.5" y1="2" x2="1860.5" y2="14" stroke="#6773DA"/>
<line x1="1875.5" y1="2" x2="1875.5" y2="14" stroke="#6773DA"/>
<line x1="1890.5" y1="2" x2="1890.5" y2="14" stroke="#6773DA"/>
<line x1="1905.5" y1="2" x2="1905.5" y2="14" stroke="#6773DA"/>
</svg>
