<svg width="322" height="103" viewBox="0 0 322 103" fill="none" xmlns="http://www.w3.org/2000/svg">
<g clip-path="url(#clip0_2122_10276)">
<path d="M26.4479 48.9432C30.8496 48.9432 35.2514 48.9381 39.6557 48.9432C41.965 48.9457 43.9354 50.4238 44.5582 52.6397C44.6977 53.1358 44.755 53.6752 44.755 54.1942C44.7674 62.4649 44.7351 70.7383 44.7799 79.0091C44.7948 81.5277 42.9166 84.2626 39.6084 84.2677C30.8048 84.2855 21.9988 84.2906 13.1952 84.2677C9.79734 84.2575 8.02616 81.4081 8.04111 78.9913C8.09093 70.7383 8.09093 62.4828 8.04111 54.2298C8.02616 51.6831 9.94431 48.9457 13.24 48.9457C17.6418 48.9457 22.0436 48.9457 26.4479 48.9457V48.9432Z" fill="#00783F"/>
<path d="M3.21375 72.1472C2.4141 71.1805 1.99311 70.1501 1.99062 68.9977C1.97318 60.5513 1.97318 52.1025 1.99062 43.6561C1.99062 42.5037 2.4166 41.4809 3.21375 40.5015V72.1472Z" fill="#00783F"/>
<path d="M7.05004 47.834V79.4238C6.38741 78.6707 6.05111 77.8694 5.91161 76.984C5.83687 76.5006 5.81944 76.0045 5.81944 75.5161C5.81445 67.5073 5.81694 59.4986 5.81445 51.4898C5.81445 50.172 6.12335 48.9585 7.05004 47.834Z" fill="#00783F"/>
<path d="M1.27298 36.8486V68.469C0.615326 67.665 0.251625 66.8458 0.12707 65.9198C0.08223 65.5916 0.0797389 65.2533 0.0797389 64.92C0.0797389 56.756 0.0797389 48.5921 0.0722656 40.4282C0.0722656 39.3469 0.274045 38.3395 0.856963 37.4287C0.964081 37.2608 1.08864 37.103 1.27298 36.8486Z" fill="#00783F"/>
<path d="M5.0848 75.7575C4.3848 74.8442 3.98622 73.9334 3.94387 72.8929C3.9065 71.9643 3.92643 71.0331 3.92643 70.102C3.92643 62.6402 3.93391 55.1759 3.91896 47.7141C3.91647 46.4345 4.24778 45.3049 5.0848 44.2109V75.7575Z" fill="#00783F"/>
<path d="M26.4433 12.059C30.8451 12.059 35.2469 12.0564 39.6486 12.059C42.1173 12.059 44.0953 13.6211 44.6906 16.0506C44.7977 16.4882 44.8501 16.9513 44.8501 17.4016C44.86 25.6189 44.8575 33.8388 44.8575 42.0562C44.8575 45.1702 42.6679 47.4725 39.6138 47.4802C30.8102 47.5005 22.0066 47.5005 13.2031 47.4802C10.1714 47.4725 7.98422 45.1956 7.97924 42.0995C7.97176 33.8643 7.97176 25.6266 7.97924 17.3914C7.98173 14.8269 9.49881 12.8324 11.9127 12.2091C12.3561 12.0946 12.8294 12.0641 13.2903 12.0615C17.6746 12.0514 22.059 12.0564 26.4458 12.0564L26.4433 12.059Z" fill="#9099A6"/>
<path d="M322 81.2197V83.199H85.0908V81.2197H322Z" fill="#00783F"/>
<path d="M1.34021 31.8239C0.657651 31.0886 0.301423 30.3101 0.122064 29.4502C0.0373665 29.0432 0.00498221 28.6158 0.00498221 28.1985C0 19.9099 0 11.6188 0 3.3302C0 2.26423 0.323843 1.29748 0.906762 0.419773C0.983986 0.302745 1.07367 0.195894 1.16335 0.0915868C1.19324 0.0585138 1.24804 0.0457934 1.33523 0V31.8239H1.34021Z" fill="#9099A6"/>
<path d="M5.17605 39.1229C4.46609 38.3571 4.08744 37.515 3.93299 36.5763C3.85826 36.1285 3.8458 35.668 3.8458 35.2126C3.84082 27.1174 3.8458 19.0221 3.84082 10.9269C3.84082 9.77442 4.0974 8.7059 4.75007 7.75187C4.85719 7.59669 4.97925 7.45422 5.17605 7.19727V39.1254V39.1229Z" fill="#9099A6"/>
<path d="M3.25378 3.57715V35.457C2.61357 34.7853 2.25734 34.0476 2.08047 33.2335C1.97833 32.7603 1.95093 32.2616 1.95093 31.7732C1.94346 23.6118 1.95093 15.4478 1.93848 7.28641C1.93848 6.07034 2.20004 4.96367 2.90752 3.97911C2.98474 3.86972 3.08189 3.77559 3.25627 3.57715H3.25378Z" fill="#9099A6"/>
<path d="M7.06771 42.7633C6.26059 41.8169 5.79475 40.8043 5.79226 39.6595C5.76984 31.1241 5.77233 22.5862 5.79226 14.0508C5.79475 12.8983 6.23817 11.8705 7.06771 10.9165V42.7633Z" fill="#9099A6"/>
<path d="M13.3577 91.5869H10.1865V89.5898H18.8581V91.5869H15.6869V100.397H13.3602V91.5869H13.3577Z" fill="#9099A6"/>
<path d="M20.0732 89.5895H24.8462C25.5088 89.5895 26.0718 89.6887 26.5352 89.8846C26.9985 90.0805 27.3772 90.3425 27.6686 90.6631C27.9601 90.9862 28.1718 91.3576 28.3063 91.7748C28.4409 92.1946 28.5056 92.6194 28.5056 93.0545C28.5056 93.4895 28.4384 93.9271 28.3063 94.3418C28.1718 94.7565 27.9601 95.1228 27.6686 95.4459C27.3772 95.769 26.9985 96.0285 26.5352 96.227C26.0718 96.4228 25.5063 96.5221 24.8462 96.5221H22.3999V100.397H20.0732V89.5869V89.5895ZM24.2085 94.6751C24.475 94.6751 24.7316 94.6547 24.9782 94.614C25.2248 94.5733 25.4416 94.497 25.6309 94.38C25.8177 94.2629 25.9697 94.1001 26.0818 93.8889C26.1964 93.6778 26.2512 93.4005 26.2512 93.057C26.2512 92.7136 26.1939 92.4363 26.0818 92.2251C25.9672 92.014 25.8177 91.8486 25.6309 91.7341C25.4441 91.6171 25.2248 91.5408 24.9782 91.5001C24.7316 91.4594 24.475 91.439 24.2085 91.439H22.3999V94.6776H24.2085V94.6751Z" fill="#9099A6"/>
<path d="M32.8503 89.5898H35.2368L39.1952 100.4H36.7788L35.9791 97.9929H32.0208L31.1912 100.4H28.8496L32.8528 89.5898H32.8503ZM35.3688 96.2197L34.0336 92.2535H34.0037L32.6261 96.2197H35.3688Z" fill="#9099A6"/>
<path d="M40.1113 89.5898H42.438V93.7367H46.7227V89.5898H49.0494V100.4H46.7227V95.7363H42.438V100.4H40.1113V89.5898Z" fill="#9099A6"/>
<path d="M55.8402 100.641C55.0206 100.641 54.2882 100.496 53.6455 100.209C53.0028 99.9211 52.4598 99.5242 52.0139 99.0205C51.5704 98.5167 51.2292 97.9214 50.99 97.2422C50.7534 96.5603 50.6338 95.8277 50.6338 95.039C50.6338 94.2503 50.7534 93.4947 50.99 92.7977C51.2267 92.1006 51.568 91.4951 52.0139 90.9812C52.4598 90.4673 53.0028 90.0628 53.6455 89.7702C54.2882 89.4776 55.0181 89.3301 55.8402 89.3301C56.4132 89.3301 56.9612 89.4166 57.4868 89.587C58.0099 89.76 58.4783 90.0093 58.8868 90.3375C59.2978 90.6657 59.6366 91.0728 59.9032 91.5561C60.1697 92.0395 60.3366 92.5967 60.4064 93.2225H58.1544C58.1146 92.9503 58.0249 92.701 57.8879 92.472C57.7509 92.243 57.5765 92.0472 57.3697 91.8742C57.163 91.7037 56.9263 91.5689 56.6648 91.4722C56.4032 91.3781 56.1292 91.3297 55.8427 91.3297C55.3196 91.3297 54.8736 91.434 54.5075 91.6401C54.1413 91.8462 53.8448 92.1235 53.6181 92.472C53.3914 92.8206 53.2245 93.2174 53.1224 93.6601C53.0178 94.1053 52.9655 94.5632 52.9655 95.0364C52.9655 95.5096 53.0178 95.932 53.1224 96.3619C53.227 96.7893 53.3914 97.176 53.6181 97.5195C53.8448 97.8629 54.1413 98.1377 54.5075 98.3437C54.8736 98.5498 55.3171 98.6541 55.8427 98.6541C56.5551 98.6541 57.1107 98.4328 57.5092 97.9876C57.9103 97.5449 58.1544 96.9572 58.2441 96.2322H60.4986C60.4388 96.9191 60.2868 97.5322 60.0377 98.0715C59.7911 98.6109 59.4648 99.0739 59.0587 99.4555C58.6527 99.8397 58.1793 100.132 57.6363 100.333C57.0932 100.534 56.4954 100.636 55.8427 100.636L55.8402 100.641Z" fill="#9099A6"/>
<path d="M62.0811 89.5898H70.8871V100.4H68.5604V91.5895H64.4102V100.4H62.0835V89.5898H62.0811Z" fill="#9099A6"/>
<path d="M77.6752 100.641C76.8556 100.641 76.1232 100.496 75.4805 100.209C74.8378 99.9211 74.2947 99.5242 73.8488 99.0205C73.4054 98.5167 73.0641 97.9214 72.825 97.2422C72.5883 96.5603 72.4688 95.8277 72.4688 95.039C72.4688 94.2503 72.5883 93.4947 72.825 92.7977C73.0616 92.1006 73.4029 91.4951 73.8488 90.9812C74.2947 90.4673 74.8378 90.0628 75.4805 89.7702C76.1232 89.4776 76.8531 89.3301 77.6752 89.3301C78.4972 89.3301 79.2147 89.4776 79.8623 89.7702C80.51 90.0628 81.0556 90.4673 81.5015 90.9812C81.9474 91.4951 82.2862 92.1006 82.5253 92.7977C82.762 93.4947 82.8816 94.2401 82.8816 95.039C82.8816 95.8378 82.762 96.5603 82.5253 97.2422C82.2887 97.924 81.9474 98.5167 81.5015 99.0205C81.0556 99.5242 80.51 99.9211 79.8623 100.209C79.2147 100.496 78.4873 100.641 77.6752 100.641ZM77.6752 98.6567C78.1983 98.6567 78.6442 98.5524 79.0104 98.3463C79.3766 98.1402 79.673 97.8655 79.8997 97.522C80.1264 97.1786 80.2933 96.7919 80.3954 96.3645C80.5001 95.9345 80.5499 95.4944 80.5499 95.039C80.5499 94.5836 80.4976 94.1053 80.3954 93.6626C80.2908 93.2174 80.1264 92.8231 79.8997 92.4746C79.673 92.126 79.3766 91.8487 79.0104 91.6426C78.6442 91.4366 78.2008 91.3323 77.6752 91.3323C77.1495 91.3323 76.7061 91.4366 76.3399 91.6426C75.9737 91.8487 75.6773 92.126 75.4506 92.4746C75.2239 92.8231 75.057 93.22 74.9549 93.6626C74.8502 94.1079 74.7979 94.5658 74.7979 95.039C74.7979 95.5122 74.8502 95.9345 74.9549 96.3645C75.0595 96.7919 75.2239 97.1786 75.4506 97.522C75.6773 97.8655 75.9737 98.1402 76.3399 98.3463C76.7061 98.5524 77.1495 98.6567 77.6752 98.6567Z" fill="#9099A6"/>
<path d="M84.4629 89.5895H89.2358C89.8985 89.5895 90.4615 89.6887 90.9248 89.8846C91.3882 90.0805 91.7668 90.3425 92.0583 90.6631C92.3497 90.9862 92.5615 91.3576 92.696 91.7748C92.8305 92.1946 92.8953 92.6194 92.8953 93.0545C92.8953 93.4895 92.828 93.9271 92.696 94.3418C92.5615 94.7565 92.3497 95.1228 92.0583 95.4459C91.7668 95.769 91.3882 96.0285 90.9248 96.227C90.4615 96.4228 89.896 96.5221 89.2358 96.5221H86.7896V100.397H84.4629V89.5869V89.5895ZM88.5981 94.6751C88.8647 94.6751 89.1213 94.6547 89.3679 94.614C89.6145 94.5733 89.8312 94.497 90.0205 94.38C90.2074 94.2629 90.3593 94.1001 90.4714 93.8889C90.5835 93.6778 90.6408 93.4005 90.6408 93.057C90.6408 92.7136 90.5835 92.4363 90.4714 92.2251C90.3568 92.014 90.2074 91.8486 90.0205 91.7341C89.8337 91.6171 89.6145 91.5408 89.3679 91.5001C89.1213 91.4594 88.8647 91.439 88.5981 91.439H86.7896V94.6776H88.5981V94.6751Z" fill="#9099A6"/>
<path d="M96.6927 91.5869H93.5215V89.5898H102.193V91.5869H99.0218V100.397H96.6951V91.5869H96.6927Z" fill="#9099A6"/>
<path d="M103.408 89.5898H105.735V93.7367H110.02V89.5898H112.346V100.4H110.02V95.7363H105.735V100.4H103.408V89.5898Z" fill="#9099A6"/>
<path d="M119.134 100.641C118.315 100.641 117.582 100.496 116.939 100.209C116.297 99.9211 115.754 99.5242 115.308 99.0205C114.864 98.5167 114.523 97.9214 114.284 97.2422C114.047 96.5603 113.928 95.8277 113.928 95.039C113.928 94.2503 114.047 93.4947 114.284 92.7977C114.521 92.1006 114.862 91.4951 115.308 90.9812C115.754 90.4673 116.297 90.0628 116.939 89.7702C117.582 89.4776 118.312 89.3301 119.134 89.3301C119.956 89.3301 120.674 89.4776 121.321 89.7702C121.969 90.0628 122.515 90.4673 122.96 90.9812C123.406 91.4951 123.745 92.1006 123.984 92.7977C124.221 93.4947 124.341 94.2401 124.341 95.039C124.341 95.8378 124.221 96.5603 123.984 97.2422C123.748 97.924 123.406 98.5167 122.96 99.0205C122.515 99.5242 121.969 99.9211 121.321 100.209C120.674 100.496 119.946 100.641 119.134 100.641ZM119.134 98.6567C119.657 98.6567 120.103 98.5524 120.469 98.3463C120.836 98.1402 121.132 97.8655 121.359 97.522C121.585 97.1786 121.752 96.7919 121.854 96.3645C121.959 95.9345 122.009 95.4944 122.009 95.039C122.009 94.5836 121.957 94.1053 121.854 93.6626C121.75 93.2174 121.585 92.8231 121.359 92.4746C121.132 92.126 120.836 91.8487 120.469 91.6426C120.103 91.4366 119.66 91.3323 119.134 91.3323C118.609 91.3323 118.165 91.4366 117.799 91.6426C117.433 91.8487 117.136 92.126 116.91 92.4746C116.683 92.8231 116.516 93.22 116.414 93.6626C116.309 94.1079 116.257 94.5658 116.257 95.039C116.257 95.5122 116.309 95.9345 116.414 96.3645C116.518 96.7919 116.683 97.1786 116.91 97.522C117.136 97.8655 117.433 98.1402 117.799 98.3463C118.165 98.5524 118.609 98.6567 119.134 98.6567Z" fill="#9099A6"/>
<path d="M130.148 95.3418V97.1888H125.687V95.3418H130.148Z" fill="#9099A6"/>
<path d="M132.12 100.519C131.754 100.519 131.418 100.458 131.111 100.339V98.4C131.151 98.4203 131.208 98.4356 131.281 98.4458C131.355 98.456 131.418 98.461 131.465 98.461C131.841 98.461 132.15 98.3338 132.392 98.082C132.633 97.8301 132.823 97.4358 132.955 96.9015C133.089 96.3673 133.179 95.6753 133.229 94.8281C133.279 93.9809 133.303 92.9607 133.303 91.7701V89.5898H140.924V100.4H138.612V91.5895H135.513C135.483 92.8412 135.441 94.0115 135.386 95.1029C135.331 96.1917 135.202 97.1381 134.992 97.9421C134.786 98.746 134.459 99.3769 134.013 99.8348C133.57 100.293 132.937 100.524 132.115 100.524L132.12 100.519Z" fill="#9099A6"/>
<path d="M147.715 100.641C146.896 100.641 146.163 100.496 145.521 100.209C144.878 99.9211 144.335 99.5242 143.889 99.0205C143.445 98.5167 143.104 97.9214 142.865 97.2422C142.628 96.5603 142.509 95.8277 142.509 95.039C142.509 94.2503 142.628 93.4947 142.865 92.7977C143.102 92.1006 143.443 91.4951 143.889 90.9812C144.335 90.4673 144.878 90.0628 145.521 89.7702C146.163 89.4776 146.893 89.3301 147.715 89.3301C148.537 89.3301 149.255 89.4776 149.902 89.7702C150.55 90.0628 151.096 90.4673 151.542 90.9812C151.987 91.4951 152.326 92.1006 152.565 92.7977C152.802 93.4947 152.922 94.2401 152.922 95.039C152.922 95.8378 152.802 96.5603 152.565 97.2422C152.329 97.924 151.987 98.5167 151.542 99.0205C151.096 99.5242 150.55 99.9211 149.902 100.209C149.255 100.496 148.527 100.641 147.715 100.641ZM147.715 98.6567C148.238 98.6567 148.684 98.5524 149.05 98.3463C149.417 98.1402 149.713 97.8655 149.94 97.522C150.166 97.1786 150.333 96.7919 150.435 96.3645C150.54 95.9345 150.59 95.4944 150.59 95.039C150.59 94.5836 150.538 94.1053 150.435 93.6626C150.331 93.2174 150.166 92.8231 149.94 92.4746C149.713 92.126 149.417 91.8487 149.05 91.6426C148.684 91.4366 148.241 91.3323 147.715 91.3323C147.19 91.3323 146.746 91.4366 146.38 91.6426C146.014 91.8487 145.717 92.126 145.491 92.4746C145.264 92.8231 145.097 93.22 144.995 93.6626C144.89 94.1079 144.838 94.5658 144.838 95.039C144.838 95.5122 144.89 95.9345 144.995 96.3645C145.1 96.7919 145.264 97.1786 145.491 97.522C145.717 97.8655 146.014 98.1402 146.38 98.3463C146.746 98.5524 147.19 98.6567 147.715 98.6567Z" fill="#9099A6"/>
<path d="M154.578 89.5895H161.929V91.5866H156.905V100.397H154.578V89.5869V89.5895Z" fill="#9099A6"/>
<path d="M163.011 89.5898H165.322V97.0847H165.367L169.4 89.5898H172.009V100.4H169.697V92.8921H169.652L165.621 100.4H163.013V89.5898H163.011Z" fill="#9099A6"/>
<path d="M178.799 100.641C177.98 100.641 177.247 100.496 176.605 100.209C175.962 99.9211 175.419 99.5242 174.973 99.0205C174.529 98.5167 174.188 97.9214 173.949 97.2422C173.712 96.5603 173.593 95.8277 173.593 95.039C173.593 94.2503 173.712 93.4947 173.949 92.7977C174.186 92.1006 174.527 91.4951 174.973 90.9812C175.419 90.4673 175.962 90.0628 176.605 89.7702C177.247 89.4776 177.977 89.3301 178.799 89.3301C179.372 89.3301 179.92 89.4166 180.446 89.587C180.969 89.76 181.437 90.0093 181.846 90.3375C182.257 90.6657 182.596 91.0728 182.862 91.5561C183.129 92.0395 183.296 92.5967 183.365 93.2225H181.113C181.074 92.9503 180.984 92.701 180.847 92.472C180.71 92.243 180.535 92.0472 180.329 91.8742C180.122 91.7037 179.885 91.5689 179.624 91.4722C179.362 91.3781 179.088 91.3297 178.802 91.3297C178.279 91.3297 177.833 91.434 177.466 91.6401C177.1 91.8462 176.804 92.1235 176.577 92.472C176.35 92.8206 176.184 93.2174 176.081 93.6601C175.977 94.1053 175.924 94.5632 175.924 95.0364C175.924 95.5096 175.977 95.932 176.081 96.3619C176.186 96.7893 176.35 97.176 176.577 97.5195C176.804 97.8629 177.1 98.1377 177.466 98.3437C177.833 98.5498 178.276 98.6541 178.802 98.6541C179.514 98.6541 180.07 98.4328 180.468 97.9876C180.869 97.5449 181.113 96.9572 181.203 96.2322H183.458C183.398 96.9191 183.246 97.5322 182.997 98.0715C182.75 98.6109 182.424 99.0739 182.018 99.4555C181.612 99.8397 181.138 100.132 180.595 100.333C180.052 100.534 179.454 100.636 178.802 100.636L178.799 100.641Z" fill="#9099A6"/>
<path d="M187.381 91.5869H184.21V89.5898H192.882V91.5869H189.71V100.397H187.384V91.5869H187.381Z" fill="#9099A6"/>
<path d="M194.097 89.5898H196.408V97.0847H196.453L200.486 89.5898H203.095V100.4H200.783V92.8921H200.738L196.707 100.4H194.099V89.5898H194.097Z" fill="#9099A6"/>
<path d="M210.83 96.2959C210.573 96.357 210.262 96.4206 209.895 96.4918C209.529 96.5631 209.148 96.5987 208.755 96.5987C208.112 96.5987 207.544 96.5325 207.051 96.4028C206.557 96.273 206.141 96.0568 205.805 95.7591C205.469 95.4615 205.215 95.0722 205.04 94.5939C204.868 94.1157 204.781 93.528 204.781 92.8309V89.5923H207.093V92.8614C207.093 93.5178 207.272 93.9757 207.634 94.2403C207.995 94.5024 208.461 94.6346 209.034 94.6346C209.41 94.6346 209.761 94.6041 210.085 94.5431C210.411 94.482 210.658 94.4311 210.825 94.3904V89.5923H213.151V100.402H210.825V96.301L210.83 96.2959Z" fill="#9099A6"/>
<path d="M215.219 89.5895H223.135V91.5866H217.548V93.9017H222.677V95.7487H217.548V98.3996H223.255V100.397H215.221V89.5869L215.219 89.5895Z" fill="#9099A6"/>
<path d="M229.568 100.641C228.748 100.641 228.016 100.496 227.373 100.209C226.73 99.9211 226.187 99.5242 225.741 99.0205C225.298 98.5167 224.957 97.9214 224.718 97.2422C224.481 96.5603 224.361 95.8277 224.361 95.039C224.361 94.2503 224.481 93.4947 224.718 92.7977C224.954 92.1006 225.295 91.4951 225.741 90.9812C226.187 90.4673 226.73 90.0628 227.373 89.7702C228.016 89.4776 228.746 89.3301 229.568 89.3301C230.141 89.3301 230.689 89.4166 231.214 89.587C231.737 89.76 232.206 90.0093 232.614 90.3375C233.025 90.6657 233.364 91.0728 233.631 91.5561C233.897 92.0395 234.064 92.5967 234.134 93.2225H231.882C231.842 92.9503 231.752 92.701 231.615 92.472C231.478 92.243 231.304 92.0472 231.097 91.8742C230.891 91.7037 230.654 91.5689 230.392 91.4722C230.131 91.3781 229.857 91.3297 229.57 91.3297C229.047 91.3297 228.601 91.434 228.235 91.6401C227.869 91.8462 227.572 92.1235 227.346 92.472C227.119 92.8206 226.952 93.2174 226.85 93.6601C226.745 94.1053 226.693 94.5632 226.693 95.0364C226.693 95.5096 226.745 95.932 226.85 96.3619C226.955 96.7893 227.119 97.176 227.346 97.5195C227.572 97.8629 227.869 98.1377 228.235 98.3437C228.601 98.5498 229.045 98.6541 229.57 98.6541C230.283 98.6541 230.838 98.4328 231.237 97.9876C231.638 97.5449 231.882 96.9572 231.972 96.2322H234.226C234.166 96.9191 234.014 97.5322 233.765 98.0715C233.519 98.6109 233.192 99.0739 232.786 99.4555C232.38 99.8397 231.907 100.132 231.364 100.333C230.821 100.534 230.223 100.636 229.57 100.636L229.568 100.641Z" fill="#9099A6"/>
<path d="M235.808 89.5895H238.135V93.9195L242.27 89.5895H245.175L240.609 94.1154L245.573 100.397H242.654L238.917 95.5986L238.132 96.461V100.397H235.806V89.5869L235.808 89.5895Z" fill="#9099A6"/>
<path d="M246.51 89.5898H248.822V97.0847H248.866L252.899 89.5898H255.508V100.4H253.196V92.8921H253.151L249.12 100.4H246.512V89.5898H246.51Z" fill="#9099A6"/>
<path d="M257.553 89.5898H259.864V97.0847H259.909L263.942 89.5898H266.551V100.4H264.239V92.892H264.194L260.163 100.4H257.555V89.5898H257.553ZM262.194 88.6663C260.285 88.6663 259.334 87.8904 259.334 86.3359H261.053C261.063 86.6489 261.152 86.9058 261.319 87.1068C261.486 87.3103 261.778 87.4095 262.194 87.4095C262.61 87.4095 262.906 87.3129 263.083 87.1144C263.26 86.9185 263.345 86.659 263.335 86.3359H265.053C265.053 87.8904 264.099 88.6663 262.194 88.6663Z" fill="#9099A6"/>
<path d="M280.588 100.397H272.716V89.5869H275.043V98.397H279.193V89.5869H281.519V98.397H282.69V102.862H280.585V100.394L280.588 100.397Z" fill="#9099A6"/>
<path d="M283.863 89.5895H291.78V91.5866H286.192V93.9017H291.322V95.7487H286.192V98.3996H291.9V100.397H283.866V89.5869L283.863 89.5895Z" fill="#9099A6"/>
<path d="M293.47 89.5898H295.796V93.7367H300.081V89.5898H302.408V100.4H300.081V95.7363H295.796V100.4H293.47V89.5898Z" fill="#9099A6"/>
<path d="M306.797 91.5869H303.626V89.5898H312.298V91.5869H309.126V100.397H306.8V91.5869H306.797Z" fill="#9099A6"/>
<path d="M313.511 89.5895H318.284C318.946 89.5895 319.509 89.6887 319.973 89.8846C320.436 90.0805 320.815 90.3425 321.106 90.6631C321.398 90.9862 321.609 91.3576 321.744 91.7748C321.878 92.1946 321.943 92.6194 321.943 93.0545C321.943 93.4895 321.876 93.9271 321.744 94.3418C321.609 94.7565 321.398 95.1228 321.106 95.4459C320.815 95.769 320.436 96.0285 319.973 96.227C319.509 96.4228 318.944 96.5221 318.284 96.5221H315.837V100.397H313.511V89.5869V89.5895ZM317.646 94.6751C317.913 94.6751 318.169 94.6547 318.416 94.614C318.662 94.5733 318.879 94.497 319.068 94.38C319.255 94.2629 319.407 94.1001 319.519 93.8889C319.631 93.6778 319.689 93.4005 319.689 93.057C319.689 92.7136 319.631 92.4363 319.519 92.2251C319.407 92.014 319.255 91.8486 319.068 91.7341C318.882 91.6171 318.662 91.5408 318.416 91.5001C318.169 91.4594 317.913 91.439 317.646 91.439H315.837V94.6776H317.646V94.6751Z" fill="#9099A6"/>
<path d="M64.8834 48.9046C69.2852 48.9046 73.687 48.8995 78.0912 48.9046C80.4005 48.9071 82.371 50.3853 82.9937 52.6011C83.1332 53.0972 83.1905 53.6366 83.1905 54.1556C83.203 62.4264 83.1706 70.6997 83.2154 78.9705C83.2304 81.4892 81.3521 84.224 78.0439 84.2291C69.2404 84.2469 60.4343 84.252 51.6307 84.2291C48.2329 84.2189 46.4617 81.3696 46.4767 78.9527C46.5265 70.6997 46.5265 62.4442 46.4767 54.1912C46.4617 51.6446 48.3799 48.9072 51.6756 48.9072C56.0774 48.9072 60.4791 48.9072 64.8834 48.9072V48.9046Z" fill="#9099A6"/>
<path d="M129.548 74.1575H115.241V60.1523H129.548V62.4446H117.937V65.9249H129.157V68.2171H117.937V71.8704H129.548V74.1626V74.1575Z" fill="#00783F"/>
<path d="M149.108 74.1575H146.413V68.2145H134.595V74.1575H131.899V60.1523H134.595V65.9223H146.413V60.1523H149.108V74.1575Z" fill="#00783F"/>
<path d="M166.409 62.4446H159.935V74.1575H157.284V62.4446H150.832V60.1523H166.406V62.4446H166.409Z" fill="#00783F"/>
<path d="M184.287 64.7139C184.287 66.1106 183.926 67.2071 183.203 67.9983C182.436 68.8353 181.322 69.2525 179.863 69.2525H170.578V74.1575H167.928V60.1523H179.93C181.39 60.1523 182.496 60.5772 183.248 61.4269C183.938 62.2207 184.284 63.3146 184.284 64.7113L184.287 64.7139ZM181.591 64.7139C181.591 63.2001 181.001 62.4446 179.82 62.4446H170.578V66.9603H179.843C181.009 66.9603 181.589 66.2123 181.589 64.7113L181.591 64.7139Z" fill="#00783F"/>
<path d="M205.16 74.1575H202.141L200.457 71.1529H190.493L188.806 74.1575H185.787L193.644 60.1523H197.308L205.165 74.1575H205.16ZM199.249 68.8633L195.602 62.269H195.37L191.723 68.8633H199.249Z" fill="#00783F"/>
<path d="M223.728 74.1574H221.033V62.4445H211.148V64.7621C211.148 71.0282 210.227 74.1599 208.383 74.1599H206.034V71.8677H207.14C208.062 71.8677 208.523 70.0156 208.523 66.314V60.1548H223.728V74.1599V74.1574Z" fill="#00783F"/>
<path d="M243.152 69.5985C243.152 72.6387 241.699 74.1575 238.797 74.1575H226.795V60.1523H229.445V65.1235H238.707C241.672 65.1235 243.154 66.6143 243.154 69.5985H243.152ZM240.501 69.5985C240.501 68.1433 239.911 67.4157 238.727 67.4157H229.443V71.8678H238.705C239.903 71.8678 240.501 71.1122 240.501 69.5985Z" fill="#00783F"/>
<path d="M263.033 74.1575H260.338V68.2145H248.518V74.1575H245.822V60.1523H248.518V65.9223H260.338V60.1523H263.033V74.1575Z" fill="#00783F"/>
<path d="M282.248 69.5985C282.248 72.6387 280.773 74.1575 277.824 74.1575H265.889V60.1523H268.584V65.1235H277.831C279.303 65.1235 280.414 65.5331 281.167 66.3548C281.887 67.118 282.248 68.1993 282.248 69.596V69.5985ZM279.6 69.5985C279.6 68.1433 279.009 67.4157 277.829 67.4157H268.587V71.8678H277.829C279.009 71.8678 279.6 71.1122 279.6 69.5985ZM287.27 74.1575H284.619V60.1523H287.27V74.1575Z" fill="#00783F"/>
<path d="M308.05 74.1575H305.399V62.7448L293.489 74.1575H289.872V60.1295H292.523V71.6542L304.52 60.1295H308.05V74.1575ZM302.313 60.4348H295.355V58.1426H302.313V60.4348Z" fill="#00783F"/>
<path d="M113.744 78.1159H110.673C110.673 77.0016 110.638 76.2663 110.566 75.9102C110.369 74.9485 109.915 74.4651 109.203 74.4651H88.4844V54.6519H91.5559V71.7811H109.203V54.6519H112.274V71.7811H113.744V78.1159Z" fill="#00783F"/>
</g>
<defs>
<clipPath id="clip0_2122_10276">
<rect width="322" height="102.865" fill="white"/>
</clipPath>
</defs>
</svg>
