<svg width="266" height="85" viewBox="0 0 266 85" fill="none" xmlns="http://www.w3.org/2000/svg">
<g clip-path="url(#clip0_876_6296)">
<path d="M21.848 40.4029C25.4849 40.4029 29.1205 40.4029 32.7547 40.4029C33.6641 40.3884 34.553 40.6792 35.2847 41.2305C36.0164 41.7818 36.5504 42.5632 36.8046 43.4544C36.9162 43.8725 36.9709 44.3043 36.9672 44.7376C36.9672 51.5652 36.9507 58.3885 36.9877 65.2224C36.9938 65.7956 36.8875 66.3642 36.675 66.8947C36.4625 67.4253 36.1482 67.9071 35.7505 68.3118C35.3528 68.7165 34.8797 69.0359 34.3592 69.2512C33.8387 69.4666 33.2813 69.5734 32.7197 69.5655C25.4486 69.5795 18.1774 69.5795 10.9063 69.5655C8.09938 69.5655 6.63624 67.205 6.64859 65.2098C6.68974 58.3955 6.68974 51.5813 6.64859 44.767C6.64387 44.1909 6.75197 43.6196 6.96652 43.0867C7.18107 42.5538 7.49776 42.0699 7.898 41.6636C8.29824 41.2573 8.77398 40.9367 9.29728 40.7205C9.82059 40.5044 10.3809 40.3971 10.9454 40.405H21.8521" fill="white"/>
<path d="M2.65536 59.5583C2.01972 58.8462 1.66109 57.9215 1.64701 56.9584C1.63329 49.9859 1.63329 43.0127 1.64701 36.0388C1.64701 35.0895 1.9989 34.2431 2.65742 33.4346L2.65536 59.5583Z" fill="white"/>
<path d="M5.82366 39.4829V65.5647C5.32005 65.0043 4.99249 64.3028 4.88321 63.5506C4.82677 63.1494 4.80131 62.7442 4.80707 62.3388C4.80707 55.7276 4.80707 49.1163 4.80707 42.505C4.77134 41.4036 5.13807 40.328 5.83601 39.4871" fill="white"/>
<path d="M1.05097 30.4185V56.5212C0.542259 55.9299 0.213326 55.2001 0.104347 54.4211C0.0727247 54.1472 0.0596605 53.8714 0.0652475 53.5957C0.0652475 46.857 0.0652475 40.1177 0.0652475 33.3776C0.0346377 32.5047 0.260376 31.6425 0.713476 30.9015C0.801964 30.7629 0.904857 30.6327 1.05714 30.4227" fill="white"/>
<path d="M4.2008 62.5384C3.62254 61.7844 3.29328 61.0326 3.25829 60.1736C3.22742 59.4071 3.24595 58.6363 3.24389 57.8635C3.24389 51.703 3.24389 45.5426 3.24389 39.3821C3.2211 38.3325 3.56217 37.3083 4.20697 36.4902L4.2008 62.5384Z" fill="white"/>
<path d="M21.845 9.95474C25.482 9.95474 29.1175 9.95474 32.7517 9.95474C33.7119 9.93043 34.6508 10.245 35.41 10.8453C36.1692 11.4457 36.7022 12.295 36.9189 13.2499C37.0039 13.6152 37.0454 13.9896 37.0424 14.3651C37.0506 21.1499 37.0506 27.9341 37.0424 34.7176C37.0424 37.2882 35.2335 39.1888 32.7209 39.1951C25.4497 39.2119 18.1786 39.2119 10.9075 39.1951C8.40303 39.1951 6.58594 37.305 6.58594 34.7533C6.58594 27.9558 6.58594 21.1576 6.58594 14.3588C6.58594 12.2397 7.84741 10.5932 9.84148 10.0807C10.2146 9.99333 10.5967 9.95242 10.9795 9.95894C14.6013 9.95054 18.2239 9.95054 21.8471 9.95894" fill="white"/>
<path d="M266 67.0474H70.293V68.6813H266V67.0474Z" fill="white"/>
<path d="M1.10717 26.2708C0.594117 25.73 0.244731 25.0496 0.100874 24.3113C0.0324947 23.9714 -0.00129637 23.6251 3.80234e-05 23.2781C3.80234e-05 16.44 3.80234e-05 9.59699 3.80234e-05 2.7491C0.00335972 1.88863 0.265555 1.04996 0.75116 0.346525C0.813913 0.25175 0.882654 0.161252 0.956947 0.0756054C1.00315 0.0430707 1.05376 0.0175999 1.10717 0V26.2708Z" fill="white"/>
<path d="M4.27652 32.296C3.73029 31.7205 3.37102 30.9872 3.24759 30.1959C3.19296 29.8234 3.16887 29.4468 3.17556 29.0702C3.17556 22.3875 3.17556 15.7049 3.17556 9.02218C3.14976 8.08966 3.41258 7.17256 3.92668 6.40119C4.01311 6.27308 4.11601 6.15547 4.27858 5.94336L4.27652 32.296Z" fill="white"/>
<path d="M2.68722 2.95264V29.2696C2.19842 28.7652 1.86197 28.1281 1.71796 27.4341C1.63976 27.0374 1.60388 26.6332 1.61096 26.2286C1.61096 19.4913 1.60753 12.7533 1.60067 6.01466C1.56504 5.03938 1.84649 4.07947 2.40118 3.28446C2.46497 3.19415 2.54523 3.11645 2.68928 2.95264" fill="white"/>
<path d="M5.83849 35.3015C5.17174 34.5203 4.78692 33.6844 4.78486 32.7394C4.76703 25.6927 4.76703 18.6453 4.78486 11.5972C4.78486 10.6458 5.15322 9.79732 5.83849 9.00977V35.3015Z" fill="white"/>
<path d="M11.0337 75.6057H8.41406V73.957H15.5775V75.6057H12.9558V82.8785H11.0337V75.6057Z" fill="white"/>
<path d="M16.582 73.9568H20.5249C21.0011 73.9442 21.4751 74.027 21.9201 74.2004C22.2743 74.3428 22.5938 74.5621 22.8565 74.8431C23.0954 75.1063 23.2751 75.4195 23.3833 75.7609C23.6043 76.4492 23.6043 77.1916 23.3833 77.8799C23.2743 78.219 23.0945 78.53 22.8565 78.7914C22.5942 79.0735 22.2746 79.2935 21.9201 79.4361C21.4751 79.6095 21.0011 79.6923 20.5249 79.6797H18.5041V82.8783H16.582V73.9568ZM19.9981 78.1571C20.211 78.1578 20.4237 78.1409 20.634 78.1067C20.8243 78.0786 21.0074 78.013 21.1731 77.9135C21.3324 77.8115 21.4612 77.667 21.5456 77.4956C21.6387 77.2787 21.6868 77.0445 21.6868 76.8078C21.6868 76.571 21.6387 76.3368 21.5456 76.12C21.4588 75.9529 21.3294 75.8129 21.1711 75.7146C21.0052 75.6154 20.8222 75.5498 20.6319 75.5214C20.4216 75.4876 20.209 75.4707 19.996 75.471H18.5041V78.1445L19.9981 78.1571Z" fill="white"/>
<path d="M27.137 73.957H29.1084L32.3784 82.8806H30.3822L29.7216 80.8938H26.4517L25.7664 82.8806H23.832L27.137 73.957ZM29.2216 79.43L28.1186 76.1559H28.0939L26.9579 79.43H29.2216Z" fill="white"/>
<path d="M33.1387 73.957H35.0607V77.3803H38.5982V73.957H40.5223V82.8785H38.5982V79.031H35.0607V82.8785H33.1387V73.957Z" fill="white"/>
<path d="M46.1291 83.0797C45.507 83.0908 44.8895 82.9692 44.3162 82.7226C43.8037 82.4982 43.3446 82.1637 42.9703 81.7419C42.5961 81.3136 42.3087 80.8139 42.1245 80.2718C41.9249 79.6872 41.8253 79.072 41.8303 78.453C41.8257 77.8238 41.9251 77.1982 42.1245 76.6028C42.3075 76.0512 42.5948 75.5417 42.9703 75.1033C43.3428 74.6746 43.8019 74.3335 44.3162 74.1036C45.3241 73.679 46.4454 73.6263 47.4873 73.9545C47.9059 74.0891 48.2975 74.2989 48.6439 74.574C48.9866 74.8489 49.2721 75.1909 49.4835 75.58C49.7097 76.005 49.8497 76.4721 49.895 76.9535H48.043C48.0125 76.7336 47.9375 76.5226 47.8228 76.334C47.7082 76.1461 47.5635 75.9793 47.3947 75.8404C47.2203 75.6971 47.0234 75.5849 46.8123 75.5086C46.5943 75.4298 46.3646 75.39 46.1333 75.391C45.7502 75.3788 45.3704 75.467 45.0302 75.6472C44.7343 75.8118 44.4822 76.0475 44.2956 76.334C44.102 76.6332 43.9627 76.9653 43.884 77.3147C43.7973 77.687 43.7538 78.0683 43.7544 78.4509C43.7539 78.8197 43.7975 79.1871 43.884 79.5451C43.9643 79.8861 44.1036 80.2097 44.2956 80.5007C44.4837 80.7841 44.7356 81.0175 45.0302 81.1811C45.3704 81.3613 45.7502 81.4495 46.1333 81.4373C46.388 81.4516 46.6427 81.4099 46.8802 81.315C47.1178 81.2201 47.3325 81.0741 47.51 80.8871C47.8577 80.4819 48.0703 79.9745 48.117 79.438H49.9691C49.9326 79.964 49.8059 80.4794 49.5946 80.9606C49.4002 81.3914 49.1256 81.7795 48.7858 82.1031C48.4457 82.4225 48.0461 82.6689 47.6108 82.8276C47.135 82.9986 46.6335 83.0831 46.1291 83.0776" fill="white"/>
<path d="M51.2832 73.957H58.5578V82.8785H56.6337V75.6057H53.2052V82.8785H51.2832V73.957Z" fill="white"/>
<path d="M64.1664 83.08C63.5443 83.0911 62.9268 82.9695 62.3534 82.723C61.8402 82.4988 61.3804 82.1642 61.0055 81.7422C60.6312 81.3139 60.3438 80.8143 60.1597 80.2721C59.96 79.6876 59.8605 79.0723 59.8654 78.4534C59.8608 77.8241 59.9603 77.1986 60.1597 76.6031C60.3426 76.0516 60.63 75.5421 61.0055 75.1036C61.3785 74.6746 61.8384 74.3335 62.3534 74.1039C63.5128 73.621 64.8116 73.621 65.9711 74.1039C66.4885 74.3324 66.9507 74.6736 67.3252 75.1036C67.7007 75.542 67.9881 76.0515 68.171 76.6031C68.3705 77.1985 68.47 77.8241 68.4652 78.4534C68.4703 79.0723 68.3707 79.6876 68.171 80.2721C67.987 80.8143 67.6995 81.314 67.3252 81.7422C66.9487 82.1653 66.4867 82.4999 65.9711 82.723C65.3995 82.9682 64.7843 83.0898 64.1643 83.08M64.1643 81.4419C64.5467 81.4536 64.9257 81.3654 65.2653 81.1857C65.5597 81.0217 65.8116 80.7885 65.9999 80.5052C66.1915 80.2141 66.3309 79.8905 66.4115 79.5496C66.4972 79.1915 66.54 78.8241 66.5391 78.4555C66.5401 78.0729 66.4973 77.6916 66.4115 77.3193C66.3325 76.97 66.1931 76.6379 65.9999 76.3385C65.8131 76.0523 65.561 75.8166 65.2653 75.6518C64.9213 75.4834 64.5447 75.3959 64.1633 75.3959C63.7818 75.3959 63.4052 75.4834 63.0613 75.6518C62.7654 75.8164 62.5132 76.0521 62.3266 76.3385C62.1331 76.6377 61.9937 76.9699 61.915 77.3193C61.8283 77.6915 61.7848 78.0728 61.7854 78.4555C61.7849 78.8242 61.8285 79.1916 61.915 79.5496C61.9953 79.8907 62.1347 80.2143 62.3266 80.5052C62.5147 80.7887 62.7666 81.022 63.0613 81.1857C63.4015 81.3658 63.7812 81.454 64.1643 81.4419Z" fill="white"/>
<path d="M69.7734 73.9568H73.7163C74.1925 73.9442 74.6665 74.027 75.1115 74.2004C75.4657 74.3428 75.7852 74.5621 76.0479 74.8431C76.2868 75.1063 76.4665 75.4195 76.5747 75.7609C76.7957 76.4492 76.7957 77.1916 76.5747 77.8799C76.4657 78.219 76.2859 78.53 76.0479 78.7914C75.7856 79.0735 75.466 79.2935 75.1115 79.4361C74.6665 79.6095 74.1925 79.6923 73.7163 79.6797H71.6955V82.8783H69.7734V73.9568ZM73.1895 78.1571C73.4024 78.1578 73.6151 78.1409 73.8254 78.1067C74.0157 78.0786 74.1988 78.013 74.3645 77.9135C74.5229 77.8153 74.6523 77.6752 74.7391 77.5082C74.8321 77.2913 74.8801 77.0571 74.8801 76.8204C74.8801 76.5836 74.8321 76.3495 74.7391 76.1326C74.6523 75.9655 74.5229 75.8255 74.3645 75.7272C74.1987 75.628 74.0156 75.5624 73.8254 75.534C73.615 75.5002 73.4024 75.4833 73.1895 75.4836H71.6955V78.1571H73.1895Z" fill="white"/>
<path d="M79.8755 75.6057H77.2559V73.957H84.4193V75.6057H81.7996V82.8785H79.8755V75.6057Z" fill="white"/>
<path d="M85.4238 73.957H87.3459V77.3803H90.8854V73.957H92.8075V82.8785H90.8854V79.031H87.3459V82.8785H85.4238V73.957Z" fill="white"/>
<path d="M98.4164 83.08C97.7943 83.0911 97.1768 82.9695 96.6034 82.723C96.0902 82.4988 95.6304 82.1642 95.2555 81.7422C94.8812 81.3139 94.5938 80.8143 94.4097 80.2721C94.21 79.6876 94.1105 79.0723 94.1154 78.4534C94.1108 77.8241 94.2103 77.1986 94.4097 76.6031C94.5926 76.0516 94.88 75.5421 95.2555 75.1036C95.6285 74.6746 96.0884 74.3335 96.6034 74.1039C97.7628 73.621 99.0616 73.621 100.221 74.1039C100.739 74.3324 101.201 74.6736 101.575 75.1036C101.951 75.542 102.238 76.0515 102.421 76.6031C102.62 77.1985 102.72 77.8241 102.715 78.4534C102.72 79.0723 102.621 79.6876 102.421 80.2721C102.237 80.8143 101.95 81.314 101.575 81.7422C101.199 82.1653 100.737 82.4999 100.221 82.723C99.6495 82.9682 99.0343 83.0898 98.4143 83.08M98.4143 81.4419C98.7967 81.4536 99.1757 81.3654 99.5153 81.1857C99.8097 81.0217 100.062 80.7884 100.25 80.5052C100.441 80.214 100.581 79.8905 100.661 79.5496C100.747 79.1915 100.79 78.8241 100.789 78.4555C100.79 78.0729 100.747 77.6916 100.661 77.3193C100.582 76.97 100.443 76.6379 100.25 76.3385C100.063 76.0523 99.8109 75.8167 99.5153 75.6518C99.1713 75.4834 98.7947 75.3959 98.4133 75.3959C98.0318 75.3959 97.6552 75.4834 97.3113 75.6518C97.0154 75.8164 96.7632 76.0521 96.5766 76.3385C96.3831 76.6377 96.2437 76.9699 96.165 77.3193C96.0783 77.6915 96.0348 78.0728 96.0354 78.4555C96.0349 78.8242 96.0785 79.1916 96.165 79.5496C96.2453 79.8907 96.3847 80.2143 96.5766 80.5052C96.7647 80.7887 97.0166 81.022 97.3113 81.1857C97.6515 81.3658 98.0312 81.454 98.4143 81.4419Z" fill="white"/>
<path d="M107.514 78.7051H103.828V80.2298H107.514V78.7051Z" fill="white"/>
<path d="M109.143 82.979C108.862 82.9811 108.583 82.9306 108.32 82.8299V81.2296C108.365 81.2495 108.412 81.2623 108.46 81.2674C108.511 81.2748 108.562 81.279 108.613 81.28C108.754 81.2845 108.896 81.259 109.027 81.2052C109.159 81.1513 109.279 81.0703 109.378 80.967C109.613 80.6886 109.773 80.3529 109.843 79.9926C109.97 79.4303 110.046 78.8574 110.069 78.2809C110.111 77.5809 110.131 76.7408 110.131 75.7608V73.9609H116.426V82.8845H114.517V75.6054H111.948C111.924 76.6386 111.889 77.6047 111.843 78.5036C111.814 79.2969 111.706 80.0852 111.518 80.8557C111.388 81.4367 111.11 81.9726 110.714 82.4098C110.346 82.7893 109.823 82.979 109.146 82.979" fill="white"/>
<path d="M122.032 83.08C121.41 83.0911 120.792 82.9695 120.219 82.723C119.705 82.4988 119.246 82.1642 118.871 81.7422C118.496 81.3139 118.209 80.8143 118.025 80.2721C117.825 79.6876 117.726 79.0723 117.731 78.4534C117.726 77.8241 117.826 77.1986 118.025 76.6031C118.208 76.0516 118.495 75.5421 118.871 75.1036C119.244 74.6746 119.704 74.3335 120.219 74.1039C121.378 73.621 122.677 73.621 123.836 74.1039C124.354 74.3324 124.816 74.6736 125.19 75.1036C125.566 75.542 125.853 76.0515 126.036 76.6031C126.236 77.1985 126.335 77.8241 126.33 78.4534C126.336 79.0723 126.236 79.6876 126.036 80.2721C125.852 80.8143 125.565 81.314 125.19 81.7422C124.814 82.1653 124.352 82.4999 123.836 82.723C123.265 82.9682 122.65 83.0898 122.03 83.08M122.03 81.4419C122.412 81.4536 122.791 81.3654 123.131 81.1857C123.425 81.0217 123.677 80.7885 123.865 80.5052C124.057 80.2141 124.196 79.8905 124.277 79.5496C124.362 79.1915 124.405 78.8241 124.404 78.4555C124.405 78.0729 124.363 77.6916 124.277 77.3193C124.198 76.97 124.058 76.6379 123.865 76.3385C123.678 76.0523 123.426 75.8166 123.131 75.6518C122.787 75.4834 122.41 75.3959 122.029 75.3959C121.647 75.3959 121.27 75.4834 120.927 75.6518C120.631 75.8164 120.378 76.0521 120.192 76.3385C119.998 76.6377 119.859 76.9699 119.78 77.3193C119.694 77.6916 119.652 78.0729 119.653 78.4555C119.652 78.8242 119.696 79.1916 119.782 79.5496C119.863 79.8907 120.002 80.2143 120.194 80.5052C120.382 80.7887 120.634 81.022 120.929 81.1857C121.269 81.3658 121.649 81.454 122.032 81.4419" fill="white"/>
<path d="M127.695 73.957H133.768V75.6057H129.617V82.8785H127.695V73.957Z" fill="white"/>
<path d="M134.662 73.957H136.572V80.142H136.609L139.938 73.957H142.093V82.8785H140.183V76.6809H140.146L136.817 82.8785H134.662V73.957Z" fill="white"/>
<path d="M147.703 83.0797C147.081 83.0908 146.464 82.9692 145.89 82.7226C145.377 82.4985 144.918 82.164 144.543 81.7419C144.168 81.3136 143.881 80.8139 143.697 80.2718C143.497 79.6872 143.398 79.072 143.403 78.453C143.398 77.8238 143.497 77.1982 143.697 76.6028C143.88 76.0512 144.167 75.5417 144.543 75.1033C144.916 74.6743 145.376 74.3333 145.89 74.1036C146.898 73.679 148.02 73.6263 149.062 73.9545C149.48 74.0891 149.872 74.2989 150.218 74.574C150.561 74.8489 150.846 75.1909 151.058 75.58C151.284 76.005 151.424 76.4721 151.469 76.9535H149.617C149.587 76.7336 149.512 76.5226 149.397 76.334C149.283 76.1461 149.138 75.9793 148.969 75.8404C148.795 75.6971 148.598 75.5849 148.387 75.5086C148.169 75.4298 147.939 75.39 147.708 75.391C147.325 75.3788 146.945 75.467 146.605 75.6472C146.309 75.8118 146.057 76.0475 145.87 76.334C145.676 76.6332 145.537 76.9654 145.458 77.3147C145.372 77.6871 145.33 78.0684 145.331 78.4509C145.33 78.8197 145.374 79.1871 145.46 79.5451C145.541 79.8861 145.68 80.2097 145.872 80.5007C146.06 80.7841 146.312 81.0175 146.607 81.1811C146.947 81.3613 147.327 81.4495 147.71 81.4373C147.964 81.4516 148.219 81.4099 148.457 81.315C148.694 81.2201 148.909 81.0741 149.086 80.8871C149.434 80.4819 149.647 79.9745 149.693 79.438H151.546C151.507 79.963 151.378 80.4769 151.165 80.9564C150.97 81.3872 150.696 81.7753 150.356 82.0989C150.016 82.4183 149.616 82.6647 149.181 82.8234C148.705 82.9944 148.204 83.0789 147.699 83.0734" fill="white"/>
<path d="M154.794 75.6057H152.174V73.957H159.337V75.6057H156.716V82.8785H154.794V75.6057Z" fill="white"/>
<path d="M160.342 73.957H162.252V80.142H162.289L165.618 73.957H167.773V82.8785H165.863V76.6809H165.826L162.496 82.8785H160.342V73.957Z" fill="white"/>
<path d="M174.166 79.493C173.953 79.5434 173.696 79.5973 173.394 79.6547C173.084 79.7141 172.768 79.7437 172.452 79.7429C171.978 79.7498 171.505 79.6954 171.044 79.5812C170.665 79.4885 170.313 79.3065 170.015 79.0499C169.727 78.7898 169.51 78.4586 169.384 78.088C169.232 77.6189 169.163 77.1263 169.178 76.6326V73.957H171.088V76.6557C171.088 77.1976 171.236 77.577 171.534 77.794C171.876 78.0239 172.281 78.1378 172.691 78.1195C172.982 78.1208 173.272 78.0955 173.559 78.0439C173.829 77.9935 174.032 77.9536 174.176 77.9179V73.957H176.098V82.8806H174.176L174.166 79.493Z" fill="white"/>
<path d="M177.789 73.957H184.329V75.6057H179.711V77.5189H183.948V79.0436H179.711V81.2299H184.426V82.8785H177.789V73.957Z" fill="white"/>
<path d="M189.643 83.0797C189.021 83.0908 188.403 82.9692 187.83 82.7226C187.317 82.4985 186.857 82.164 186.482 81.7419C186.108 81.3136 185.82 80.8139 185.636 80.2718C185.437 79.6872 185.337 79.072 185.342 78.453C185.337 77.8238 185.437 77.1982 185.636 76.6028C185.819 76.0512 186.107 75.5417 186.482 75.1033C186.855 74.6743 187.315 74.3333 187.83 74.1036C188.838 73.679 189.959 73.6263 191.001 73.9545C191.42 74.0891 191.811 74.2989 192.158 74.574C192.5 74.8489 192.786 75.1909 192.997 75.58C193.223 76.005 193.363 76.4721 193.409 76.9535H191.557C191.526 76.7336 191.451 76.5226 191.337 76.334C191.222 76.1461 191.077 75.9793 190.908 75.8404C190.734 75.6971 190.537 75.5849 190.326 75.5086C190.108 75.4298 189.878 75.39 189.647 75.391C189.264 75.3788 188.884 75.467 188.544 75.6472C188.248 75.8118 187.996 76.0475 187.809 76.334C187.616 76.6332 187.477 76.9654 187.398 77.3147C187.312 77.6871 187.269 78.0684 187.27 78.4509C187.27 78.8197 187.313 79.1871 187.4 79.5451C187.48 79.8861 187.619 80.2097 187.811 80.5007C188 80.7841 188.251 81.0175 188.546 81.1811C188.886 81.3613 189.266 81.4495 189.649 81.4373C189.904 81.4516 190.159 81.4099 190.396 81.315C190.634 81.2201 190.848 81.0741 191.026 80.8871C191.374 80.4819 191.586 79.9745 191.633 79.438H193.485C193.446 79.963 193.317 80.4769 193.104 80.9564C192.91 81.3872 192.635 81.7753 192.295 82.0989C191.955 82.4183 191.556 82.6647 191.12 82.8234C190.645 82.9944 190.143 83.0789 189.639 83.0734" fill="white"/>
<path d="M194.797 73.957H196.719V77.5315L200.135 73.957H202.537L198.764 77.6932L202.866 82.8785H200.454L197.369 78.9176L196.719 79.6295V82.8785H194.797V73.957Z" fill="white"/>
<path d="M203.639 73.957H205.548V80.142H205.585L208.917 73.957H211.072V82.8785H209.162V76.6809H209.125L205.793 82.8785H203.639V73.957Z" fill="white"/>
<path d="M212.762 73.957H214.672V80.142H214.709L218.04 73.9549H220.193V82.8785H218.283V76.6809H218.246L214.914 82.8785H212.76L212.762 73.957ZM216.594 73.1947C215.019 73.1947 214.231 72.5534 214.231 71.2709H215.651C215.652 71.5005 215.729 71.7229 215.871 71.901C215.967 71.9938 216.081 72.0642 216.205 72.1074C216.33 72.1505 216.463 72.1654 216.594 72.1509C216.726 72.1643 216.859 72.1495 216.986 72.1076C217.112 72.0656 217.229 71.9975 217.328 71.9073C217.403 71.8196 217.46 71.7176 217.495 71.6072C217.53 71.4968 217.544 71.3804 217.534 71.2646H218.954C218.954 72.5485 218.166 73.1898 216.592 73.1884" fill="white"/>
<path d="M231.79 82.8785H225.289V73.957H227.211V81.2299H230.64V73.957H232.562V81.2299H233.529V84.9156H231.79V82.8785Z" fill="white"/>
<path d="M234.496 73.957H241.036V75.6057H236.42V77.5189H240.655V79.0436H236.42V81.2299H241.133V82.8785H234.496V73.957Z" fill="white"/>
<path d="M242.432 73.957H244.354V77.3803H247.893V73.957H249.815V82.8785H247.893V79.031H244.354V82.8785H242.432V73.957Z" fill="white"/>
<path d="M253.44 75.6057H250.818V73.957H257.982V75.6057H255.362V82.8785H253.44V75.6057Z" fill="white"/>
<path d="M258.986 73.9568H262.929C263.405 73.9442 263.879 74.027 264.324 74.2004C264.679 74.3428 264.998 74.5621 265.261 74.8431C265.5 75.1063 265.679 75.4195 265.788 75.7609C266.008 76.4492 266.008 77.1915 265.788 77.8799C265.679 78.219 265.499 78.53 265.261 78.7914C264.999 79.0735 264.679 79.2935 264.324 79.4361C263.879 79.6095 263.405 79.6923 262.929 79.6797H260.908V82.8783H258.986V73.9568ZM262.402 78.1571C262.615 78.1578 262.828 78.1409 263.038 78.1067C263.229 78.0786 263.412 78.013 263.577 77.9135C263.736 77.8153 263.865 77.6752 263.952 77.5082C264.045 77.2913 264.093 77.0571 264.093 76.8204C264.093 76.5836 264.045 76.3494 263.952 76.1326C263.865 75.9655 263.736 75.8255 263.577 75.7272C263.412 75.628 263.228 75.5624 263.038 75.534C262.828 75.5002 262.615 75.4833 262.402 75.4836H260.908V78.1571H262.402Z" fill="white"/>
<path d="M53.6002 40.3711C57.2371 40.3711 60.8727 40.3711 64.5069 40.3711C65.4163 40.3567 66.3051 40.6475 67.0368 41.1988C67.7685 41.7501 68.3025 42.5314 68.5567 43.4226C68.6683 43.8407 68.723 44.2725 68.7193 44.7058C68.7193 51.5334 68.7029 58.3568 68.7399 65.1907C68.7457 65.764 68.6391 66.3327 68.4262 66.8633C68.2133 67.3939 67.8986 67.8757 67.5005 68.2802C67.1023 68.6848 66.6289 69.0039 66.1081 69.2188C65.5872 69.4338 65.0295 69.5401 64.4678 69.5317C57.1966 69.5457 49.9255 69.5457 42.6544 69.5317C39.8474 69.5317 38.3843 67.1711 38.3966 65.176C38.4378 58.3617 38.4378 51.5474 38.3966 44.7331C38.3919 44.157 38.5 43.5857 38.7146 43.0528C38.9291 42.5199 39.2458 42.0361 39.646 41.6298C40.0463 41.2235 40.522 40.9028 41.0453 40.6867C41.5686 40.4706 42.129 40.3633 42.6935 40.3711H53.6002Z" fill="white"/>
<path d="M93.8518 54.8897C93.8518 59.0172 93.2749 61.6452 92.1211 62.7737C90.8727 63.9834 87.958 64.5882 83.3772 64.5882C80.3906 64.5882 78.5735 64.5476 77.9259 64.4664C76.2508 64.2732 75.0422 63.7327 74.3 62.8451C73.4151 61.7978 72.9727 60.0967 72.9727 57.7417H75.7179C75.7179 59.8097 76.1438 61.06 76.9958 61.4926C77.7215 61.8454 79.8439 62.0218 83.3628 62.0218C86.8338 62.0218 88.9561 61.7418 89.7299 61.1818C90.6285 60.5419 91.0778 58.8226 91.0778 56.0238H78.4486V53.4637H91.0798C91.0798 51.4882 90.8116 50.0832 90.2752 49.2487C89.7854 48.4941 88.941 48.0285 87.742 47.8521C87.174 47.7555 85.7143 47.7072 83.3628 47.7072C79.8603 47.7072 77.7462 47.8913 77.0205 48.2595C76.1521 48.6796 75.7179 49.9222 75.7179 51.9873H72.9727C72.9727 49.6491 73.4151 47.9564 74.3 46.9091C75.0422 46.0229 76.2508 45.4747 77.9259 45.2647C78.5899 45.1849 80.407 45.145 83.3772 45.145C87.9745 45.145 90.8891 45.7415 92.1211 46.9343C93.2735 48.0628 93.8504 50.7153 93.8518 54.8918" fill="white"/>
<path d="M109.783 61.0701H107.952V51.359H99.1257V53.4697C99.1257 58.5367 98.4082 61.0701 96.9732 61.0701H95.1973V59.5475H95.9175C96.8353 59.5475 97.2942 57.8982 97.2942 54.5996V49.8364H109.781L109.783 61.0701Z" fill="white"/>
<path d="M109.783 61.0701H107.952V51.359H99.1257V53.4697C99.1257 58.5367 98.4082 61.0701 96.9732 61.0701H95.1973V59.5475H95.9175C96.8353 59.5475 97.2942 57.8982 97.2942 54.5996V49.8364H109.781L109.783 61.0701Z" stroke="white" stroke-miterlimit="10"/>
<path d="M123.803 61.0701H112.098V49.8364H123.803V51.359H113.929V54.6206H123.459V56.1432H113.929V59.5475H123.803V61.0701Z" fill="white"/>
<path d="M123.803 61.0701H112.098V49.8364H123.803V51.359H113.929V54.6206H123.459V56.1432H113.929V59.5475H123.803V61.0701Z" stroke="white" stroke-miterlimit="10"/>
<path d="M140.792 61.0701H137.779L129.69 55.8996H127.872V61.0701H126.043V49.8364H127.872V54.3749H129.69L137.09 49.8364H140.246L131.653 55.1225L140.792 61.0701Z" fill="white"/>
<path d="M140.792 61.0701H137.779L129.69 55.8996H127.872V61.0701H126.043V49.8364H127.872V54.3749H129.69L137.09 49.8364H140.246L131.653 55.1225L140.792 61.0701Z" stroke="white" stroke-miterlimit="10"/>
<path d="M154.475 51.359H148.997V61.0701H147.167V51.359H141.689V49.8364H154.475V51.359Z" fill="white"/>
<path d="M154.475 51.359H148.997V61.0701H147.167V51.359H141.689V49.8364H154.475V51.359Z" stroke="white" stroke-miterlimit="10"/>
<path d="M169.281 53.4277C169.281 54.5296 168.994 55.3871 168.421 56.0004C167.816 56.6514 166.918 56.9769 165.729 56.9769H157.654V61.0722H155.822V49.8364H165.807C168.123 49.8364 169.281 51.0335 169.281 53.4277ZM167.449 53.4277C167.449 52.0528 166.87 51.3653 165.712 51.3653H157.654V55.4438H165.729C166.876 55.4438 167.45 54.7662 167.451 53.4109" fill="white"/>
<path d="M169.281 53.4277C169.281 54.5296 168.994 55.3871 168.421 56.0004C167.816 56.6514 166.918 56.9769 165.729 56.9769H157.654V61.0722H155.822V49.8364H165.807C168.123 49.8364 169.281 51.0335 169.281 53.4277ZM167.449 53.4277C167.449 52.0528 166.87 51.3653 165.712 51.3653H157.654V55.4438H165.729C166.876 55.4438 167.449 54.769 167.449 53.4193V53.4277Z" stroke="white" stroke-miterlimit="10"/>
<path d="M186.413 55.4673C186.413 57.2874 186.319 58.4775 186.131 59.0376C185.787 60.0918 184.744 60.7625 183.001 61.0495C182.315 61.1643 180.938 61.2217 178.869 61.2217C176.835 61.2217 175.457 61.1643 174.737 61.0495C172.984 60.7527 171.935 60.0869 171.592 59.0523C171.405 58.4922 171.311 57.2951 171.311 55.461C171.311 53.6269 171.405 52.4298 171.592 51.8698C171.937 50.8169 172.98 50.1462 174.722 49.8578C175.443 49.7332 176.825 49.6709 178.869 49.6709C180.913 49.6709 182.291 49.7283 183.001 49.8431C184.744 50.1399 185.787 50.8106 186.131 51.8551C186.319 52.4151 186.413 53.6171 186.413 55.461M184.582 55.461C184.582 53.3903 184.342 52.1736 183.864 51.811C183.342 51.4007 181.675 51.1956 178.863 51.1956C176.852 51.1956 175.643 51.2292 175.237 51.2964C174.393 51.4112 173.834 51.75 173.558 52.3129C173.282 52.8757 173.145 53.9258 173.146 55.4631C173.146 56.971 173.29 58.0064 173.576 58.5692C173.863 59.1321 174.428 59.4758 175.272 59.6004C175.684 59.6676 176.882 59.7012 178.867 59.7012C180.852 59.7012 182.051 59.6725 182.462 59.6151C183.306 59.4905 183.871 59.1496 184.158 58.5923C184.445 58.0351 184.588 56.992 184.588 55.4631" fill="white"/>
<path d="M186.413 55.4673C186.413 57.2874 186.319 58.4775 186.131 59.0376C185.787 60.0918 184.744 60.7625 183.001 61.0495C182.315 61.1643 180.938 61.2217 178.869 61.2217C176.835 61.2217 175.457 61.1643 174.737 61.0495C172.984 60.7527 171.935 60.0869 171.592 59.0523C171.405 58.4922 171.311 57.2951 171.311 55.461C171.311 53.6269 171.405 52.4298 171.592 51.8698C171.937 50.8169 172.98 50.1462 174.722 49.8578C175.443 49.7332 176.825 49.6709 178.869 49.6709C180.913 49.6709 182.291 49.7283 183.001 49.8431C184.744 50.1399 185.787 50.8106 186.131 51.8551C186.319 52.4277 186.413 53.6318 186.413 55.4673ZM184.582 55.4673C184.582 53.3966 184.342 52.1799 183.864 51.8173C183.342 51.407 181.675 51.2019 178.863 51.2019C176.852 51.2019 175.643 51.2355 175.237 51.3027C174.393 51.4175 173.834 51.7563 173.558 52.3192C173.282 52.882 173.145 53.9321 173.146 55.4694C173.146 56.9773 173.29 58.0127 173.576 58.5755C173.863 59.1384 174.428 59.4821 175.272 59.6067C175.684 59.6739 176.882 59.7075 178.867 59.7075C180.852 59.7075 182.051 59.6788 182.462 59.6214C183.306 59.4968 183.871 59.1559 184.158 58.5986C184.445 58.0414 184.589 56.9976 184.59 55.4673H184.582Z" stroke="white" stroke-miterlimit="10"/>
<path d="M204.708 49.8364L198.934 59.0771C198.11 60.4086 196.744 61.0743 194.834 61.0743H190.844V59.5517H194.913C195.935 59.5517 196.621 59.2458 196.97 58.634L188.074 49.8364H190.572L197.981 57.3109L202.636 49.8364H204.708Z" fill="white"/>
<path d="M204.708 49.8364L198.934 59.0771C198.11 60.4086 196.744 61.0743 194.834 61.0743H190.844V59.5517H194.913C195.935 59.5517 196.621 59.2458 196.97 58.634L188.074 49.8364H190.572L197.981 57.3109L202.636 49.8364H204.708Z" stroke="white" stroke-miterlimit="10"/>
<path d="M216.837 51.359H207.447V61.0701H205.615V49.8364H216.837V51.359Z" fill="white"/>
<path d="M216.837 51.359H207.447V61.0701H205.615V49.8364H216.837V51.359Z" stroke="white" stroke-miterlimit="10"/>
<path d="M232.486 61.0701H230.655V51.359H221.839V53.4697C221.839 58.5367 221.121 61.0701 219.686 61.0701H217.91V59.5475H218.63C219.548 59.5475 220.007 57.8982 220.007 54.5996V49.8364H232.494L232.486 61.0701Z" fill="white"/>
<path d="M232.486 61.0701H230.655V51.359H221.839V53.4697C221.839 58.5367 221.121 61.0701 219.686 61.0701H217.91V59.5475H218.63C219.548 59.5475 220.007 57.8982 220.007 54.5996V49.8364H232.494L232.486 61.0701Z" stroke="white" stroke-miterlimit="10"/>
<path d="M249.949 61.0701H248.119V51.3149L237.713 61.0701H234.957V49.8364H236.789V59.6966L247.288 49.8364H249.949V61.0701Z" fill="white"/>
<path d="M249.949 61.0701H248.119V51.3149L237.713 61.0701H234.957V49.8364H236.789V59.6966L247.288 49.8364H249.949V61.0701Z" stroke="white" stroke-miterlimit="10"/>
</g>
<defs>
<clipPath id="clip0_876_6296">
<rect width="266" height="84.9154" fill="white"/>
</clipPath>
</defs>
</svg>
