<svg width="25" height="26" viewBox="0 0 25 26" fill="none" xmlns="http://www.w3.org/2000/svg">
<path d="M11.5 18.459L9.26316 14.9592H6V17.9592" stroke="#2B298F" stroke-width="1.8"/>
<path fill-rule="evenodd" clip-rule="evenodd" d="M16.4539 19.1621H4.75391H2.05391V21.5621H2.51846C2.28741 21.9408 2.1543 22.3859 2.1543 22.8621C2.1543 23.0333 2.17151 23.2005 2.20431 23.3621H2.05391H0.253906V21.5621V19.1621V17.3621H2.05391H4.75391H16.4539H18.2539V19.1621V21.5621V23.3621H16.4539H15.1043C15.1371 23.2005 15.1543 23.0333 15.1543 22.8621C15.1543 22.3859 15.0212 21.9408 14.7901 21.5621H16.4539V19.1621ZM10.5185 21.5621H6.79014C7.02118 21.9408 7.1543 22.3859 7.1543 22.8621C7.1543 23.0333 7.13708 23.2005 7.10429 23.3621H10.2043C10.1715 23.2005 10.1543 23.0333 10.1543 22.8621C10.1543 22.3859 10.2874 21.9408 10.5185 21.5621Z" fill="#2B298F"/>
<circle cx="4.6543" cy="22.8621" r="1.6" stroke="#2B298F" stroke-width="1.8"/>
<circle cx="12.6543" cy="22.8621" r="1.6" stroke="#2B298F" stroke-width="1.8"/>
<path d="M24.0004 1.7819L18.0004 1.7819L1.50043 13.4589L4.55994 18.4589" stroke="#2B298F" stroke-width="1.8"/>
<path d="M21.1543 1.95898V4.95898" stroke="#2B298F" stroke-width="1.8"/>
<path d="M18.1543 4.95898H24.1543V10.959H18.1543V4.95898Z" stroke="#2B298F" stroke-width="1.8"/>
<path d="M14.8672 18.0449L9.13365 8.87291" stroke="#2B298F" stroke-width="1.8"/>
</svg>
