<svg width="266" height="85" viewBox="0 0 266 85" fill="none" xmlns="http://www.w3.org/2000/svg">
<g clip-path="url(#clip0_1195_26236)">
<path d="M21.848 40.4029C25.4849 40.4029 29.1205 40.4029 32.7547 40.4029C33.6641 40.3884 34.553 40.6792 35.2847 41.2305C36.0164 41.7818 36.5504 42.5632 36.8046 43.4544C36.9162 43.8725 36.9709 44.3043 36.9672 44.7376C36.9672 51.5652 36.9507 58.3885 36.9877 65.2224C36.9938 65.7956 36.8875 66.3642 36.675 66.8947C36.4625 67.4253 36.1482 67.9071 35.7505 68.3118C35.3528 68.7165 34.8797 69.0359 34.3592 69.2512C33.8387 69.4666 33.2813 69.5734 32.7197 69.5655C25.4486 69.5795 18.1774 69.5795 10.9063 69.5655C8.09938 69.5655 6.63624 67.205 6.64859 65.2098C6.68974 58.3955 6.68974 51.5813 6.64859 44.767C6.64387 44.1909 6.75197 43.6196 6.96652 43.0867C7.18107 42.5538 7.49776 42.0699 7.898 41.6636C8.29824 41.2573 8.77398 40.9367 9.29728 40.7205C9.82059 40.5044 10.3809 40.3971 10.9454 40.405H21.8521" fill="white"/>
<path d="M2.65536 59.5583C2.01972 58.8462 1.66109 57.9215 1.64701 56.9584C1.63329 49.9859 1.63329 43.0127 1.64701 36.0388C1.64701 35.0895 1.9989 34.2431 2.65742 33.4346L2.65536 59.5583Z" fill="white"/>
<path d="M5.82366 39.4829V65.5647C5.32005 65.0043 4.99249 64.3028 4.88321 63.5506C4.82677 63.1494 4.80131 62.7442 4.80707 62.3388C4.80707 55.7276 4.80707 49.1163 4.80707 42.505C4.77134 41.4036 5.13807 40.328 5.83601 39.4871" fill="white"/>
<path d="M1.05097 30.4185V56.5212C0.542259 55.9299 0.213326 55.2001 0.104347 54.4211C0.0727247 54.1472 0.0596605 53.8714 0.0652475 53.5957C0.0652475 46.857 0.0652475 40.1177 0.0652475 33.3776C0.0346377 32.5047 0.260376 31.6425 0.713476 30.9015C0.801964 30.7629 0.904857 30.6327 1.05714 30.4227" fill="white"/>
<path d="M4.19884 62.5384C3.62058 61.7844 3.29132 61.0326 3.25634 60.1736C3.22547 59.4071 3.24399 58.6363 3.24193 57.8635C3.24193 51.703 3.24193 45.5426 3.24193 39.3821C3.21915 38.3325 3.56022 37.3083 4.20502 36.4902L4.19884 62.5384Z" fill="white"/>
<path d="M21.845 9.95474C25.482 9.95474 29.1175 9.95474 32.7517 9.95474C33.7119 9.93043 34.6508 10.245 35.41 10.8453C36.1692 11.4457 36.7022 12.295 36.9189 13.2499C37.0039 13.6152 37.0454 13.9896 37.0424 14.3651C37.0506 21.1499 37.0506 27.9341 37.0424 34.7176C37.0424 37.2882 35.2335 39.1888 32.7209 39.1951C25.4497 39.2119 18.1786 39.2119 10.9075 39.1951C8.40303 39.1951 6.58594 37.305 6.58594 34.7533C6.58594 27.9558 6.58594 21.1576 6.58594 14.3588C6.58594 12.2397 7.84741 10.5932 9.84148 10.0807C10.2146 9.99333 10.5967 9.95242 10.9795 9.95894C14.6013 9.95054 18.2239 9.95054 21.8471 9.95894" fill="white"/>
<path d="M266 67.0474H70.293V68.6813H266V67.0474Z" fill="white"/>
<path d="M1.10717 26.2708C0.594117 25.73 0.244731 25.0496 0.100874 24.3113C0.0324947 23.9714 -0.00129637 23.6251 3.80234e-05 23.2781C3.80234e-05 16.44 3.80234e-05 9.59699 3.80234e-05 2.7491C0.00335972 1.88863 0.265555 1.04996 0.75116 0.346525C0.813913 0.25175 0.882654 0.161252 0.956947 0.0756054C1.00315 0.0430707 1.05376 0.0175999 1.10717 0V26.2708Z" fill="white"/>
<path d="M4.27457 32.296C3.72834 31.7205 3.36907 30.9872 3.24563 30.1959C3.191 29.8234 3.16691 29.4468 3.17361 29.0702C3.17361 22.3875 3.17361 15.7049 3.17361 9.02218C3.14781 8.08966 3.41063 7.17256 3.92473 6.40119C4.01116 6.27308 4.11405 6.15547 4.27663 5.94336L4.27457 32.296Z" fill="white"/>
<path d="M2.68722 2.95264V29.2696C2.19842 28.7652 1.86197 28.1281 1.71796 27.4341C1.63976 27.0374 1.60388 26.6332 1.61096 26.2286C1.61096 19.4913 1.60753 12.7533 1.60067 6.01466C1.56504 5.03938 1.84649 4.07947 2.40118 3.28446C2.46497 3.19415 2.54523 3.11645 2.68928 2.95264" fill="white"/>
<path d="M5.83654 35.3015C5.16979 34.5203 4.78497 33.6844 4.78291 32.7394C4.76507 25.6927 4.76507 18.6453 4.78291 11.5972C4.78291 10.6458 5.15127 9.79732 5.83654 9.00977V35.3015Z" fill="white"/>
<path d="M11.0337 75.6057H8.41406V73.957H15.5775V75.6057H12.9558V82.8785H11.0337V75.6057Z" fill="white"/>
<path d="M16.582 73.9568H20.5249C21.0011 73.9442 21.4751 74.027 21.9201 74.2004C22.2743 74.3428 22.5938 74.5621 22.8565 74.8431C23.0954 75.1063 23.2751 75.4195 23.3833 75.7609C23.6043 76.4492 23.6043 77.1916 23.3833 77.8799C23.2743 78.219 23.0945 78.53 22.8565 78.7914C22.5942 79.0735 22.2746 79.2935 21.9201 79.4361C21.4751 79.6095 21.0011 79.6923 20.5249 79.6797H18.5041V82.8783H16.582V73.9568ZM19.9981 78.1571C20.211 78.1578 20.4237 78.1409 20.634 78.1067C20.8243 78.0786 21.0074 78.013 21.1731 77.9135C21.3324 77.8115 21.4612 77.667 21.5456 77.4956C21.6387 77.2787 21.6868 77.0445 21.6868 76.8078C21.6868 76.571 21.6387 76.3368 21.5456 76.12C21.4588 75.9529 21.3294 75.8129 21.1711 75.7146C21.0052 75.6154 20.8222 75.5498 20.6319 75.5214C20.4216 75.4876 20.209 75.4707 19.996 75.471H18.5041V78.1445L19.9981 78.1571Z" fill="white"/>
<path d="M27.137 73.957H29.1084L32.3784 82.8806H30.3822L29.7216 80.8938H26.4517L25.7664 82.8806H23.832L27.137 73.957ZM29.2216 79.43L28.1186 76.1559H28.0939L26.9579 79.43H29.2216Z" fill="white"/>
<path d="M33.1367 73.957H35.0588V77.3803H38.5962V73.957H40.5204V82.8785H38.5962V79.031H35.0588V82.8785H33.1367V73.957Z" fill="white"/>
<path d="M46.1311 83.0797C45.509 83.0908 44.8915 82.9692 44.3181 82.7226C43.8056 82.4982 43.3466 82.1637 42.9723 81.7419C42.5981 81.3136 42.3106 80.8139 42.1265 80.2718C41.9268 79.6872 41.8273 79.072 41.8322 78.453C41.8276 77.8238 41.9271 77.1982 42.1265 76.6028C42.3094 76.0512 42.5968 75.5417 42.9723 75.1033C43.3447 74.6746 43.8039 74.3335 44.3181 74.1036C45.326 73.679 46.4474 73.6263 47.4893 73.9545C47.9078 74.0891 48.2995 74.2989 48.6458 74.574C48.9886 74.8489 49.274 75.1909 49.4854 75.58C49.7117 76.005 49.8517 76.4721 49.897 76.9535H48.0449C48.0145 76.7336 47.9395 76.5226 47.8247 76.334C47.7101 76.1461 47.5654 75.9793 47.3967 75.8404C47.2223 75.6971 47.0254 75.5849 46.8143 75.5086C46.5963 75.4298 46.3665 75.39 46.1352 75.391C45.7521 75.3788 45.3724 75.467 45.0322 75.6472C44.7363 75.8118 44.4841 76.0475 44.2975 76.334C44.104 76.6332 43.9646 76.9653 43.886 77.3147C43.7992 77.687 43.7557 78.0683 43.7563 78.4509C43.7559 78.8197 43.7994 79.1871 43.886 79.5451C43.9662 79.8861 44.1056 80.2097 44.2975 80.5007C44.4856 80.7841 44.7375 81.0175 45.0322 81.1811C45.3724 81.3613 45.7521 81.4495 46.1352 81.4373C46.3899 81.4516 46.6447 81.4099 46.8822 81.315C47.1197 81.2201 47.3345 81.0741 47.5119 80.8871C47.8596 80.4819 48.0722 79.9745 48.119 79.438H49.9711C49.9346 79.964 49.8078 80.4794 49.5965 80.9606C49.4022 81.3914 49.1275 81.7795 48.7878 82.1031C48.4477 82.4225 48.0481 82.6689 47.6128 82.8276C47.1369 82.9986 46.6355 83.0831 46.1311 83.0776" fill="white"/>
<path d="M51.2852 73.957H58.5597V82.8785H56.6356V75.6057H53.2072V82.8785H51.2852V73.957Z" fill="white"/>
<path d="M64.1683 83.08C63.5462 83.091 62.9287 82.9694 62.3553 82.723C61.8421 82.4988 61.3824 82.1642 61.0074 81.7422C60.6332 81.3139 60.3457 80.8143 60.1616 80.2721C59.962 79.6876 59.8624 79.0723 59.8674 78.4533C59.8628 77.8241 59.9622 77.1986 60.1616 76.6031C60.3446 76.0516 60.632 75.5421 61.0074 75.1036C61.3804 74.6746 61.8403 74.3335 62.3553 74.1039C63.5148 73.621 64.8136 73.621 65.9731 74.1039C66.4905 74.3324 66.9526 74.6736 67.3271 75.1036C67.7027 75.542 67.9901 76.0515 68.1729 76.6031C68.3724 77.1985 68.4719 77.8241 68.4672 78.4533C68.4722 79.0723 68.3727 79.6876 68.1729 80.2721C67.9889 80.8143 67.7015 81.314 67.3271 81.7422C66.9506 82.1653 66.4886 82.4999 65.9731 82.723C65.4015 82.9682 64.7862 83.0898 64.1662 83.08M64.1662 81.4419C64.5486 81.4536 64.9276 81.3654 65.2672 81.1856C65.5617 81.0217 65.8135 80.7884 66.0019 80.5052C66.1935 80.2141 66.3328 79.8905 66.4134 79.5496C66.4991 79.1915 66.542 78.8241 66.541 78.4555C66.5421 78.0729 66.4993 77.6916 66.4134 77.3193C66.3345 76.97 66.1951 76.6379 66.0019 76.3385C65.815 76.0523 65.5629 75.8166 65.2672 75.6517C64.9233 75.4834 64.5467 75.3959 64.1652 75.3959C63.7838 75.3959 63.4072 75.4834 63.0632 75.6517C62.7673 75.8164 62.5152 76.0521 62.3286 76.3385C62.135 76.6377 61.9956 76.9699 61.917 77.3193C61.8303 77.6915 61.7868 78.0728 61.7874 78.4555C61.7869 78.8242 61.8304 79.1916 61.917 79.5496C61.9972 79.8907 62.1366 80.2143 62.3286 80.5052C62.5167 80.7887 62.7686 81.022 63.0632 81.1856C63.4034 81.3658 63.7832 81.454 64.1662 81.4419Z" fill="white"/>
<path d="M69.7734 73.9568H73.7163C74.1925 73.9442 74.6665 74.027 75.1115 74.2004C75.4657 74.3428 75.7852 74.5621 76.0479 74.8431C76.2868 75.1063 76.4665 75.4195 76.5747 75.7609C76.7957 76.4492 76.7957 77.1916 76.5747 77.8799C76.4657 78.219 76.2859 78.53 76.0479 78.7914C75.7856 79.0735 75.466 79.2935 75.1115 79.4361C74.6665 79.6095 74.1925 79.6923 73.7163 79.6797H71.6955V82.8783H69.7734V73.9568ZM73.1895 78.1571C73.4024 78.1578 73.6151 78.1409 73.8254 78.1067C74.0157 78.0786 74.1988 78.013 74.3645 77.9135C74.5229 77.8153 74.6523 77.6752 74.7391 77.5082C74.8321 77.2913 74.8801 77.0571 74.8801 76.8204C74.8801 76.5836 74.8321 76.3495 74.7391 76.1326C74.6523 75.9655 74.5229 75.8255 74.3645 75.7272C74.1987 75.628 74.0156 75.5624 73.8254 75.534C73.615 75.5002 73.4024 75.4833 73.1895 75.4836H71.6955V78.1571H73.1895Z" fill="white"/>
<path d="M79.8775 75.6057H77.2578V73.957H84.4212V75.6057H81.8016V82.8785H79.8775V75.6057Z" fill="white"/>
<path d="M85.4258 73.957H87.3478V77.3803H90.8874V73.957H92.8094V82.8785H90.8874V79.031H87.3478V82.8785H85.4258V73.957Z" fill="white"/>
<path d="M98.4144 83.08C97.7923 83.091 97.1748 82.9694 96.6014 82.723C96.0882 82.4988 95.6285 82.1642 95.2535 81.7422C94.8793 81.3139 94.5918 80.8143 94.4077 80.2721C94.2081 79.6876 94.1085 79.0723 94.1135 78.4533C94.1089 77.8241 94.2083 77.1986 94.4077 76.6031C94.5907 76.0516 94.878 75.5421 95.2535 75.1036C95.6265 74.6746 96.0864 74.3335 96.6014 74.1039C97.7609 73.621 99.0597 73.621 100.219 74.1039C100.737 74.3324 101.199 74.6736 101.573 75.1036C101.949 75.542 102.236 76.0515 102.419 76.6031C102.619 77.1985 102.718 77.8241 102.713 78.4533C102.718 79.0723 102.619 79.6876 102.419 80.2721C102.235 80.8143 101.948 81.314 101.573 81.7422C101.197 82.1653 100.735 82.4999 100.219 82.723C99.6476 82.9682 99.0323 83.0898 98.4123 83.08M98.4123 81.4419C98.7947 81.4536 99.1737 81.3654 99.5133 81.1856C99.8077 81.0217 100.06 80.7884 100.248 80.5052C100.439 80.214 100.579 79.8905 100.66 79.5496C100.745 79.1915 100.788 78.8241 100.787 78.4555C100.788 78.0729 100.745 77.6916 100.66 77.3193C100.58 76.97 100.441 76.6379 100.248 76.3385C100.061 76.0523 99.809 75.8167 99.5133 75.6517C99.1694 75.4834 98.7928 75.3959 98.4113 75.3959C98.0299 75.3959 97.6533 75.4834 97.3093 75.6517C97.0134 75.8164 96.7613 76.0521 96.5747 76.3385C96.3811 76.6377 96.2417 76.9699 96.1631 77.3193C96.0764 77.6915 96.0329 78.0728 96.0335 78.4555C96.033 78.8242 96.0765 79.1916 96.1631 79.5496C96.2433 79.8907 96.3827 80.2143 96.5747 80.5052C96.7628 80.7887 97.0147 81.022 97.3093 81.1856C97.6495 81.3658 98.0293 81.454 98.4123 81.4419Z" fill="white"/>
<path d="M107.514 78.7051H103.828V80.2298H107.514V78.7051Z" fill="white"/>
<path d="M109.143 82.979C108.862 82.9811 108.583 82.9306 108.32 82.8299V81.2296C108.365 81.2495 108.412 81.2623 108.46 81.2674C108.511 81.2748 108.562 81.279 108.613 81.28C108.754 81.2845 108.896 81.259 109.027 81.2052C109.159 81.1513 109.279 81.0703 109.378 80.967C109.613 80.6886 109.773 80.3529 109.843 79.9926C109.97 79.4303 110.046 78.8574 110.069 78.2809C110.111 77.5809 110.131 76.7408 110.131 75.7608V73.9609H116.426V82.8845H114.517V75.6054H111.948C111.924 76.6386 111.889 77.6047 111.843 78.5036C111.814 79.2969 111.706 80.0852 111.518 80.8557C111.388 81.4367 111.11 81.9726 110.714 82.4098C110.346 82.7893 109.823 82.979 109.146 82.979" fill="white"/>
<path d="M122.032 83.08C121.41 83.091 120.792 82.9694 120.219 82.723C119.705 82.4988 119.246 82.1642 118.871 81.7422C118.496 81.3139 118.209 80.8143 118.025 80.2721C117.825 79.6876 117.726 79.0723 117.731 78.4533C117.726 77.8241 117.826 77.1986 118.025 76.6031C118.208 76.0516 118.495 75.5421 118.871 75.1036C119.244 74.6746 119.704 74.3335 120.219 74.1039C121.378 73.621 122.677 73.621 123.836 74.1039C124.354 74.3324 124.816 74.6736 125.19 75.1036C125.566 75.542 125.853 76.0515 126.036 76.6031C126.236 77.1985 126.335 77.8241 126.33 78.4533C126.336 79.0723 126.236 79.6876 126.036 80.2721C125.852 80.8143 125.565 81.314 125.19 81.7422C124.814 82.1653 124.352 82.4999 123.836 82.723C123.265 82.9682 122.65 83.0898 122.03 83.08M122.03 81.4419C122.412 81.4536 122.791 81.3654 123.131 81.1856C123.425 81.0217 123.677 80.7884 123.865 80.5052C124.057 80.2141 124.196 79.8905 124.277 79.5496C124.362 79.1915 124.405 78.8241 124.404 78.4555C124.405 78.0729 124.363 77.6916 124.277 77.3193C124.198 76.97 124.058 76.6379 123.865 76.3385C123.678 76.0523 123.426 75.8166 123.131 75.6517C122.787 75.4834 122.41 75.3959 122.029 75.3959C121.647 75.3959 121.27 75.4834 120.927 75.6517C120.631 75.8164 120.378 76.0521 120.192 76.3385C119.998 76.6377 119.859 76.9699 119.78 77.3193C119.694 77.6916 119.652 78.0729 119.653 78.4555C119.652 78.8242 119.696 79.1916 119.782 79.5496C119.863 79.8907 120.002 80.2143 120.194 80.5052C120.382 80.7887 120.634 81.022 120.929 81.1856C121.269 81.3658 121.649 81.454 122.032 81.4419" fill="white"/>
<path d="M127.695 73.957H133.768V75.6057H129.617V82.8785H127.695V73.957Z" fill="white"/>
<path d="M134.664 73.957H136.574V80.142H136.611L139.94 73.957H142.095V82.8785H140.185V76.6809H140.148L136.819 82.8785H134.664V73.957Z" fill="white"/>
<path d="M147.703 83.0797C147.081 83.0908 146.464 82.9692 145.89 82.7226C145.377 82.4985 144.918 82.164 144.543 81.7419C144.168 81.3136 143.881 80.8139 143.697 80.2718C143.497 79.6872 143.398 79.072 143.403 78.453C143.398 77.8238 143.497 77.1982 143.697 76.6028C143.88 76.0512 144.167 75.5417 144.543 75.1033C144.916 74.6743 145.376 74.3333 145.89 74.1036C146.898 73.679 148.02 73.6263 149.062 73.9545C149.48 74.0891 149.872 74.2989 150.218 74.574C150.561 74.8489 150.846 75.1909 151.058 75.58C151.284 76.005 151.424 76.4721 151.469 76.9535H149.617C149.587 76.7336 149.512 76.5226 149.397 76.334C149.283 76.1461 149.138 75.9793 148.969 75.8404C148.795 75.6971 148.598 75.5849 148.387 75.5086C148.169 75.4298 147.939 75.39 147.708 75.391C147.325 75.3788 146.945 75.467 146.605 75.6472C146.309 75.8118 146.057 76.0475 145.87 76.334C145.676 76.6332 145.537 76.9654 145.458 77.3147C145.372 77.6871 145.33 78.0684 145.331 78.4509C145.33 78.8197 145.374 79.1871 145.46 79.5451C145.541 79.8861 145.68 80.2097 145.872 80.5007C146.06 80.7841 146.312 81.0175 146.607 81.1811C146.947 81.3613 147.327 81.4495 147.71 81.4373C147.964 81.4516 148.219 81.4099 148.457 81.315C148.694 81.2201 148.909 81.0741 149.086 80.8871C149.434 80.4819 149.647 79.9745 149.693 79.438H151.546C151.507 79.963 151.378 80.4769 151.165 80.9564C150.97 81.3872 150.696 81.7753 150.356 82.0989C150.016 82.4183 149.616 82.6647 149.181 82.8234C148.705 82.9944 148.204 83.0789 147.699 83.0734" fill="white"/>
<path d="M154.792 75.6057H152.172V73.957H159.335V75.6057H156.714V82.8785H154.792V75.6057Z" fill="white"/>
<path d="M160.34 73.957H162.25V80.142H162.287L165.616 73.957H167.771V82.8785H165.861V76.6809H165.824L162.494 82.8785H160.34V73.957Z" fill="white"/>
<path d="M174.166 79.493C173.953 79.5434 173.696 79.5973 173.394 79.6547C173.084 79.7141 172.768 79.7437 172.452 79.743C171.978 79.7498 171.505 79.6954 171.044 79.5812C170.665 79.4885 170.313 79.3065 170.015 79.0499C169.727 78.7898 169.51 78.4586 169.384 78.088C169.232 77.6189 169.163 77.1263 169.178 76.6326V73.957H171.088V76.6557C171.088 77.1976 171.236 77.577 171.534 77.794C171.876 78.0239 172.281 78.1378 172.691 78.1195C172.982 78.1208 173.272 78.0955 173.559 78.0439C173.829 77.9935 174.032 77.9536 174.176 77.9179V73.957H176.098V82.8806H174.176L174.166 79.493Z" fill="white"/>
<path d="M177.789 73.957H184.329V75.6057H179.711V77.5189H183.948V79.0436H179.711V81.2299H184.426V82.8785H177.789V73.957Z" fill="white"/>
<path d="M189.641 83.0797C189.019 83.0908 188.401 82.9692 187.828 82.7226C187.315 82.4985 186.855 82.164 186.48 81.7419C186.106 81.3136 185.818 80.8139 185.634 80.2718C185.435 79.6872 185.335 79.072 185.34 78.453C185.335 77.8238 185.435 77.1982 185.634 76.6028C185.817 76.0512 186.105 75.5417 186.48 75.1033C186.853 74.6743 187.313 74.3333 187.828 74.1036C188.836 73.679 189.957 73.6263 190.999 73.9545C191.418 74.0891 191.809 74.2989 192.156 74.574C192.498 74.8489 192.784 75.1909 192.995 75.58C193.222 76.005 193.362 76.4721 193.407 76.9535H191.555C191.524 76.7336 191.449 76.5226 191.335 76.334C191.22 76.1461 191.075 75.9793 190.907 75.8404C190.732 75.6971 190.535 75.5849 190.324 75.5086C190.106 75.4298 189.876 75.39 189.645 75.391C189.262 75.3788 188.882 75.467 188.542 75.6472C188.246 75.8118 187.994 76.0475 187.807 76.334C187.614 76.6332 187.475 76.9654 187.396 77.3147C187.31 77.6871 187.267 78.0684 187.268 78.4509C187.268 78.8197 187.311 79.1871 187.398 79.5451C187.478 79.8861 187.618 80.2097 187.809 80.5007C187.998 80.7841 188.249 81.0175 188.544 81.1811C188.884 81.3613 189.264 81.4495 189.647 81.4373C189.902 81.4516 190.157 81.4099 190.394 81.315C190.632 81.2201 190.846 81.0741 191.024 80.8871C191.372 80.4819 191.584 79.9745 191.631 79.438H193.483C193.444 79.963 193.315 80.4769 193.102 80.9564C192.908 81.3872 192.633 81.7753 192.294 82.0989C191.953 82.4183 191.554 82.6647 191.118 82.8234C190.643 82.9944 190.141 83.0789 189.637 83.0734" fill="white"/>
<path d="M194.797 73.957H196.719V77.5315L200.135 73.957H202.537L198.764 77.6932L202.866 82.8785H200.454L197.369 78.9176L196.719 79.6295V82.8785H194.797V73.957Z" fill="white"/>
<path d="M203.637 73.957H205.546V80.142H205.583L208.915 73.957H211.07V82.8785H209.16V76.6809H209.123L205.791 82.8785H203.637V73.957Z" fill="white"/>
<path d="M212.76 73.957H214.67V80.142H214.707L218.038 73.9549H220.191V82.8785H218.281V76.6809H218.244L214.912 82.8785H212.758L212.76 73.957ZM216.592 73.1947C215.017 73.1947 214.229 72.5534 214.229 71.2709H215.649C215.65 71.5005 215.727 71.7229 215.869 71.901C215.965 71.9938 216.079 72.0642 216.203 72.1074C216.328 72.1505 216.461 72.1654 216.592 72.1509C216.724 72.1643 216.857 72.1495 216.984 72.1076C217.11 72.0656 217.227 71.9975 217.326 71.9073C217.401 71.8196 217.458 71.7176 217.493 71.6072C217.528 71.4968 217.542 71.3804 217.532 71.2646H218.952C218.952 72.5485 218.165 73.1898 216.59 73.1884" fill="white"/>
<path d="M231.79 82.8785H225.289V73.957H227.211V81.2299H230.64V73.957H232.562V81.2299H233.529V84.9156H231.79V82.8785Z" fill="white"/>
<path d="M234.496 73.957H241.036V75.6057H236.42V77.5189H240.655V79.0436H236.42V81.2299H241.133V82.8785H234.496V73.957Z" fill="white"/>
<path d="M242.43 73.957H244.352V77.3803H247.891V73.957H249.813V82.8785H247.891V79.031H244.352V82.8785H242.43V73.957Z" fill="white"/>
<path d="M253.442 75.6057H250.82V73.957H257.984V75.6057H255.364V82.8785H253.442V75.6057Z" fill="white"/>
<path d="M258.988 73.9568H262.931C263.407 73.9442 263.881 74.027 264.326 74.2004C264.68 74.3428 265 74.5621 265.263 74.8431C265.502 75.1063 265.681 75.4195 265.79 75.7609C266.01 76.4492 266.01 77.1915 265.79 77.8799C265.68 78.219 265.501 78.53 265.263 78.7914C265 79.0735 264.681 79.2935 264.326 79.4361C263.881 79.6095 263.407 79.6923 262.931 79.6797H260.91V82.8783H258.988V73.9568ZM262.404 78.1571C262.617 78.1578 262.83 78.1409 263.04 78.1067C263.231 78.0786 263.414 78.013 263.579 77.9135C263.738 77.8153 263.867 77.6752 263.954 77.5082C264.047 77.2913 264.095 77.0571 264.095 76.8204C264.095 76.5836 264.047 76.3494 263.954 76.1326C263.867 75.9655 263.738 75.8255 263.579 75.7272C263.414 75.628 263.23 75.5624 263.04 75.534C262.83 75.5002 262.617 75.4833 262.404 75.4836H260.91V78.1571H262.404Z" fill="white"/>
<path d="M53.5982 40.3711C57.2351 40.3711 60.8707 40.3711 64.5049 40.3711C65.4143 40.3567 66.3032 40.6475 67.0349 41.1988C67.7666 41.7501 68.3006 42.5314 68.5548 43.4226C68.6664 43.8407 68.7211 44.2725 68.7174 44.7058C68.7174 51.5334 68.7009 58.3568 68.7379 65.1907C68.7438 65.764 68.6371 66.3327 68.4242 66.8633C68.2114 67.3939 67.8966 67.8757 67.4985 68.2802C67.1004 68.6848 66.627 69.0039 66.1061 69.2188C65.5853 69.4338 65.0276 69.5401 64.4658 69.5317C57.1947 69.5457 49.9235 69.5457 42.6524 69.5317C39.8455 69.5317 38.3823 67.1711 38.3947 65.176C38.4358 58.3617 38.4358 51.5474 38.3947 44.7331C38.39 44.157 38.4981 43.5857 38.7126 43.0528C38.9272 42.5199 39.2438 42.0361 39.6441 41.6298C40.0443 41.2235 40.5201 40.9028 41.0434 40.6867C41.5667 40.4706 42.127 40.3633 42.6915 40.3711H53.5982Z" fill="white"/>
<path d="M94.0344 64.588H90.2808L82.1667 56.3723L74.0525 64.588H70.2969L80.0306 54.9001L70.2969 45.21H74.2253L82.1646 53.3921L90.1059 45.21H94.0344L84.3007 54.9001L94.0344 64.588Z" fill="white"/>
<path d="M110.362 55.4755C110.362 57.3642 110.272 58.6012 110.091 59.1865C109.728 60.2953 108.661 61.008 106.889 61.3244C106.1 61.4644 104.69 61.5344 102.66 61.5344C99.0241 61.5344 96.7796 61.1263 95.9263 60.3101C95.2788 59.701 94.9557 58.086 94.957 55.465C94.957 53.5889 95.0476 52.3519 95.2287 51.754C95.5909 50.6452 96.6582 49.9262 98.4307 49.5972C99.2196 49.439 100.63 49.3599 102.662 49.3599C106.296 49.3599 108.54 49.7743 109.395 50.6032C110.041 51.2248 110.364 52.8454 110.364 55.465M108.134 55.465C108.134 53.9249 108.004 52.8818 107.745 52.3358C107.485 51.7897 106.955 51.4621 106.154 51.3529C105.844 51.3165 104.678 51.2983 102.656 51.2983C100.664 51.2983 99.5056 51.3228 99.1818 51.3718C98.3793 51.4824 97.8456 51.81 97.5808 52.3547C97.316 52.8993 97.1836 53.9368 97.1836 55.4671C97.1836 56.9974 97.316 58.0349 97.5808 58.5795C97.8456 59.1242 98.3793 59.4455 99.1818 59.5435C99.4795 59.5799 100.637 59.5981 102.656 59.5981C104.674 59.5981 105.831 59.5799 106.129 59.5435C106.932 59.4455 107.465 59.1242 107.73 58.5795C107.995 58.0349 108.127 56.9974 108.127 55.4671" fill="white"/>
<mask id="path-45-inside-1_1195_26236" fill="white">
<path d="M126.251 57.8527C126.251 60.2049 124.893 61.381 122.177 61.381H112.223V49.5361H121.751C122.985 49.5361 123.955 49.8225 124.66 50.3951C125.423 50.9915 125.805 51.8568 125.805 52.9909C125.802 53.4078 125.733 53.8214 125.599 54.2153C125.418 54.7515 125.178 55.0742 124.881 55.1834C125.139 55.2562 125.413 55.5125 125.704 55.9521C126.078 56.5116 126.274 57.1753 126.266 57.8527M123.59 52.9825C123.59 51.9772 122.983 51.4746 121.767 51.4746H114.453V54.3266H121.749C122.356 54.3266 122.796 54.2468 123.068 54.0872C123.404 53.8911 123.572 53.5229 123.572 52.9825M123.983 57.8443C123.983 56.7901 123.37 56.2629 122.144 56.2629H114.453V59.4341H122.142C123.368 59.4341 123.981 58.9007 123.981 57.8338"/>
</mask>
<path d="M126.251 57.8527C126.251 60.2049 124.893 61.381 122.177 61.381H112.223V49.5361H121.751C122.985 49.5361 123.955 49.8225 124.66 50.3951C125.423 50.9915 125.805 51.8568 125.805 52.9909C125.802 53.4078 125.733 53.8214 125.599 54.2153C125.418 54.7515 125.178 55.0742 124.881 55.1834C125.139 55.2562 125.413 55.5125 125.704 55.9521C126.078 56.5116 126.274 57.1753 126.266 57.8527M123.59 52.9825C123.59 51.9772 122.983 51.4746 121.767 51.4746H114.453V54.3266H121.749C122.356 54.3266 122.796 54.2468 123.068 54.0872C123.404 53.8911 123.572 53.5229 123.572 52.9825M123.983 57.8443C123.983 56.7901 123.37 56.2629 122.144 56.2629H114.453V59.4341H122.142C123.368 59.4341 123.981 58.9007 123.981 57.8338" fill="#B32821"/>
<path d="M112.223 61.381H111.223V62.381H112.223V61.381ZM112.223 49.5361V48.5361H111.223V49.5361H112.223ZM124.66 50.3951L124.03 51.1714L124.037 51.1772L124.044 51.1829L124.66 50.3951ZM125.805 52.9909L126.805 52.9963V52.9909H125.805ZM125.599 54.2153L124.652 53.8932L124.651 53.8953L125.599 54.2153ZM124.881 55.1834L124.536 54.2446L121.639 55.3074L124.609 56.1458L124.881 55.1834ZM125.704 55.9521L124.87 56.5039L124.873 56.5082L125.704 55.9521ZM114.453 51.4746V50.4746H113.453V51.4746H114.453ZM114.453 54.3266H113.453V55.3266H114.453V54.3266ZM123.068 54.0872L122.564 53.2233L122.561 53.225L123.068 54.0872ZM114.453 56.2629V55.2629H113.453V56.2629H114.453ZM114.453 59.4341H113.453V60.4341H114.453V59.4341ZM125.251 57.8527C125.251 58.8342 124.974 59.3995 124.578 59.743C124.154 60.1102 123.413 60.381 122.177 60.381V62.381C123.656 62.381 124.953 62.0637 125.887 61.2549C126.849 60.4222 127.251 59.2235 127.251 57.8527H125.251ZM122.177 60.381H112.223V62.381H122.177V60.381ZM113.223 61.381V49.5361H111.223V61.381H113.223ZM112.223 50.5361H121.751V48.5361H112.223V50.5361ZM121.751 50.5361C122.838 50.5361 123.558 50.7879 124.03 51.1714L125.291 49.6188C124.353 48.857 123.133 48.5361 121.751 48.5361V50.5361ZM124.044 51.1829C124.522 51.5561 124.805 52.1053 124.805 52.9909H126.805C126.805 51.6083 126.325 50.427 125.276 49.6073L124.044 51.1829ZM124.805 52.9854C124.803 53.2948 124.751 53.6016 124.652 53.8932L126.546 54.5374C126.714 54.0413 126.802 53.5207 126.805 52.9963L124.805 52.9854ZM124.651 53.8953C124.582 54.1016 124.518 54.2127 124.48 54.2637C124.446 54.3101 124.459 54.2731 124.536 54.2446L125.225 56.1223C125.967 55.8502 126.34 55.1447 126.546 54.5352L124.651 53.8953ZM124.609 56.1458C124.535 56.1251 124.533 56.1007 124.597 56.1611C124.659 56.219 124.752 56.3254 124.87 56.5038L126.538 55.4003C126.224 54.9266 125.779 54.3978 125.152 54.221L124.609 56.1458ZM124.873 56.5082C125.134 56.8983 125.272 57.3634 125.266 57.8398L127.265 57.8657C127.277 56.9872 127.023 56.1248 126.535 55.396L124.873 56.5082ZM124.59 52.9825C124.59 52.2704 124.366 51.5723 123.772 51.0809C123.214 50.6197 122.488 50.4746 121.767 50.4746V52.4746C122.262 52.4746 122.447 52.5808 122.497 52.6222C122.511 52.6334 122.59 52.6893 122.59 52.9825H124.59ZM121.767 50.4746H114.453V52.4746H121.767V50.4746ZM113.453 51.4746V54.3266H115.453V51.4746H113.453ZM114.453 55.3266H121.749V53.3266H114.453V55.3266ZM121.749 55.3266C122.397 55.3266 123.063 55.2498 123.574 54.9493L122.561 53.225C122.563 53.2241 122.549 53.2322 122.513 53.2441C122.478 53.2561 122.427 53.2699 122.356 53.2828C122.211 53.309 122.012 53.3266 121.749 53.3266V55.3266ZM123.571 54.951C124.328 54.5095 124.572 53.7238 124.572 52.9825H122.572C122.572 53.155 122.544 53.2309 122.536 53.2488C122.533 53.2557 122.534 53.2511 122.543 53.2416C122.551 53.2318 122.56 53.2256 122.564 53.2233L123.571 54.951ZM124.983 57.8443C124.983 57.1202 124.766 56.4074 124.175 55.8999C123.614 55.4173 122.877 55.2629 122.144 55.2629V57.2629C122.637 57.2629 122.82 57.3721 122.872 57.4166C122.894 57.4362 122.983 57.5142 122.983 57.8443H124.983ZM122.144 55.2629H114.453V57.2629H122.144V55.2629ZM113.453 56.2629V59.4341H115.453V56.2629H113.453ZM114.453 60.4341H122.142V58.4341H114.453V60.4341ZM122.142 60.4341C122.877 60.4341 123.616 60.2771 124.178 59.7886C124.766 59.2768 124.981 58.5605 124.981 57.8338H122.981C122.981 58.174 122.89 58.2579 122.865 58.2796C122.813 58.3244 122.632 58.4341 122.142 58.4341V60.4341Z" fill="white" mask="url(#path-45-inside-1_1195_26236)"/>
<path d="M142.125 53.3923C142.125 54.5753 141.821 55.5015 141.213 56.1708C140.567 56.8708 139.63 57.2208 138.4 57.2208H130.58V61.3707H128.348V49.5259H138.458C139.693 49.5259 140.624 49.8857 141.253 50.6054C141.834 51.276 142.125 52.2022 142.125 53.3839M139.861 53.3839C139.861 52.1042 139.365 51.4643 138.372 51.4643H130.58V55.2845H138.384C139.365 55.2845 139.855 54.6509 139.855 53.3839" fill="white"/>
<path d="M156.719 50.0361H158.989V60.881H157.758V51.7476V50.5743L156.912 51.3869L147.025 60.881H144.66V50.0361H145.93V59.2472V60.4226L146.777 59.6074L156.719 50.0361Z" fill="#B32821" stroke="white"/>
<path d="M176.179 61.381H173.909V56.3532H163.955V61.381H161.684V49.5361H163.955V54.4169H173.909V49.5361H176.179V61.381Z" fill="white"/>
<mask id="path-50-inside-2_1195_26236" fill="white">
<path d="M193.564 55.4755C193.564 57.3642 193.473 58.6012 193.292 59.1865C192.93 60.2953 191.862 61.008 190.09 61.3244C189.301 61.4644 187.891 61.5344 185.861 61.5344C182.225 61.5344 179.981 61.1263 179.128 60.3101C178.48 59.701 178.156 58.086 178.156 55.465C178.156 53.5889 178.247 52.3519 178.428 51.754C178.79 50.6452 179.857 49.9262 181.63 49.5972C182.419 49.439 183.829 49.3599 185.861 49.3599C189.495 49.3599 191.74 49.7743 192.594 50.6032C193.24 51.2248 193.564 52.8454 193.564 55.465M191.333 55.465C191.333 53.9249 191.203 52.8818 190.944 52.3358C190.685 51.7897 190.154 51.4621 189.353 51.3529C189.043 51.3165 187.877 51.2983 185.855 51.2983C183.863 51.2983 182.705 51.3228 182.381 51.3718C181.578 51.4824 181.045 51.81 180.78 52.3547C180.515 52.8993 180.383 53.9368 180.383 55.4671C180.383 56.9974 180.515 58.0349 180.78 58.5795C181.045 59.1242 181.578 59.4455 182.381 59.5435C182.679 59.5799 183.837 59.5981 185.855 59.5981C187.873 59.5981 189.031 59.5799 189.328 59.5435C190.13 59.4455 190.663 59.1242 190.929 58.5795C191.196 58.0349 191.328 56.9974 191.327 55.4671"/>
</mask>
<path d="M193.564 55.4755C193.564 57.3642 193.473 58.6012 193.292 59.1865C192.93 60.2953 191.862 61.008 190.09 61.3244C189.301 61.4644 187.891 61.5344 185.861 61.5344C182.225 61.5344 179.981 61.1263 179.128 60.3101C178.48 59.701 178.156 58.086 178.156 55.465C178.156 53.5889 178.247 52.3519 178.428 51.754C178.79 50.6452 179.857 49.9262 181.63 49.5972C182.419 49.439 183.829 49.3599 185.861 49.3599C189.495 49.3599 191.74 49.7743 192.594 50.6032C193.24 51.2248 193.564 52.8454 193.564 55.465M191.333 55.465C191.333 53.9249 191.203 52.8818 190.944 52.3358C190.685 51.7897 190.154 51.4621 189.353 51.3529C189.043 51.3165 187.877 51.2983 185.855 51.2983C183.863 51.2983 182.705 51.3228 182.381 51.3718C181.578 51.4824 181.045 51.81 180.78 52.3547C180.515 52.8993 180.383 53.9368 180.383 55.4671C180.383 56.9974 180.515 58.0349 180.78 58.5795C181.045 59.1242 181.578 59.4455 182.381 59.5435C182.679 59.5799 183.837 59.5981 185.855 59.5981C187.873 59.5981 189.031 59.5799 189.328 59.5435C190.13 59.4455 190.663 59.1242 190.929 58.5795C191.196 58.0349 191.328 56.9974 191.327 55.4671" fill="#B32821"/>
<path d="M193.292 59.1865L194.242 59.4969L194.245 59.4895L194.247 59.4821L193.292 59.1865ZM190.09 61.3244L190.265 62.309L190.266 62.3089L190.09 61.3244ZM179.128 60.3101L179.819 59.5874L179.813 59.5816L179.128 60.3101ZM178.428 51.754L177.477 51.4436L177.474 51.4538L177.471 51.4641L178.428 51.754ZM181.63 49.5972L181.812 50.5804L181.82 50.5791L181.827 50.5777L181.63 49.5972ZM192.594 50.6032L191.898 51.321L191.901 51.3238L192.594 50.6032ZM189.353 51.3529L189.488 50.3621L189.479 50.3608L189.47 50.3597L189.353 51.3529ZM182.381 51.3718L182.518 52.3625L182.531 52.3605L182.381 51.3718ZM182.381 59.5435L182.502 58.5509L182.502 58.5509L182.381 59.5435ZM189.328 59.5435L189.45 60.5361L189.45 60.5361L189.328 59.5435ZM192.564 55.4755C192.564 56.4067 192.541 57.1616 192.498 57.7468C192.454 58.3501 192.392 58.7117 192.337 58.8909L194.247 59.4821C194.373 59.076 194.447 58.5264 194.493 57.8928C194.541 57.241 194.564 56.4331 194.564 55.4755H192.564ZM192.341 58.876C192.148 59.4672 191.539 60.05 189.914 60.34L190.266 62.3089C192.186 61.966 193.711 61.1235 194.242 59.4969L192.341 58.876ZM189.915 60.3398C189.223 60.4626 187.895 60.5344 185.861 60.5344V62.5344C187.888 62.5344 189.379 62.4663 190.265 62.309L189.915 60.3398ZM185.861 60.5344C184.072 60.5344 182.669 60.4334 181.63 60.2445C180.55 60.048 180.024 59.7833 179.819 59.5874L178.436 61.0327C179.085 61.6531 180.108 62.0005 181.272 62.2122C182.477 62.4314 184.014 62.5344 185.861 62.5344V60.5344ZM179.813 59.5816C179.723 59.4969 179.531 59.1992 179.38 58.4454C179.236 57.729 179.156 56.7433 179.156 55.465H177.156C177.156 56.8077 177.238 57.94 177.419 58.8386C177.591 59.6999 177.885 60.5141 178.442 61.0385L179.813 59.5816ZM179.156 55.465C179.156 53.5625 179.254 52.4762 179.385 52.0439L177.471 51.4641C177.24 52.2275 177.156 53.6152 177.156 55.465H179.156ZM179.378 52.0645C179.573 51.4697 180.187 50.8821 181.812 50.5804L181.447 48.614C179.528 48.9703 178.007 49.8206 177.477 51.4436L179.378 52.0645ZM181.827 50.5777C182.506 50.4413 183.825 50.3599 185.861 50.3599V48.3599C183.833 48.3599 182.331 48.4366 181.433 48.6167L181.827 50.5777ZM185.861 50.3599C187.648 50.3599 189.05 50.4624 190.088 50.6541C191.167 50.8532 191.692 51.1213 191.898 51.321L193.29 49.8853C192.642 49.2561 191.618 48.9026 190.451 48.6873C189.245 48.4645 187.708 48.3599 185.861 48.3599V50.3599ZM191.901 51.3238C191.997 51.4166 192.19 51.7246 192.34 52.4804C192.484 53.2003 192.564 54.1875 192.564 55.465H194.564C194.564 54.1229 194.481 52.9901 194.302 52.0893C194.129 51.2244 193.837 50.4114 193.288 49.8825L191.901 51.3238ZM192.333 55.465C192.333 54.6708 192.3 53.9807 192.228 53.4043C192.158 52.8428 192.044 52.3222 191.847 51.9068L190.041 52.7647C190.103 52.8954 190.183 53.1693 190.243 53.651C190.301 54.1176 190.333 54.7191 190.333 55.465H192.333ZM191.847 51.9068C191.396 50.9568 190.498 50.4998 189.488 50.3621L189.218 52.3437C189.81 52.4245 189.973 52.6227 190.041 52.7647L191.847 51.9068ZM189.47 50.3597C189.085 50.3146 187.838 50.2983 185.855 50.2983V52.2983C187.916 52.2983 189.001 52.3185 189.237 52.3461L189.47 50.3597ZM185.855 50.2983C184.856 50.2983 184.06 50.3044 183.471 50.3169C182.911 50.3288 182.47 50.3469 182.231 50.3831L182.531 52.3605C182.616 52.3477 182.916 52.3291 183.513 52.3165C184.082 52.3044 184.862 52.2983 185.855 52.2983V50.2983ZM182.245 50.3812C181.235 50.5203 180.339 50.9755 179.881 51.9175L181.679 52.7919C181.751 52.6446 181.922 52.4445 182.518 52.3624L182.245 50.3812ZM179.881 51.9175C179.678 52.3337 179.562 52.8545 179.49 53.4147C179.417 53.9897 179.383 54.6771 179.383 55.4671H181.383C181.383 54.7268 181.415 54.1303 181.474 53.6678C181.535 53.1906 181.617 52.9203 181.679 52.7919L179.881 51.9175ZM179.383 55.4671C179.383 56.2571 179.417 56.9445 179.49 57.5195C179.562 58.0797 179.678 58.6005 179.881 59.0167L181.679 58.1423C181.617 58.0139 181.535 57.7436 181.474 57.2664C181.415 56.8039 181.383 56.2074 181.383 55.4671H179.383ZM179.881 59.0167C180.342 59.9652 181.246 60.4123 182.26 60.5361L182.502 58.5509C181.911 58.4786 181.748 58.2831 181.679 58.1423L179.881 59.0167ZM182.26 60.5361C182.635 60.582 183.879 60.5981 185.855 60.5981V58.5981C183.795 58.5981 182.722 58.5778 182.502 58.5509L182.26 60.5361ZM185.855 60.5981C187.831 60.5981 189.074 60.582 189.45 60.5361L189.207 58.5509C188.987 58.5778 187.915 58.5981 185.855 58.5981V60.5981ZM189.45 60.5361C190.463 60.4122 191.366 59.9648 191.828 59.0186L190.031 58.1405C189.961 58.2835 189.796 58.4788 189.207 58.5509L189.45 60.5361ZM191.828 59.0186C192.032 58.6017 192.149 58.0801 192.22 57.5195C192.294 56.9441 192.327 56.2564 192.327 55.4662L190.327 55.468C190.327 56.2081 190.295 56.8043 190.236 57.2664C190.176 57.7433 190.093 58.0128 190.031 58.1405L191.828 59.0186Z" fill="white" mask="url(#path-50-inside-2_1195_26236)"/>
</g>
<defs>
<clipPath id="clip0_1195_26236">
<rect width="266" height="84.9154" fill="white"/>
</clipPath>
</defs>
</svg>
