<svg width="60" height="60" viewBox="0 0 60 60" fill="none" xmlns="http://www.w3.org/2000/svg">
<path d="M1.88846 0.199104C1.19706 0.445198 0.435338 1.21864 0.200963 1.93348C0.0134633 2.46082 0.00174459 4.71083 0.00174459 29.9999C0.00174459 60.8671 -0.0802867 58.1718 0.880651 59.121C1.82987 60.0819 -0.103724 59.9999 23.908 59.9765L45.2947 59.9413L47.4627 58.664C50.6267 56.789 51.9041 55.8866 53.4158 54.4452C56.1228 51.8319 57.8103 49.1718 58.9471 45.7147C59.8846 42.8671 59.9432 42.2811 59.9432 36.035C59.9432 30.6913 59.9314 30.5155 59.6971 30.1171C59.3689 29.5429 58.783 29.1796 58.1971 29.1796C57.4588 29.1796 56.2283 28.8749 55.5838 28.5585C54.74 28.1249 53.8728 27.2811 53.2517 26.2968C52.4432 24.996 52.5135 25.0077 49.1971 25.0546L46.408 25.1015L46.3846 13.6874C46.3494 2.85926 46.3377 2.2616 46.1267 1.78114C45.8572 1.16004 44.9432 0.328011 44.3221 0.140511C43.9705 0.0350418 38.826 -0.000114441 23.1346 0.0116043C4.67753 0.0116043 2.34549 0.0350418 1.88846 0.199104ZM42.8924 14.285V25.0663L39.8807 25.1015C36.3533 25.1483 36.4236 25.1132 35.6385 26.4725C34.6307 28.1952 33.1307 29.1327 30.9861 29.3554C30.1541 29.4491 29.6267 29.7304 29.2869 30.2577C29.0525 30.6327 29.0525 30.7616 29.0994 35.9179C29.1463 40.746 29.1697 41.3202 29.4041 42.6561C29.9432 45.6561 31.2908 48.8905 33.0252 51.328C33.9275 52.6054 36.2478 54.996 37.4314 55.8866L38.24 56.4843H20.8728H3.51737V29.9999V3.51551H23.2049H42.8924V14.285ZM51.0017 29.2499C52.1267 30.6561 53.9666 31.8749 55.6892 32.3436L56.4275 32.5429L56.4627 36.3397C56.4978 41.5663 56.2752 43.1718 55.0799 46.0311C53.9314 48.7616 51.7752 51.5272 49.3963 53.2968C48.5408 53.9296 45.1072 56.0038 44.7674 56.0975C44.5447 56.1561 41.2635 54.2929 39.9041 53.3319C38.7088 52.4882 36.8103 50.5897 35.9432 49.371C34.9705 48.0116 34.0682 46.2186 33.5291 44.5897C32.7674 42.2694 32.6736 41.496 32.615 36.8436L32.5564 32.7186L33.2361 32.5194C35.0057 32.0155 36.8807 30.7616 37.9002 29.4022L38.4627 28.6522L44.3455 28.5936C47.5682 28.5585 50.2517 28.5233 50.2986 28.4999C50.3455 28.4882 50.6619 28.828 51.0017 29.2499Z" fill="#6773DA"/>
</svg>
