<svg width="60" height="60" viewBox="0 0 60 60" fill="none" xmlns="http://www.w3.org/2000/svg">
<path d="M43.3945 0.210938C42.8906 0.480469 28.6289 14.9062 28.4766 15.293C28.1719 16.1016 28.5469 17.0625 29.3203 17.4492C29.8008 17.6836 30.0117 17.6953 32.6133 17.6953H35.3906V22.9688V28.2422H28.9453C22.7109 28.2422 22.4766 28.2539 22.0312 28.4766C21.7266 28.6289 21.4805 28.875 21.3281 29.1797C21.1055 29.6133 21.0938 29.8594 21.0938 34.2188V38.7891H14.7656C8.64844 38.7891 8.41406 38.8008 7.96875 39.0234C7.66406 39.1758 7.41797 39.4219 7.26562 39.7266C7.04297 40.1719 7.03125 40.3945 7.03125 48.3398V56.4844H4.21875C1.61719 56.4844 1.35938 56.5078 0.9375 56.7188C0.410156 56.9883 0 57.6562 0 58.2422C0 58.8281 0.410156 59.4961 0.9375 59.7656C1.39453 60 1.55859 60 30 60C58.4414 60 58.6055 60 59.0625 59.7656C59.5898 59.4961 60 58.8281 60 58.2422C60 57.6562 59.5898 56.9883 59.0625 56.7188C58.6406 56.5078 58.3828 56.4844 55.7812 56.4844H52.9688V37.0898V17.6953H55.7461C58.3477 17.6953 58.5586 17.6836 59.0391 17.4492C59.4258 17.2617 59.6133 17.0742 59.7773 16.7109C60.0469 16.125 60.0586 15.8203 59.8242 15.2812C59.625 14.8008 45.7148 0.691406 45.0117 0.269531C44.5078 -0.046875 43.9102 -0.0703125 43.3945 0.210938ZM49.1602 9.25781L54.082 14.1797H52.4648C50.5547 14.1797 50.0859 14.332 49.6875 15.1172C49.4531 15.5742 49.4531 15.7617 49.4531 36.0352V56.4844H44.1797H38.9062V36.0352C38.9062 15.7617 38.9062 15.5742 38.6719 15.1172C38.2734 14.332 37.8047 14.1797 35.8945 14.1797H34.2773L39.1992 9.25781C41.9062 6.55078 44.1445 4.33594 44.1797 4.33594C44.2148 4.33594 46.4531 6.55078 49.1602 9.25781ZM35.3906 44.1211V56.4844H30H24.6094V44.1211V31.7578H30H35.3906V44.1211ZM21.0938 49.3945V56.4844H15.8203H10.5469V49.3945V42.3047H15.8203H21.0938V49.3945Z" fill="#6773DA"/>
</svg>
