<svg width="40" height="40" viewBox="0 0 40 40" fill="none" xmlns="http://www.w3.org/2000/svg">
<rect x="0.5" y="0.5" width="39" height="39" rx="5.5" stroke="#D7DBE2"/>
<path fill-rule="evenodd" clip-rule="evenodd" d="M12.0924 19.0407C17.0137 16.8965 20.2953 15.483 21.9373 14.8C26.6255 12.85 27.5996 12.5113 28.2346 12.5001C28.3742 12.4977 28.6865 12.5323 28.8887 12.6964C29.0595 12.835 29.1065 13.0222 29.129 13.1536C29.1515 13.285 29.1795 13.5843 29.1572 13.8181C28.9032 16.4875 27.8039 22.9654 27.2446 25.9552C27.008 27.2203 26.542 27.6444 26.0909 27.686C25.1106 27.7762 24.3662 27.0381 23.4166 26.4157C21.9309 25.4417 21.0915 24.8354 19.6493 23.885C17.9825 22.7866 19.063 22.1829 20.0129 21.1964C20.2614 20.9382 24.5809 17.0093 24.6645 16.6529C24.6749 16.6083 24.6846 16.4422 24.5859 16.3544C24.4872 16.2667 24.3415 16.2967 24.2364 16.3206C24.0874 16.3544 21.7138 17.9232 17.1157 21.0271C16.4419 21.4898 15.8317 21.7152 15.2849 21.7034C14.6822 21.6903 13.5227 21.3626 12.6608 21.0824C11.6036 20.7387 10.7633 20.557 10.8365 19.9734C10.8746 19.6694 11.2932 19.3585 12.0924 19.0407Z" fill="url(#paint0_linear_1209_19937)"/>
<defs>
<linearGradient id="paint0_linear_1209_19937" x1="927.499" y1="12.5" x2="927.499" y2="1520.58" gradientUnits="userSpaceOnUse">
<stop stop-color="#2AABEE"/>
<stop offset="1" stop-color="#229ED9"/>
</linearGradient>
</defs>
</svg>
