<svg width="60" height="54" viewBox="0 0 60 54" fill="none" xmlns="http://www.w3.org/2000/svg">
<path d="M18.938 0.703117C17.145 1.13671 15.6099 2.49609 14.9654 4.24218C14.7427 4.82812 14.7075 5.22655 14.6724 7.39452L14.6255 9.89062H9.55129C3.99661 9.89062 3.77395 9.91405 2.5552 10.6289C1.48879 11.25 0.504419 12.5742 0.188013 13.8164C-0.0815186 14.8125 -0.0815186 23.7187 0.176294 24.9492C0.39895 25.9922 0.996607 27.2109 1.74661 28.1484L2.34426 28.875V38.8125C2.34426 49.5586 2.33254 49.3828 2.97708 50.6484C3.37551 51.4219 4.14895 52.2305 4.95754 52.7109C6.35208 53.5312 4.77005 53.4844 30.0005 53.4844C55.231 53.4844 53.6489 53.5312 55.0435 52.7109C55.8521 52.2305 56.6255 51.4219 57.0239 50.6484C57.6685 49.3828 57.6568 49.5586 57.6568 38.8125V28.875L58.2544 28.1484C59.0044 27.2109 59.6021 25.9922 59.8247 24.9492C60.0825 23.7187 60.0825 14.8125 59.813 13.8164C59.4966 12.5742 58.5122 11.25 57.4458 10.6289C56.2271 9.91405 56.0044 9.89062 50.4497 9.89062H45.3755L45.3286 7.39452C45.2935 5.22655 45.2583 4.82812 45.0357 4.24218C44.3794 2.46093 42.8677 1.13671 41.0044 0.691399C39.9263 0.445305 20.0044 0.445305 18.938 0.703117ZM40.6177 4.2539C40.8872 4.37109 41.2505 4.67577 41.438 4.92187L41.7779 5.35546L41.813 7.6289L41.8482 9.89062H30.0005H18.1529L18.188 7.6289L18.2232 5.35546L18.563 4.92187C18.7505 4.67577 19.1138 4.37109 19.3833 4.2539C19.8404 4.04296 20.356 4.03124 30.0005 4.03124C39.645 4.03124 40.1607 4.04296 40.6177 4.2539ZM55.4771 13.5703C55.688 13.6523 55.9927 13.9101 56.145 14.1211L56.4263 14.5195V19.4414V24.3633L56.0747 25.0547C55.0318 27.1289 52.02 28.957 47.4732 30.293C44.813 31.0664 41.2622 31.7226 38.0865 32.0391C37.3482 32.1094 36.5982 32.1914 36.4224 32.2148L36.1177 32.2617L36.0708 31.125C36.0357 30.1523 36.0005 29.9297 35.7544 29.5898C35.2505 28.8867 35.1802 28.875 29.9771 28.875C25.7115 28.875 25.2193 28.8984 24.856 29.0859C24.1294 29.4492 23.9654 29.8008 23.9302 31.1133C23.895 32.1328 23.8599 32.2734 23.6958 32.2266C23.5786 32.2031 23.0747 32.1445 22.5591 32.0976C18.3872 31.7578 13.6411 30.7734 10.3482 29.5781C8.02786 28.7344 5.47317 27.1758 4.59426 26.0742C4.38333 25.8164 4.06692 25.3242 3.89114 24.9844L3.57473 24.3633V19.4414V14.5195L3.85598 14.1211C4.39504 13.3594 2.46145 13.418 29.9771 13.4062C51.1294 13.4062 55.1489 13.4297 55.4771 13.5703ZM6.65676 31.793C10.3599 33.6562 16.3013 35.0976 22.4419 35.6133C24.0357 35.7422 23.9771 35.7187 24.2115 36.4453C25.1138 39.3164 28.231 40.9805 31.4302 40.3125C33.481 39.8672 35.1919 38.3555 35.7896 36.457C36.024 35.707 35.6841 35.8125 38.7896 35.4961C42.5747 35.0976 46.7583 34.2422 49.77 33.2578C51.0239 32.8476 53.6255 31.7578 53.8482 31.5586C53.9068 31.5 54.0005 31.4531 54.0474 31.4531C54.106 31.4531 54.1294 35.3555 54.1177 40.1133C54.0825 48.6562 54.0825 48.7852 53.8364 49.1016C53.7075 49.2773 53.4497 49.5352 53.2739 49.6641L52.9575 49.9102H30.0005H7.04348L6.72708 49.6641C6.55129 49.5352 6.29348 49.2773 6.16458 49.1016C5.91848 48.7852 5.91848 48.6562 5.88333 40.1133C5.87161 35.3555 5.88333 31.4531 5.91848 31.4531C5.95364 31.4531 6.28176 31.6055 6.65676 31.793ZM32.5552 33.9023C32.52 35.3672 32.5083 35.4375 32.1685 35.918C31.6529 36.6328 31.0786 36.9023 30.0005 36.9023C28.9224 36.9023 28.3482 36.6328 27.8325 35.918C27.4927 35.4375 27.481 35.3672 27.4458 33.9023L27.399 32.3906H30.0005H32.6021L32.5552 33.9023Z" fill="#6773DA"/>
</svg>
