<svg width="346" height="111" viewBox="0 0 346 111" fill="none" xmlns="http://www.w3.org/2000/svg">
<g clip-path="url(#clip0_3214_21635)">
<path d="M28.4193 52.5373C33.15 52.5373 37.879 52.5373 42.6062 52.5373C43.7891 52.5185 44.9453 52.8966 45.8971 53.6135C46.8488 54.3304 47.5434 55.3464 47.8741 56.5053C48.0192 57.049 48.0904 57.6105 48.0856 58.1739C48.0856 67.0521 48.0642 75.9249 48.1123 84.8113C48.1203 85.5566 47.982 86.296 47.7056 86.9859C47.4292 87.6758 47.0203 88.3023 46.503 88.8286C45.9856 89.3549 45.3703 89.7702 44.6933 90.0502C44.0163 90.3302 43.2912 90.4691 42.5607 90.4589C33.1028 90.4771 23.6448 90.4771 14.1869 90.4589C10.5358 90.4589 8.63257 87.3893 8.64863 84.795C8.70217 75.934 8.70217 67.0731 8.64863 58.2121C8.6425 57.463 8.7831 56.7201 9.06218 56.0272C9.34126 55.3342 9.75319 54.7051 10.2738 54.1767C10.7944 53.6484 11.4132 53.2314 12.0939 52.9504C12.7746 52.6693 13.5035 52.5298 14.2377 52.54H28.4246" fill="#001C71"/>
<path d="M3.45293 77.446C2.62612 76.52 2.15963 75.3176 2.14131 74.0651C2.12347 64.9985 2.12347 55.9309 2.14131 46.8624C2.14131 45.628 2.59904 44.5275 3.45561 43.4761L3.45293 77.446Z" fill="#001C71"/>
<path d="M7.57543 51.3413V85.2566C6.92036 84.5279 6.49429 83.6158 6.35214 82.6377C6.27872 82.1159 6.2456 81.589 6.2531 81.0619C6.2531 72.465 6.2531 63.8681 6.2531 55.2711C6.20663 53.8389 6.68365 52.4402 7.59149 51.3468" fill="#001C71"/>
<path d="M1.36778 39.5547V73.4973C0.706079 72.7284 0.278218 71.7794 0.136464 70.7664C0.095331 70.4103 0.0783377 70.0517 0.085605 69.6932C0.085605 60.9305 0.085605 52.167 0.085605 43.4026C0.0457894 42.2675 0.339419 41.1463 0.928789 40.1828C1.04389 40.0026 1.17773 39.8332 1.37581 39.5602" fill="#001C71"/>
<path d="M5.46332 81.3213C4.71115 80.3409 4.28286 79.3633 4.23736 78.2463C4.19721 77.2495 4.2213 76.2473 4.21862 75.2423C4.21862 67.2316 4.21862 59.2209 4.21862 51.2102C4.18898 49.8453 4.63263 48.5135 5.47135 47.4497L5.46332 81.3213Z" fill="#001C71"/>
<path d="M28.4142 12.9446C33.145 12.9446 37.8739 12.9446 42.6011 12.9446C43.85 12.913 45.0714 13.3221 46.0589 14.1027C47.0465 14.8833 47.7397 15.9878 48.0216 17.2294C48.1321 17.7045 48.1861 18.1914 48.1822 18.6796C48.1929 27.5023 48.1929 36.3241 48.1822 45.1449C48.1822 48.4876 45.8293 50.9591 42.561 50.9673C33.103 50.9891 23.6451 50.9891 14.1871 50.9673C10.9295 50.9673 8.56592 48.5094 8.56592 45.1914C8.56592 36.3523 8.56592 27.5123 8.56592 18.6714C8.56592 15.9159 10.2068 13.7748 12.8006 13.1085C13.2859 12.9948 13.783 12.9416 14.2808 12.9501C18.992 12.9392 23.704 12.9392 28.4169 12.9501" fill="#71757C"/>
<path d="M346 87.1846H91.4331V89.3092H346V87.1846Z" fill="#001C71"/>
<path d="M1.44015 34.1611C0.772674 33.458 0.31819 32.5733 0.131211 31.6132C0.0422676 31.1711 -0.00168626 30.7208 4.9459e-05 30.2696C4.9459e-05 21.3777 4.9459e-05 12.4794 4.9459e-05 3.57478C0.00437016 2.45587 0.345421 1.36531 0.977073 0.450602C1.0587 0.327362 1.14811 0.209683 1.24475 0.0983132C1.30484 0.0560069 1.37067 0.022886 1.44015 0V34.1611Z" fill="#71757C"/>
<path d="M5.56226 41.9961C4.85175 41.2477 4.38443 40.2942 4.22387 39.2652C4.15281 38.7808 4.12147 38.2912 4.13018 37.8014C4.13018 29.1116 4.13018 20.4218 4.13018 11.732C4.09663 10.5195 4.43849 9.32691 5.10721 8.32386C5.21963 8.15727 5.35347 8.00434 5.56494 7.72852L5.56226 41.9961Z" fill="#71757C"/>
<path d="M3.49587 3.83984V38.061C2.85993 37.4053 2.42228 36.5767 2.2351 35.6742C2.13334 35.1584 2.08667 34.6328 2.09591 34.1067C2.09591 25.3459 2.09145 16.5842 2.08253 7.82153C2.03619 6.55333 2.40229 5.30511 3.12379 4.27133C3.20677 4.1539 3.31117 4.05286 3.49854 3.83984" fill="#71757C"/>
<path d="M7.59396 45.9042C6.72669 44.8883 6.22613 43.8014 6.22345 42.5725C6.20026 33.4094 6.20026 24.2453 6.22345 15.0803C6.22345 13.8432 6.7026 12.7399 7.59396 11.7158V45.9042Z" fill="#71757C"/>
<path d="M69.7191 52.4968C74.4498 52.4968 79.1788 52.4968 83.906 52.4968C85.0889 52.478 86.2451 52.8561 87.1969 53.573C88.1486 54.2899 88.8432 55.3059 89.1739 56.4648C89.319 57.0085 89.3902 57.5699 89.3853 58.1334C89.3853 67.0116 89.3639 75.8844 89.4121 84.7708C89.4197 85.5163 89.281 86.2558 89.0041 86.9458C88.7272 87.6358 88.3178 88.2622 87.7999 88.7883C87.2821 89.3143 86.6662 89.7293 85.9888 90.0088C85.3113 90.2883 84.5858 90.4266 83.8551 90.4156C74.3972 90.4338 64.9393 90.4338 55.4813 90.4156C51.8302 90.4156 49.927 87.3461 49.9431 84.7517C49.9966 75.8908 49.9966 67.0298 49.9431 58.1689C49.9369 57.4197 50.0775 56.6769 50.3566 55.9839C50.6357 55.2909 51.0476 54.6618 51.5682 54.1335C52.0889 53.6051 52.7077 53.1882 53.3884 52.9071C54.0691 52.6261 54.7979 52.4866 55.5322 52.4968H69.7191Z" fill="#71757C"/>
<path d="M118.693 75.1987C118.693 78.23 118.12 80.4248 116.972 81.7829C115.989 82.9536 114.411 83.6645 112.24 83.9158C111.38 84.0196 109.034 84.0715 105.202 84.0715C101.187 84.0715 98.3802 83.8411 96.7813 83.3805C94.7934 82.8161 93.4309 81.6564 92.6939 79.9013C91.9569 78.2082 91.5884 75.4071 91.5884 71.4983C91.5884 67.5894 91.9569 64.7675 92.6939 63.0324C93.4309 61.2974 94.7934 60.1376 96.7813 59.5532C98.3999 59.0944 101.207 58.8641 105.202 58.8623C109.075 58.8623 111.421 58.9151 112.24 59.0207C114.411 59.2719 115.989 59.972 116.972 61.1208C118.12 62.4808 118.693 64.6865 118.693 67.7378H115.101C115.101 65.056 114.548 63.4448 113.442 62.9041C112.519 62.4271 109.773 62.1877 105.205 62.1858C101.804 62.1858 99.6018 62.3005 98.5989 62.5299C97.1712 62.8631 96.229 63.6651 95.7722 64.9359C95.3832 66.081 95.1886 68.2658 95.1886 71.4901C95.1886 74.678 95.3939 76.8445 95.8043 77.9897C96.254 79.2641 97.2069 80.0661 98.6631 80.3956C99.6464 80.625 101.828 80.7397 105.208 80.7397C109.735 80.7397 112.47 80.5112 113.412 80.0543C114.538 79.4935 115.102 77.8723 115.104 75.1905L118.693 75.1987Z" fill="#71757C"/>
<path d="M143.711 79.8687H140.777V67.26L127.591 79.8687H123.56V64.3652H126.545V77.0777L139.803 64.3652H143.711V79.8687Z" fill="#71757C"/>
<path d="M165.112 75.2507C165.112 78.3294 163.352 79.8687 159.833 79.8687H146.618V64.3652H163.452V66.9077H149.602V70.6409H159.838C163.352 70.6409 165.109 72.1802 165.109 75.2589M162.124 75.2589C162.124 73.8789 161.353 73.1888 159.812 73.1888H149.602V77.3508H159.787C161.345 77.3508 162.124 76.6526 162.124 75.2562" fill="#71757C"/>
<path d="M187.811 79.8687H184.877V67.26L171.691 79.8687H167.663V64.3652H170.645V77.0777L183.903 64.3652H187.811V79.8687Z" fill="#71757C"/>
<path d="M208.7 69.4147C208.7 70.9622 208.3 72.1748 207.501 73.0523C206.65 73.9772 205.417 74.4396 203.802 74.4396H193.531V79.8714H190.586V64.3652H203.877C205.492 64.3652 206.716 64.8359 207.549 65.7771C208.315 66.6547 208.697 67.8672 208.697 69.4147M205.713 69.4147C205.713 67.7397 205.06 66.9023 203.753 66.9023H193.531V71.9026H203.783C205.073 71.9026 205.718 71.0733 205.718 69.4147" fill="#71757C"/>
<path d="M229.667 74.1281C229.667 76.1053 229.293 77.5409 228.546 78.4348C227.882 79.2322 226.819 79.7265 225.358 79.9177C224.61 80.0287 222.969 80.0843 220.435 80.0843C217.747 80.0843 215.842 79.9331 214.72 79.6309C213.36 79.2668 212.416 78.5331 211.888 77.4298C211.36 76.3265 211.092 74.5642 211.085 72.1427C211.085 69.7177 211.345 67.9517 211.864 66.8447C212.383 65.7378 213.323 65.0005 214.683 64.6327C215.821 64.3141 217.734 64.1548 220.422 64.1548C222.92 64.1548 224.561 64.2103 225.344 64.3214C226.806 64.5289 227.86 65.0232 228.508 65.8043C229.274 66.7146 229.656 68.1501 229.656 70.1109H226.707C226.707 68.8037 226.439 67.8934 225.904 67.38C225.479 66.9485 224.756 66.7091 223.735 66.6618C224.433 66.6782 223.328 66.6864 220.419 66.6864C218.192 66.6864 216.78 66.7428 216.184 66.8557C215.267 67.0487 214.672 67.5129 214.399 68.2484C214.144 68.9057 214.016 70.2038 214.016 72.1427C214.016 74.0817 214.147 75.3789 214.41 76.0343C214.681 76.7626 215.276 77.2177 216.195 77.3998C216.773 77.4963 218.185 77.5445 220.43 77.5445C223.404 77.5445 225.164 77.408 225.708 77.1349C226.372 76.7981 226.704 75.7967 226.704 74.1309L229.667 74.1281Z" fill="#71757C"/>
<path d="M252.728 79.8687H247.826L237.267 72.954H235.302V79.8687H232.32V64.3652H235.302V70.4197H237.267L246.959 64.3652H252.024L240.422 71.6677L252.728 79.8687Z" fill="#71757C"/>
<path d="M274.15 79.8687H271.216V67.26L258.03 79.8687H253.999V64.3652H256.984V77.0777L270.242 64.3652H274.15V79.8687Z" fill="#71757C"/>
<path d="M297.283 79.8688H294.338V67.2356L281.152 79.8688H277.137V64.3408H280.082V77.0996L293.375 64.3408H297.283V79.8688ZM290.931 64.6767H283.23V62.1396H290.933L290.931 64.6767Z" fill="#71757C"/>
<path d="M14.3152 98.2561H10.9077V96.1123H20.2256V98.2561H16.818V107.713H14.3152V98.2561Z" fill="#71757C"/>
<path d="M21.5322 96.112H26.6609C27.2804 96.0956 27.8969 96.2032 28.4758 96.4288C28.9364 96.6138 29.352 96.899 29.6937 97.2644C30.0044 97.6067 30.2383 98.014 30.379 98.4578C30.6665 99.3529 30.6665 100.318 30.379 101.213C30.2372 101.654 30.0034 102.059 29.6937 102.399C29.3526 102.765 28.9369 103.052 28.4758 103.237C27.8969 103.462 27.2803 103.57 26.6609 103.554H24.0323V107.713H21.5322V96.112ZM25.9757 101.574C26.2527 101.575 26.5293 101.553 26.8028 101.508C27.0503 101.472 27.2885 101.386 27.5041 101.257C27.7101 101.129 27.8784 100.947 27.9913 100.73C28.1122 100.448 28.1747 100.143 28.1747 99.8356C28.1747 99.5278 28.1122 99.2232 27.9913 98.9412C27.8784 98.724 27.7101 98.5419 27.5041 98.4142C27.2884 98.2851 27.0503 98.1998 26.8028 98.1629C26.5292 98.1189 26.2526 98.097 25.9757 98.0974H24.0323V101.574H25.9757Z" fill="#71757C"/>
<path d="M35.2613 96.1123H37.8257L42.0791 107.716H39.4826L38.6207 105.141H34.3699L33.4786 107.724H30.9624L35.2613 96.1123ZM37.9702 103.229L36.5355 98.9716H36.5033L35.0231 103.229H37.9702Z" fill="#71757C"/>
<path d="M43.0664 96.1123H45.5665V100.564H50.1706V96.1123H52.6707V107.713H50.1706V102.707H45.5665V107.713H43.0664V96.1123Z" fill="#71757C"/>
<path d="M59.9597 107.973C59.1505 107.987 58.3473 107.829 57.6014 107.508C56.9348 107.217 56.3377 106.782 55.8508 106.233C55.364 105.676 54.9901 105.026 54.7507 104.321C54.491 103.561 54.3615 102.761 54.3679 101.956C54.3619 101.138 54.4913 100.325 54.7507 99.5505C54.9886 98.8332 55.3624 98.1707 55.8508 97.6006C56.3353 97.0432 56.9326 96.5997 57.6014 96.3007C58.9125 95.7486 60.3711 95.68 61.7264 96.1068C62.2708 96.2819 62.7802 96.5547 63.2307 96.9124C63.6766 97.2698 64.0479 97.7146 64.3228 98.2205C64.6171 98.7731 64.7992 99.3806 64.8582 100.007H62.4491C62.4095 99.7206 62.312 99.4463 62.1627 99.2009C62.0136 98.9567 61.8254 98.7397 61.6059 98.5592C61.379 98.3728 61.1229 98.2269 60.8484 98.1277C60.5648 98.0251 60.2659 97.9734 59.965 97.9747C59.4667 97.9589 58.9728 98.0736 58.5303 98.3079C58.1454 98.522 57.8174 98.8285 57.5747 99.2009C57.323 99.59 57.1417 100.022 57.0393 100.476C56.9275 100.96 56.8718 101.456 56.8734 101.954C56.8729 102.433 56.9295 102.911 57.042 103.377C57.1464 103.82 57.3277 104.241 57.5774 104.619C57.822 104.988 58.1497 105.291 58.533 105.504C58.9755 105.738 59.4694 105.853 59.9677 105.837C60.299 105.856 60.6304 105.801 60.9394 105.678C61.2483 105.555 61.5277 105.365 61.7585 105.122C62.2108 104.595 62.4873 103.935 62.5481 103.237H64.9572C64.9066 103.92 64.739 104.588 64.462 105.212C64.2092 105.772 63.8519 106.276 63.41 106.697C62.9676 107.113 62.4478 107.433 61.8816 107.639C61.2627 107.862 60.6104 107.972 59.9543 107.964" fill="#71757C"/>
<path d="M66.6704 96.1123H76.1328V107.713H73.6327V98.2561H69.1732V107.713H66.6704V96.1123Z" fill="#71757C"/>
<path d="M83.4272 107.973C82.618 107.987 81.8148 107.829 81.069 107.508C80.4014 107.217 79.8034 106.782 79.3157 106.233C78.8289 105.676 78.455 105.026 78.2155 104.321C77.9558 103.561 77.8263 102.761 77.8327 101.956C77.8268 101.138 77.9562 100.325 78.2155 99.5504C78.4535 98.8332 78.8273 98.1707 79.3157 97.6006C79.8009 97.0427 80.3991 96.5992 81.069 96.3006C82.5772 95.6726 84.2666 95.6726 85.7747 96.3006C86.4478 96.5977 87.0489 97.0414 87.5361 97.6006C88.0246 98.1706 88.3984 98.8331 88.6362 99.5504C88.8957 100.325 89.0251 101.138 89.019 101.956C89.0255 102.761 88.8961 103.561 88.6362 104.321C88.3969 105.026 88.023 105.676 87.5361 106.233C87.0463 106.783 86.4454 107.218 85.7747 107.508C85.0313 107.827 84.231 107.985 83.4245 107.973M83.4245 105.842C83.9219 105.858 84.4149 105.743 84.8566 105.509C85.2396 105.296 85.5672 104.993 85.8122 104.624C86.0614 104.246 86.2427 103.825 86.3476 103.382C86.459 102.916 86.5147 102.438 86.5135 101.959C86.5149 101.462 86.4592 100.966 86.3476 100.482C86.2448 100.027 86.0635 99.5956 85.8122 99.2063C85.5684 98.8338 85.2396 98.5274 84.8539 98.3133C84.4066 98.0943 83.9167 97.9807 83.4205 97.9807C82.9243 97.9807 82.4345 98.0943 81.9871 98.3133C81.6022 98.5274 81.2742 98.8339 81.0315 99.2063C80.7799 99.5954 80.5986 100.027 80.4961 100.482C80.3844 100.966 80.3287 101.462 80.3302 101.959C80.3297 102.439 80.3863 102.916 80.4988 103.382C80.6032 103.825 80.7845 104.246 81.0342 104.624C81.2788 104.993 81.6065 105.297 81.9898 105.509C82.4323 105.744 82.9262 105.858 83.4245 105.842Z" fill="#71757C"/>
<path d="M90.7241 96.112H95.8528C96.4723 96.0956 97.0888 96.2032 97.6677 96.4288C98.1283 96.6138 98.5439 96.899 98.8856 97.2644C99.1963 97.6067 99.4302 98.014 99.5709 98.4578C99.8584 99.3529 99.8584 100.318 99.5709 101.213C99.4291 101.654 99.1953 102.059 98.8856 102.399C98.5445 102.765 98.1288 103.052 97.6677 103.237C97.0888 103.462 96.4722 103.57 95.8528 103.554H93.2242V107.713H90.7241V96.112ZM95.1676 101.574C95.4446 101.575 95.7212 101.553 95.9947 101.508C96.2422 101.472 96.4804 101.386 96.696 101.257C96.902 101.129 97.0703 100.947 97.1832 100.73C97.3041 100.448 97.3666 100.143 97.3666 99.8356C97.3666 99.5278 97.3041 99.2232 97.1832 98.9412C97.0703 98.724 96.902 98.5419 96.696 98.4142C96.4803 98.2851 96.2421 98.1998 95.9947 98.1629C95.7211 98.1189 95.4445 98.097 95.1676 98.0974H93.2242V101.574H95.1676Z" fill="#71757C"/>
<path d="M103.862 98.2561H100.454V96.1123H109.772V98.2561H106.364V107.713H103.862V98.2561Z" fill="#71757C"/>
<path d="M111.078 96.1123H113.578V100.564H118.182V96.1123H120.682V107.713H118.182V102.707H113.578V107.713H111.078V96.1123Z" fill="#71757C"/>
<path d="M127.977 107.973C127.167 107.987 126.364 107.829 125.618 107.508C124.951 107.217 124.353 106.782 123.865 106.233C123.378 105.676 123.004 105.026 122.765 104.321C122.505 103.561 122.376 102.761 122.382 101.956C122.376 101.138 122.505 100.325 122.765 99.5504C123.003 98.8332 123.377 98.1707 123.865 97.6006C124.35 97.0427 124.948 96.5992 125.618 96.3006C127.126 95.6726 128.816 95.6726 130.324 96.3006C130.997 96.5977 131.598 97.0414 132.085 97.6006C132.574 98.1706 132.948 98.8331 133.186 99.5504C133.445 100.325 133.574 101.138 133.568 101.956C133.575 102.761 133.445 103.561 133.186 104.321C132.946 105.026 132.572 105.676 132.085 106.233C131.596 106.783 130.995 107.218 130.324 107.508C129.581 107.827 128.78 107.985 127.974 107.973M127.974 105.842C128.471 105.858 128.964 105.743 129.406 105.509C129.789 105.296 130.117 104.993 130.362 104.624C130.611 104.246 130.792 103.825 130.897 103.382C131.008 102.916 131.064 102.438 131.063 101.959C131.064 101.462 131.009 100.966 130.897 100.482C130.794 100.027 130.613 99.5956 130.362 99.2063C130.118 98.8342 129.791 98.5277 129.406 98.3133C128.959 98.0943 128.469 97.9807 127.973 97.9807C127.476 97.9807 126.986 98.0943 126.539 98.3133C126.154 98.5274 125.826 98.8339 125.583 99.2063C125.332 99.5954 125.151 100.027 125.048 100.482C124.936 100.966 124.881 101.462 124.882 101.959C124.882 102.439 124.938 102.916 125.051 103.382C125.155 103.825 125.337 104.246 125.586 104.624C125.831 104.993 126.159 105.297 126.542 105.509C126.984 105.744 127.478 105.858 127.977 105.842" fill="#71757C"/>
<path d="M139.813 102.287H135.019V104.269H139.813V102.287Z" fill="#71757C"/>
<path d="M141.931 107.844C141.565 107.847 141.202 107.781 140.86 107.65V105.569C140.918 105.595 140.979 105.612 141.042 105.619C141.108 105.628 141.174 105.634 141.24 105.635C141.424 105.641 141.608 105.608 141.78 105.538C141.951 105.468 142.106 105.362 142.236 105.228C142.541 104.866 142.75 104.429 142.841 103.961C143.005 103.23 143.104 102.485 143.135 101.735C143.189 100.825 143.215 99.7325 143.215 98.4581V96.1177H151.404V107.721H148.92V98.256H145.579C145.547 99.5996 145.501 100.856 145.443 102.025C145.404 103.053 145.262 104.074 145.02 105.072C144.85 105.832 144.487 106.533 143.968 107.104C143.489 107.598 142.809 107.844 141.928 107.844" fill="#71757C"/>
<path d="M158.687 107.973C157.878 107.987 157.075 107.829 156.329 107.508C155.662 107.217 155.064 106.782 154.576 106.233C154.089 105.676 153.715 105.026 153.476 104.321C153.216 103.561 153.087 102.761 153.093 101.956C153.087 101.138 153.216 100.325 153.476 99.5504C153.714 98.8332 154.088 98.1707 154.576 97.6006C155.061 97.0427 155.659 96.5992 156.329 96.3006C157.837 95.6726 159.527 95.6726 161.035 96.3006C161.708 96.5977 162.309 97.0414 162.796 97.6006C163.285 98.1706 163.659 98.8331 163.896 99.5504C164.156 100.325 164.285 101.138 164.279 101.956C164.286 102.761 164.156 103.561 163.896 104.321C163.657 105.026 163.283 105.676 162.796 106.233C162.307 106.783 161.706 107.218 161.035 107.508C160.292 107.827 159.491 107.985 158.685 107.973M158.685 105.842C159.182 105.858 159.675 105.743 160.117 105.509C160.5 105.296 160.827 104.993 161.072 104.624C161.322 104.246 161.503 103.825 161.608 103.382C161.719 102.916 161.775 102.438 161.774 101.959C161.775 101.462 161.719 100.966 161.608 100.482C161.505 100.027 161.324 99.5956 161.072 99.2063C160.829 98.8342 160.502 98.5277 160.117 98.3133C159.669 98.0943 159.18 97.9807 158.683 97.9807C158.187 97.9807 157.697 98.0943 157.25 98.3133C156.865 98.5274 156.537 98.8339 156.294 99.2063C156.043 99.5954 155.861 100.027 155.759 100.482C155.647 100.966 155.592 101.462 155.593 101.959C155.593 102.439 155.649 102.916 155.762 103.382C155.866 103.825 156.047 104.246 156.297 104.624C156.542 104.993 156.869 105.297 157.253 105.509C157.695 105.744 158.189 105.858 158.687 105.842" fill="#71757C"/>
<path d="M166.062 96.1123H173.961V98.2561H168.562V107.713H166.062V96.1123Z" fill="#71757C"/>
<path d="M175.125 96.1123H177.61V104.155H177.658L181.989 96.1123H184.794V107.713H182.307V99.6543H182.259L177.928 107.713H175.125V96.1123Z" fill="#71757C"/>
<path d="M192.088 107.973C191.279 107.987 190.475 107.829 189.73 107.508C189.062 107.217 188.464 106.782 187.976 106.233C187.49 105.676 187.116 105.026 186.876 104.321C186.616 103.561 186.487 102.761 186.493 101.956C186.487 101.138 186.617 100.325 186.876 99.5505C187.114 98.8333 187.488 98.1708 187.976 97.6006C188.462 97.0429 189.06 96.5993 189.73 96.3007C191.041 95.7486 192.499 95.68 193.855 96.1068C194.399 96.2819 194.908 96.5547 195.359 96.9124C195.805 97.2698 196.176 97.7146 196.451 98.2205C196.745 98.7731 196.927 99.3806 196.986 100.007H194.577C194.538 99.7206 194.44 99.4463 194.291 99.2009C194.142 98.9567 193.954 98.7397 193.734 98.5592C193.507 98.3728 193.251 98.2269 192.977 98.1277C192.693 98.0251 192.394 97.9734 192.093 97.9747C191.595 97.9589 191.101 98.0736 190.658 98.3079C190.274 98.522 189.946 98.8285 189.703 99.2009C189.451 99.59 189.27 100.022 189.167 100.476C189.056 100.96 189 101.456 189.002 101.954C189.001 102.433 189.058 102.911 189.17 103.377C189.275 103.82 189.456 104.241 189.706 104.619C189.95 104.988 190.278 105.291 190.661 105.504C191.104 105.738 191.598 105.853 192.096 105.837C192.424 105.857 192.753 105.805 193.061 105.685C193.368 105.565 193.647 105.379 193.879 105.141C194.331 104.614 194.607 103.954 194.668 103.256H197.077C197.027 103.939 196.859 104.607 196.582 105.231C196.329 105.791 195.972 106.296 195.53 106.716C195.088 107.132 194.568 107.452 194.002 107.659C193.383 107.881 192.731 107.991 192.074 107.984" fill="#71757C"/>
<path d="M201.309 98.2561H197.902V96.1123H207.22V98.2561H203.81V107.713H201.309V98.2561Z" fill="#71757C"/>
<path d="M208.526 96.1123H211.01V104.155H211.059L215.39 96.1123H218.195V107.713H215.708V99.6543H215.66L211.329 107.713H208.526V96.1123Z" fill="#71757C"/>
<path d="M226.509 103.311C226.232 103.377 225.898 103.447 225.505 103.521C225.101 103.599 224.69 103.637 224.279 103.636C223.662 103.645 223.047 103.574 222.448 103.426C221.955 103.305 221.497 103.069 221.11 102.735C220.739 102.395 220.46 101.963 220.299 101.481C220.102 100.871 220.011 100.231 220.031 99.5888V96.1123H222.515V99.6215C222.515 100.326 222.709 100.82 223.096 101.102C223.541 101.401 224.068 101.549 224.6 101.525C224.979 101.527 225.357 101.494 225.73 101.427C226.08 101.361 226.345 101.309 226.533 101.263V96.1123H229.033V107.716H226.509V103.311Z" fill="#71757C"/>
<path d="M231.223 96.1123H239.729V98.2561H233.723V100.741H239.234V102.724H233.723V105.569H239.855V107.713H231.223V96.1123Z" fill="#71757C"/>
<path d="M246.641 107.973C245.831 107.987 245.028 107.829 244.282 107.508C243.615 107.217 243.017 106.782 242.529 106.233C242.042 105.676 241.668 105.026 241.429 104.321C241.169 103.561 241.04 102.761 241.046 101.956C241.04 101.138 241.17 100.325 241.429 99.5505C241.667 98.8333 242.041 98.1708 242.529 97.6006C243.014 97.0429 243.613 96.5993 244.282 96.3007C245.593 95.7486 247.052 95.68 248.407 96.1068C248.952 96.2819 249.461 96.5547 249.912 96.9124C250.357 97.2699 250.729 97.7147 251.004 98.2205C251.298 98.7732 251.48 99.3806 251.539 100.007H249.13C249.09 99.7206 248.993 99.4463 248.844 99.2009C248.695 98.9566 248.506 98.7397 248.287 98.5592C248.06 98.3728 247.804 98.2269 247.529 98.1277C247.246 98.0251 246.947 97.9734 246.646 97.9747C246.148 97.9589 245.654 98.0736 245.211 98.3079C244.826 98.522 244.498 98.8285 244.256 99.2009C244.004 99.59 243.823 100.022 243.72 100.476C243.607 100.96 243.551 101.456 243.552 101.954C243.551 102.433 243.608 102.911 243.72 103.377C243.825 103.82 244.006 104.241 244.256 104.619C244.5 104.988 244.828 105.291 245.211 105.504C245.654 105.738 246.148 105.853 246.646 105.837C246.977 105.856 247.309 105.801 247.618 105.678C247.927 105.555 248.206 105.365 248.437 105.122C248.889 104.595 249.166 103.935 249.226 103.237H251.635C251.585 103.92 251.417 104.588 251.14 105.212C250.887 105.772 250.53 106.276 250.088 106.697C249.646 107.113 249.126 107.433 248.56 107.639C247.941 107.862 247.289 107.972 246.633 107.964" fill="#9099A6"/>
<path d="M253.346 96.1123H255.849V100.758L260.292 96.1123H263.414L258.507 100.971L263.844 107.713H260.707L256.692 102.563L255.849 103.489V107.713H253.346V96.1123Z" fill="#9099A6"/>
<path d="M264.846 96.1123H267.332V104.155H267.378L271.712 96.1123H274.514V107.713H272.03V99.6543H271.982L267.651 107.713H264.846V96.1123Z" fill="#9099A6"/>
<path d="M276.714 96.1119H279.188V104.157H279.236L283.57 96.1119H286.372V107.716H283.888V99.6539H283.84L279.506 107.713H276.704L276.714 96.1119ZM281.698 95.1206C279.65 95.1206 278.626 94.2867 278.626 92.619H280.473C280.473 92.9175 280.574 93.2068 280.759 93.4383C280.883 93.5589 281.031 93.6505 281.194 93.7067C281.356 93.7628 281.528 93.7821 281.698 93.7633C281.871 93.7806 282.044 93.7614 282.209 93.7069C282.373 93.6524 282.525 93.5637 282.654 93.4465C282.751 93.3325 282.825 93.1998 282.871 93.0563C282.917 92.9128 282.934 92.7613 282.922 92.6108H284.769C284.769 94.2803 283.744 95.1142 281.696 95.1124" fill="#9099A6"/>
<path d="M301.466 107.713H293.008V96.1123H295.508V105.569H299.967V96.1123H302.468V105.569H303.726V110.362H301.466V107.713Z" fill="#9099A6"/>
<path d="M304.986 96.1123H313.49V98.2561H307.486V100.741H312.998V102.724H307.486V105.569H313.619V107.713H304.986V96.1123Z" fill="#9099A6"/>
<path d="M315.306 96.1123H317.808V100.564H322.41V96.1123H324.913V107.713H322.41V102.707H317.808V107.713H315.306V96.1123Z" fill="#9099A6"/>
<path d="M329.626 98.2561H326.216V96.1123H335.536V98.2561H332.126V107.713H329.626V98.2561Z" fill="#9099A6"/>
<path d="M336.84 96.112H341.969C342.588 96.0956 343.205 96.2032 343.783 96.4288C344.244 96.6138 344.66 96.899 345.001 97.2644C345.312 97.6067 345.546 98.014 345.687 98.4578C345.974 99.3529 345.974 100.318 345.687 101.213C345.545 101.654 345.311 102.059 345.001 102.399C344.66 102.765 344.245 103.052 343.783 103.237C343.205 103.462 342.588 103.57 341.969 103.554H339.34V107.713H336.84V96.112ZM341.283 101.574C341.56 101.575 341.837 101.553 342.11 101.508C342.358 101.472 342.596 101.386 342.812 101.257C343.018 101.129 343.186 100.947 343.299 100.73C343.42 100.448 343.483 100.143 343.483 99.8356C343.483 99.5277 343.42 99.2232 343.299 98.9412C343.186 98.724 343.018 98.5419 342.812 98.4142C342.596 98.2851 342.358 98.1998 342.11 98.1629C341.837 98.1189 341.56 98.097 341.283 98.0974H339.34V101.574H341.283Z" fill="#9099A6"/>
</g>
<defs>
<clipPath id="clip0_3214_21635">
<rect width="346" height="110.362" fill="white"/>
</clipPath>
</defs>
</svg>
