<svg width="266" height="85" viewBox="0 0 266 85" fill="none" xmlns="http://www.w3.org/2000/svg">
<g clip-path="url(#clip0_1195_23639)">
<path d="M21.848 40.4239C25.4849 40.4239 29.1205 40.4239 32.7547 40.4239C33.6641 40.4094 34.553 40.7003 35.2847 41.2519C36.0164 41.8036 36.5504 42.5853 36.8046 43.477C36.9162 43.8953 36.9709 44.3273 36.9672 44.7608C36.9672 51.592 36.9507 58.4189 36.9877 65.2563C36.9938 65.8298 36.8875 66.3986 36.675 66.9295C36.4625 67.4603 36.1482 67.9424 35.7505 68.3473C35.3528 68.7522 34.8797 69.0718 34.3592 69.2872C33.8387 69.5027 33.2813 69.6096 32.7197 69.6017C25.4486 69.6157 18.1774 69.6157 10.9063 69.6017C8.09938 69.6017 6.63624 67.2399 6.64859 65.2437C6.68974 58.4259 6.68974 51.6081 6.64859 44.7902C6.64387 44.2138 6.75197 43.6422 6.96652 43.1091C7.18107 42.5759 7.49776 42.0918 7.898 41.6853C8.29824 41.2788 8.77398 40.958 9.29728 40.7417C9.82059 40.5254 10.3809 40.4181 10.9454 40.426H21.8521" fill="white"/>
<path d="M2.65536 59.589C2.01972 58.8765 1.66109 57.9513 1.64701 56.9877C1.63329 50.0115 1.63329 43.0347 1.64701 36.0572C1.64701 35.1074 1.9989 34.2606 2.65742 33.4517L2.65536 59.589Z" fill="white"/>
<path d="M5.82366 39.5034V65.5987C5.32005 65.0381 4.99249 64.3362 4.88321 63.5837C4.82677 63.1822 4.80131 62.7768 4.80707 62.3712C4.80707 55.7565 4.80707 49.1418 4.80707 42.5271C4.77134 41.4251 5.13807 40.3489 5.83601 39.5076" fill="white"/>
<path d="M1.05097 30.4346V56.5509C0.542259 55.9592 0.213326 55.2291 0.104347 54.4497C0.0727247 54.1756 0.0596605 53.8997 0.0652475 53.6239C0.0652475 46.8817 0.0652475 40.1388 0.0652475 33.3952C0.0346377 32.5219 0.260376 31.6592 0.713476 30.9179C0.801964 30.7792 0.904857 30.6489 1.05714 30.4388" fill="white"/>
<path d="M4.19884 62.571C3.62058 61.8166 3.29132 61.0644 3.25634 60.205C3.22547 59.438 3.24399 58.6669 3.24193 57.8936C3.24193 51.73 3.24193 45.5663 3.24193 39.4027C3.21915 38.3525 3.56022 37.3278 4.20502 36.5093L4.19884 62.571Z" fill="white"/>
<path d="M21.845 9.96011C25.482 9.96011 29.1175 9.96011 32.7517 9.96011C33.7119 9.93579 34.6508 10.2505 35.41 10.8512C36.1692 11.4518 36.7022 12.3016 36.9189 13.257C37.0039 13.6224 37.0454 13.9971 37.0424 14.3727C37.0506 21.1611 37.0506 27.9488 37.0424 34.7359C37.0424 37.3078 35.2335 39.2094 32.7209 39.2157C25.4497 39.2325 18.1786 39.2325 10.9075 39.2157C8.40303 39.2157 6.58594 37.3246 6.58594 34.7716C6.58594 27.9706 6.58594 21.1688 6.58594 14.3664C6.58594 12.2463 7.84741 10.5989 9.84148 10.0862C10.2146 9.99872 10.5967 9.95779 10.9795 9.96431C14.6013 9.95591 18.2239 9.95591 21.8471 9.96431" fill="white"/>
<path d="M266 67.082H70.293V68.7168H266V67.082Z" fill="white"/>
<path d="M1.10717 26.2844C0.594021 25.7434 0.24462 25.0627 0.100874 24.324C0.0324947 23.9838 -0.00129637 23.6374 3.80234e-05 23.2902C3.80234e-05 16.4485 3.80234e-05 9.60197 3.80234e-05 2.75053C0.00335972 1.88961 0.265555 1.0505 0.75116 0.346705C0.813913 0.251881 0.882654 0.161335 0.956947 0.0756447C1.00315 0.0430931 1.05376 0.017609 1.10717 0V26.2844Z" fill="white"/>
<path d="M4.27457 32.3127C3.72834 31.7368 3.36907 31.0031 3.24563 30.2114C3.191 29.8387 3.16691 29.462 3.17361 29.0852C3.17361 22.399 3.17361 15.7129 3.17361 9.02671C3.14781 8.09371 3.41063 7.17613 3.92473 6.40436C4.01116 6.27618 4.11405 6.15851 4.27663 5.94629L4.27457 32.3127Z" fill="white"/>
<path d="M2.68722 2.95459V29.2853C2.19832 28.7807 1.86186 28.1432 1.71796 27.4488C1.63973 27.0519 1.60385 26.6475 1.61096 26.2427C1.61096 19.5019 1.60753 12.7604 1.60067 6.0182C1.56504 5.04242 1.84649 4.08201 2.40118 3.28659C2.46497 3.19623 2.54523 3.11849 2.68928 2.95459" fill="white"/>
<path d="M5.83654 35.3196C5.16979 34.5379 4.78497 33.7016 4.78291 32.7561C4.76507 25.7057 4.76507 18.6547 4.78291 11.6029C4.78291 10.651 5.15127 9.80213 5.83654 9.01416V35.3196Z" fill="white"/>
<path d="M53.5982 40.3921C57.2351 40.3921 60.8707 40.3921 64.5049 40.3921C65.4143 40.3777 66.3032 40.6686 67.0349 41.2202C67.7666 41.7718 68.3006 42.5535 68.5548 43.4452C68.6664 43.8635 68.7211 44.2955 68.7174 44.7291C68.7174 51.5602 68.7009 58.3872 68.7379 65.2246C68.7438 65.7982 68.6371 66.3672 68.4242 66.8981C68.2114 67.429 67.8966 67.911 67.4985 68.3157C67.1004 68.7205 66.627 69.0398 66.1061 69.2548C65.5853 69.4699 65.0276 69.5763 64.4658 69.5679C57.1947 69.5819 49.9235 69.5819 42.6524 69.5679C39.8455 69.5679 38.3823 67.2061 38.3947 65.2099C38.4358 58.3921 38.4358 51.5742 38.3947 44.7564C38.39 44.18 38.4981 43.6084 38.7126 43.0752C38.9272 42.542 39.2438 42.058 39.6441 41.6514C40.0443 41.2449 40.5201 40.9241 41.0434 40.7079C41.5667 40.4916 42.127 40.3843 42.6915 40.3921H53.5982Z" fill="white"/>
<path d="M91.2481 57.8597C91.2481 60.192 90.807 61.8807 89.9249 62.9258C89.169 63.8265 87.9562 64.3735 86.2866 64.5668C85.6253 64.6467 83.822 64.6866 80.8765 64.6866C77.7897 64.6866 75.6317 64.5094 74.4024 64.155C72.8741 63.7207 71.8267 62.8284 71.2601 61.478C70.6935 60.1752 70.4102 58.0201 70.4102 55.0125C70.4102 52.0049 70.6935 49.8336 71.2601 48.4986C71.8267 47.1636 72.8741 46.2713 74.4024 45.8217C75.6467 45.4686 77.8048 45.2914 80.8765 45.29C83.8535 45.29 85.6569 45.3307 86.2866 45.4119C87.9562 45.6052 89.169 46.1438 89.9249 47.0278C90.807 48.0742 91.2481 49.7713 91.2481 52.1191H88.4865C88.4865 50.0557 88.0612 48.8159 87.2106 48.3999C86.5013 48.0329 84.3906 47.8487 80.8785 47.8473C78.2637 47.8473 76.5707 47.9355 75.7997 48.112C74.7022 48.3684 73.9778 48.9854 73.6266 49.9632C73.3275 50.8443 73.178 52.5253 73.178 55.0062C73.178 57.459 73.3358 59.126 73.6513 60.0071C73.997 60.9877 74.7296 61.6048 75.8491 61.8583C76.605 62.0348 78.2822 62.1231 80.8806 62.1231C84.3611 62.1231 86.4636 61.9473 87.1879 61.5957C88.0536 61.1642 88.4872 59.9168 88.4885 57.8534L91.2481 57.8597Z" fill="white"/>
<path d="M110.484 61.4532H108.228V51.7517L98.0913 61.4532H94.9922V49.5244H97.2867V59.3057L107.479 49.5244H110.484V61.4532Z" fill="white"/>
<path d="M126.937 57.9C126.937 60.2688 125.584 61.4532 122.878 61.4532H112.719V49.5244H125.661V51.4807H115.013V54.3531H122.883C125.584 54.3531 126.935 55.5375 126.935 57.9063M124.64 57.9063C124.64 56.8444 124.047 56.3135 122.862 56.3135H115.013V59.5158H122.843C124.041 59.5158 124.64 58.9786 124.64 57.9042" fill="white"/>
<path d="M144.388 61.4532H142.133V51.7517L131.996 61.4532H128.898V49.5244H131.191V59.3057L141.384 49.5244H144.388V61.4532Z" fill="white"/>
<path d="M160.445 53.4096C160.445 54.6003 160.138 55.5333 159.523 56.2085C158.869 56.9201 157.921 57.2759 156.679 57.2759H148.783V61.4553H146.52V49.5244H156.737C157.978 49.5244 158.92 49.8865 159.56 50.6108C160.149 51.286 160.443 52.2189 160.443 53.4096M158.149 53.4096C158.149 52.1208 157.646 51.4765 156.642 51.4765H148.783V55.3238H156.665C157.657 55.3238 158.153 54.6858 158.153 53.4096" fill="white"/>
<path d="M176.567 57.036C176.567 58.5573 176.28 59.6619 175.705 60.3497C175.194 60.9633 174.377 61.3436 173.254 61.4907C172.679 61.5761 171.417 61.6188 169.469 61.6188C167.403 61.6188 165.939 61.5026 165.076 61.27C164.03 60.9899 163.305 60.4253 162.899 59.5764C162.493 58.7275 162.287 57.3715 162.281 55.5084C162.281 53.6425 162.481 52.2837 162.88 51.432C163.279 50.5803 164.002 50.013 165.047 49.73C165.922 49.4849 167.393 49.3623 169.459 49.3623C171.38 49.3623 172.641 49.405 173.244 49.4905C174.367 49.6502 175.178 50.0305 175.676 50.6315C176.264 51.3319 176.559 52.4364 176.559 53.9451H174.291C174.291 52.9393 174.085 52.2389 173.674 51.8439C173.347 51.5119 172.791 51.3277 172.007 51.2912C172.543 51.3039 171.693 51.3102 169.457 51.3102C167.745 51.3102 166.66 51.3536 166.201 51.4404C165.496 51.5889 165.039 51.9461 164.829 52.5121C164.633 53.0178 164.535 54.0166 164.535 55.5084C164.535 57.0003 164.635 57.9984 164.837 58.5027C165.046 59.063 165.503 59.4132 166.21 59.5533C166.654 59.6276 167.739 59.6647 169.465 59.6647C171.752 59.6647 173.105 59.5596 173.523 59.3495C174.034 59.0904 174.289 58.3199 174.289 57.0381L176.567 57.036Z" fill="white"/>
<path d="M194.295 61.4532H190.527L182.408 56.1328H180.898V61.4532H178.605V49.5244H180.898V54.1829H182.408L189.86 49.5244H193.753L184.835 55.1431L194.295 61.4532Z" fill="white"/>
<path d="M210.761 61.4532H208.506V51.7517L198.369 61.4532H195.27V49.5244H197.564V59.3057L207.757 49.5244H210.761V61.4532Z" fill="white"/>
<path d="M228.546 61.4528H226.282V51.7324L216.145 61.4528H213.059V49.5051H215.322V59.3221L225.542 49.5051H228.546V61.4528ZM223.663 49.7636H217.742V47.8115H223.665L223.663 49.7636Z" fill="white"/>
<path d="M11.0064 75.6006H8.38672V73.9512H15.5502V75.6006H12.9305V82.8773H11.0064V75.6006Z" fill="white"/>
<path d="M16.5547 73.951H20.4976C20.9738 73.9383 21.4478 74.0211 21.8928 74.1947C22.2469 74.3371 22.5664 74.5565 22.8291 74.8377C23.068 75.101 23.2478 75.4144 23.3559 75.7559C23.577 76.4446 23.577 77.1874 23.3559 77.8761C23.2469 78.2154 23.0672 78.5265 22.8291 78.788C22.5669 79.0703 22.2473 79.2905 21.8928 79.4331C21.4478 79.6066 20.9738 79.6894 20.4976 79.6768H18.4767V82.877H16.5547V73.951ZM19.9707 78.1534C20.1837 78.1541 20.3963 78.1372 20.6066 78.103C20.7969 78.0749 20.9801 78.0093 21.1458 77.9097C21.3041 77.8114 21.4335 77.6713 21.5203 77.5042C21.6133 77.2872 21.6613 77.0529 21.6613 76.816C21.6613 76.5791 21.6133 76.3448 21.5203 76.1278C21.4335 75.9607 21.3041 75.8206 21.1458 75.7223C20.9799 75.623 20.7969 75.5574 20.6066 75.529C20.3963 75.4951 20.1837 75.4783 19.9707 75.4786H18.4767V78.1534H19.9707Z" fill="white"/>
<path d="M27.1096 73.9512H29.0811L32.351 82.8793H30.3549L29.6922 80.8979H26.4244L25.7391 82.8857H23.8047L27.1096 73.9512ZM29.1922 79.427L28.0892 76.1512H28.0645L26.9265 79.427H29.1922Z" fill="white"/>
<path d="M33.1094 73.9512H35.0314V77.3762H38.571V73.9512H40.493V82.8773H38.571V79.0257H35.0314V82.8773H33.1094V73.9512Z" fill="white"/>
<path d="M46.0959 83.0767C45.4738 83.0878 44.8563 82.9662 44.283 82.7195C43.7705 82.495 43.3114 82.1603 42.9371 81.7382C42.5628 81.3097 42.2754 80.8098 42.0913 80.2673C41.8917 79.6825 41.7921 79.067 41.797 78.4477C41.7924 77.8181 41.8919 77.1922 42.0913 76.5965C42.2742 76.0446 42.5616 75.5348 42.9371 75.0962C43.3096 74.6673 43.7687 74.326 44.283 74.096C45.2908 73.6712 46.4122 73.6184 47.4541 73.9468C47.8727 74.0815 48.2643 74.2914 48.6106 74.5667C48.9534 74.8417 49.2389 75.1839 49.4503 75.5732C49.6765 75.9983 49.8165 76.4657 49.8618 76.9474H48.0098C47.9793 76.7274 47.9043 76.5163 47.7896 76.3275C47.675 76.1396 47.5303 75.9727 47.3615 75.8337C47.1871 75.6903 46.9902 75.5781 46.7791 75.5017C46.5611 75.4228 46.3314 75.383 46.1001 75.384C45.717 75.3719 45.3372 75.4601 44.997 75.6404C44.7011 75.8051 44.449 76.0409 44.2624 76.3275C44.0689 76.6269 43.9295 76.9592 43.8508 77.3088C43.7649 77.6813 43.722 78.0628 43.7232 78.4456C43.7229 78.8145 43.7664 79.1821 43.8529 79.5403C43.9331 79.8815 44.0725 80.2053 44.2644 80.4964C44.4525 80.78 44.7044 81.0134 44.9991 81.1772C45.3393 81.3574 45.719 81.4457 46.1021 81.4335C46.3568 81.4478 46.6116 81.4061 46.8491 81.3111C47.0866 81.2161 47.3014 81.0701 47.4788 80.883C47.8265 80.4776 48.0391 79.9699 48.0859 79.4331H49.938C49.8991 79.9584 49.7702 80.4726 49.5573 80.9523C49.3629 81.3834 49.0882 81.7716 48.7485 82.0954C48.4084 82.415 48.0088 82.6615 47.5735 82.8203C47.0977 82.9913 46.5962 83.076 46.0918 83.0704" fill="white"/>
<path d="M51.2539 73.9512H58.5285V82.8773H56.6064V75.6006H53.178V82.8773H51.2539V73.9512Z" fill="white"/>
<path d="M64.1371 83.077C63.515 83.0881 62.8975 82.9664 62.3241 82.7198C61.8109 82.4955 61.3511 82.1608 60.9762 81.7385C60.6019 81.31 60.3145 80.8101 60.1304 80.2677C59.9307 79.6829 59.8312 79.0673 59.8361 78.448C59.8315 77.8184 59.931 77.1926 60.1304 76.5968C60.3133 76.0449 60.6007 75.5352 60.9762 75.0965C61.3492 74.6673 61.8091 74.326 62.3241 74.0963C63.4836 73.6131 64.7823 73.6131 65.9418 74.0963C66.4592 74.3249 66.9214 74.6663 67.2959 75.0965C67.6714 75.5351 67.9588 76.0449 68.1417 76.5968C68.3412 77.1925 68.4407 77.8184 68.4359 78.448C68.441 79.0673 68.3414 79.6829 68.1417 80.2677C67.9577 80.8102 67.6702 81.3101 67.2959 81.7385C66.9194 82.1618 66.4574 82.4966 65.9418 82.7198C65.3702 82.9652 64.755 83.0868 64.135 83.077M64.135 81.4381C64.5174 81.4498 64.8964 81.3615 65.236 81.1817C65.5304 81.0177 65.7823 80.7843 65.9706 80.5009C66.1622 80.2096 66.3016 79.8859 66.3822 79.5448C66.4679 79.1865 66.5107 78.8189 66.5098 78.4501C66.5108 78.0674 66.468 77.6859 66.3822 77.3133C66.3032 76.9638 66.1638 76.6316 65.9706 76.332C65.7832 76.0454 65.5304 75.8096 65.2339 75.6449C64.89 75.4764 64.5134 75.389 64.1319 75.389C63.7505 75.389 63.3739 75.4764 63.0299 75.6449C62.734 75.8096 62.4819 76.0455 62.2953 76.332C62.1018 76.6314 61.9624 76.9638 61.8837 77.3133C61.7978 77.6858 61.7549 78.0674 61.7561 78.4501C61.7557 78.819 61.7993 79.1866 61.8858 79.5448C61.966 79.886 62.1054 80.2098 62.2973 80.5009C62.4854 80.7845 62.7373 81.018 63.032 81.1817C63.3722 81.362 63.7519 81.4502 64.135 81.4381Z" fill="white"/>
<path d="M69.7461 73.951H73.689C74.1652 73.9383 74.6392 74.0211 75.0842 74.1947C75.4383 74.3371 75.7578 74.5565 76.0205 74.8377C76.2594 75.101 76.4392 75.4144 76.5473 75.7559C76.7684 76.4446 76.7684 77.1874 76.5473 77.8761C76.4383 78.2154 76.2586 78.5265 76.0205 78.788C75.7583 79.0703 75.4387 79.2905 75.0842 79.4331C74.6392 79.6066 74.1652 79.6894 73.689 79.6768H71.6681V82.877H69.7461V73.951ZM73.1622 78.1534C73.3751 78.1541 73.5877 78.1372 73.798 78.103C73.9883 78.0749 74.1715 78.0093 74.3372 77.9097C74.4955 77.8114 74.6249 77.6713 74.7117 77.5042C74.8047 77.2872 74.8527 77.0529 74.8527 76.816C74.8527 76.5791 74.8047 76.3448 74.7117 76.1278C74.6249 75.9607 74.4955 75.8206 74.3372 75.7223C74.1714 75.623 73.9883 75.5574 73.798 75.529C73.5877 75.4951 73.3751 75.4783 73.1622 75.4786H71.6681V78.1534H73.1622Z" fill="white"/>
<path d="M79.8462 75.6006H77.2266V73.9512H84.39V75.6006H81.7703V82.8773H79.8462V75.6006Z" fill="white"/>
<path d="M85.3945 73.9512H87.3166V77.3762H90.8561V73.9512H92.7782V82.8773H90.8561V79.0257H87.3166V82.8773H85.3945V73.9512Z" fill="white"/>
<path d="M98.3871 83.077C97.765 83.0881 97.1475 82.9664 96.5741 82.7198C96.0609 82.4955 95.6011 82.1608 95.2262 81.7385C94.8519 81.31 94.5645 80.8101 94.3804 80.2677C94.1807 79.6829 94.0812 79.0673 94.0861 78.448C94.0815 77.8184 94.181 77.1926 94.3804 76.5968C94.5633 76.0449 94.8507 75.5352 95.2262 75.0965C95.5992 74.6673 96.0591 74.326 96.5741 74.0963C97.7336 73.6131 99.0323 73.6131 100.192 74.0963C100.709 74.3249 101.171 74.6663 101.546 75.0965C101.921 75.5351 102.209 76.0449 102.392 76.5968C102.591 77.1925 102.691 77.8184 102.686 78.448C102.691 79.0673 102.591 79.6829 102.392 80.2677C102.208 80.8102 101.92 81.3101 101.546 81.7385C101.169 82.1618 100.707 82.4966 100.192 82.7198C99.6202 82.9652 99.005 83.0868 98.385 83.077M98.385 81.4381C98.7674 81.4498 99.1464 81.3615 99.486 81.1817C99.7804 81.0177 100.032 80.7843 100.221 80.5009C100.412 80.2096 100.552 79.8859 100.632 79.5448C100.718 79.1865 100.761 78.8189 100.76 78.4501C100.761 78.0674 100.718 77.6859 100.632 77.3133C100.553 76.9638 100.414 76.6316 100.221 76.332C100.034 76.0457 99.7817 75.8099 99.486 75.6449C99.142 75.4764 98.7654 75.389 98.384 75.389C98.0025 75.389 97.6259 75.4764 97.282 75.6449C96.9861 75.8096 96.7339 76.0455 96.5473 76.332C96.3539 76.6314 96.2145 76.9638 96.1357 77.3133C96.0498 77.6858 96.007 78.0674 96.0082 78.4501C96.0078 78.819 96.0513 79.1866 96.1378 79.5448C96.2181 79.886 96.3574 80.2098 96.5494 80.5009C96.7375 80.7845 96.9894 81.018 97.284 81.1817C97.6242 81.362 98.004 81.4502 98.3871 81.4381" fill="white"/>
<path d="M107.486 78.7021H103.801V80.2277H107.486V78.7021Z" fill="white"/>
<path d="M109.116 82.9778C108.835 82.9799 108.556 82.9294 108.293 82.8286V81.2275C108.337 81.2475 108.385 81.2602 108.433 81.2653C108.483 81.2728 108.534 81.277 108.585 81.2779C108.727 81.2824 108.868 81.257 109 81.2031C109.132 81.1492 109.251 81.0681 109.351 80.9648C109.586 80.6862 109.746 80.3504 109.816 79.9898C109.942 79.4273 110.018 78.854 110.042 78.2773C110.083 77.5769 110.104 76.7364 110.104 75.7558V73.9551H116.399V82.8833H114.489V75.6004H111.921C111.896 76.6342 111.861 77.6007 111.816 78.5001C111.787 79.291 111.678 80.0768 111.491 80.8451C111.361 81.4297 111.082 81.969 110.682 82.4084C110.314 82.788 109.792 82.9778 109.114 82.9778" fill="white"/>
<path d="M121.996 83.077C121.374 83.0881 120.757 82.9664 120.183 82.7198C119.67 82.4955 119.211 82.1608 118.836 81.7385C118.461 81.31 118.174 80.8101 117.99 80.2677C117.79 79.6829 117.691 79.0673 117.695 78.448C117.691 77.8184 117.79 77.1926 117.99 76.5968C118.173 76.0449 118.46 75.5352 118.836 75.0965C119.209 74.6673 119.668 74.326 120.183 74.0963C121.343 73.6131 122.642 73.6131 123.801 74.0963C124.319 74.3249 124.781 74.6663 125.155 75.0965C125.531 75.5351 125.818 76.0449 126.001 76.5968C126.201 77.1925 126.3 77.8184 126.295 78.448C126.3 79.0673 126.201 79.6829 126.001 80.2677C125.817 80.8102 125.53 81.3101 125.155 81.7385C124.779 82.1618 124.317 82.4966 123.801 82.7198C123.23 82.9652 122.614 83.0868 121.994 83.077M121.994 81.4381C122.377 81.4498 122.756 81.3615 123.095 81.1817C123.39 81.0177 123.642 80.7843 123.83 80.5009C124.022 80.2096 124.161 79.8859 124.242 79.5448C124.327 79.1865 124.37 78.8189 124.369 78.4501C124.37 78.0674 124.327 77.6859 124.242 77.3133C124.163 76.9638 124.023 76.6316 123.83 76.332C123.643 76.0457 123.391 75.8099 123.095 75.6449C122.751 75.4764 122.375 75.389 121.993 75.389C121.612 75.389 121.235 75.4764 120.891 75.6449C120.595 75.8096 120.343 76.0455 120.157 76.332C119.963 76.6314 119.824 76.9638 119.745 77.3133C119.659 77.6858 119.616 78.0674 119.618 78.4501C119.617 78.819 119.661 79.1866 119.747 79.5448C119.827 79.886 119.967 80.2098 120.159 80.5009C120.347 80.7845 120.599 81.018 120.893 81.1817C121.234 81.362 121.613 81.4502 121.996 81.4381" fill="white"/>
<path d="M127.664 73.9512H133.737V75.6006H129.586V82.8773H127.664V73.9512Z" fill="white"/>
<path d="M134.633 73.9512H136.543V80.1393H136.58L139.909 73.9512H142.066V82.8773H140.154V76.6765H140.117L136.787 82.8773H134.633V73.9512Z" fill="white"/>
<path d="M147.676 83.0767C147.054 83.0878 146.437 82.9662 145.863 82.7195C145.35 82.4952 144.89 82.1605 144.515 81.7382C144.141 81.3097 143.854 80.8098 143.669 80.2673C143.47 79.6825 143.37 79.067 143.375 78.4477C143.371 77.8181 143.47 77.1922 143.669 76.5965C143.852 76.0446 144.14 75.5349 144.515 75.0962C144.888 74.667 145.348 74.3258 145.863 74.096C146.871 73.6712 147.992 73.6184 149.034 73.9468C149.453 74.0815 149.845 74.2914 150.191 74.5667C150.534 74.8417 150.819 75.1839 151.03 75.5732C151.257 75.9983 151.397 76.4657 151.442 76.9474H149.59C149.56 76.7274 149.485 76.5163 149.37 76.3275C149.255 76.1396 149.11 75.9727 148.942 75.8337C148.767 75.6903 148.57 75.5781 148.359 75.5017C148.141 75.4228 147.912 75.383 147.68 75.384C147.297 75.3719 146.917 75.4601 146.577 75.6404C146.281 75.8051 146.029 76.0409 145.843 76.3275C145.649 76.6269 145.51 76.9592 145.431 77.3088C145.345 77.6813 145.302 78.0628 145.303 78.4456C145.303 78.8145 145.347 79.1821 145.433 79.5403C145.513 79.8815 145.653 80.2053 145.845 80.4964C146.033 80.78 146.285 81.0134 146.579 81.1772C146.919 81.3574 147.299 81.4457 147.682 81.4335C147.935 81.4488 148.188 81.4089 148.424 81.3165C148.66 81.2241 148.875 81.0814 149.053 80.8977C149.401 80.4923 149.613 79.9846 149.66 79.4478H151.512C151.473 79.9731 151.344 80.4873 151.131 80.967C150.937 81.3981 150.662 81.7863 150.323 82.1101C149.982 82.4297 149.583 82.6762 149.148 82.835C148.672 83.0061 148.17 83.0907 147.666 83.0851" fill="white"/>
<path d="M154.764 75.6006H152.145V73.9512H159.308V75.6006H156.686V82.8773H154.764V75.6006Z" fill="white"/>
<path d="M160.312 73.9512H162.222V80.1393H162.259L165.589 73.9512H167.746V82.8773H165.834V76.6765H165.797L162.467 82.8773H160.312V73.9512Z" fill="white"/>
<path d="M174.138 79.49C173.926 79.5405 173.668 79.5944 173.367 79.6518C173.056 79.7113 172.74 79.7408 172.424 79.7401C171.95 79.7469 171.477 79.6926 171.017 79.5783C170.638 79.4855 170.285 79.3035 169.988 79.0467C169.702 78.7849 169.488 78.4528 169.364 78.0822C169.213 77.6128 169.143 77.12 169.158 76.6261V73.9512H171.068V76.6513C171.068 77.1934 171.217 77.573 171.515 77.7901C171.857 78.0202 172.262 78.1341 172.671 78.1158C172.962 78.1171 173.253 78.0918 173.539 78.0402C173.809 77.9898 174.013 77.9498 174.157 77.9141V73.9512H176.079V82.8793H174.138V79.49Z" fill="white"/>
<path d="M177.762 73.9512H184.302V75.6006H179.684V77.5128H183.921V79.0383H179.684V81.2278H184.398V82.8773H177.762V73.9512Z" fill="white"/>
<path d="M189.614 83.0767C188.992 83.0878 188.374 82.9662 187.801 82.7195C187.287 82.4952 186.828 82.1605 186.453 81.7382C186.079 81.3097 185.791 80.8098 185.607 80.2673C185.407 79.6825 185.308 79.067 185.313 78.4477C185.308 77.8181 185.408 77.1922 185.607 76.5965C185.79 76.0446 186.077 75.5349 186.453 75.0962C186.826 74.667 187.286 74.3258 187.801 74.096C188.809 73.6712 189.93 73.6184 190.972 73.9468C191.39 74.0815 191.782 74.2914 192.128 74.5667C192.471 74.8417 192.756 75.1839 192.968 75.5732C193.194 75.9984 193.334 76.4657 193.38 76.9474H191.527C191.497 76.7274 191.422 76.5163 191.307 76.3275C191.193 76.1395 191.048 75.9726 190.879 75.8337C190.705 75.6903 190.508 75.5781 190.297 75.5017C190.079 75.4228 189.849 75.383 189.618 75.384C189.235 75.3719 188.855 75.4601 188.515 75.6404C188.219 75.8051 187.967 76.0409 187.78 76.3275C187.587 76.6269 187.447 76.9592 187.368 77.3088C187.282 77.6812 187.238 78.0628 187.239 78.4456C187.238 78.8145 187.282 79.1821 187.368 79.5403C187.449 79.8815 187.588 80.2053 187.78 80.4964C187.968 80.78 188.22 81.0134 188.515 81.1772C188.855 81.3574 189.235 81.4457 189.618 81.4335C189.872 81.4478 190.127 81.4061 190.365 81.3111C190.602 81.2161 190.817 81.0701 190.994 80.883C191.342 80.4776 191.555 79.9699 191.602 79.4331H193.454C193.415 79.9584 193.286 80.4726 193.073 80.9523C192.879 81.3834 192.604 81.7716 192.264 82.0954C191.924 82.415 191.524 82.6615 191.089 82.8203C190.613 82.9913 190.112 83.076 189.607 83.0704" fill="white"/>
<path d="M194.77 73.9512H196.694V77.5254L200.11 73.9512H202.509L198.737 77.6893L202.84 82.8773H200.429L197.342 78.9143L196.694 79.6266V82.8773H194.77V73.9512Z" fill="white"/>
<path d="M205.467 82.3773H204.109V74.4512H205.021V80.1393V80.6393H205.521H205.556H205.855L205.996 80.3764L209.186 74.4512H210.542V82.3773H209.633V76.6765V76.1765H209.133H209.096H208.797L208.655 76.4399L205.467 82.3773Z" fill="#001C71" stroke="white"/>
<path d="M212.735 73.9511H214.636V80.1414H214.673L218.005 73.9511H220.16V82.8793H218.25V76.6764H218.213L214.881 82.8772H212.727L212.735 73.9511ZM216.567 73.1884C214.992 73.1884 214.204 72.5468 214.204 71.2636H215.624C215.625 71.4933 215.702 71.7158 215.844 71.894C215.94 71.9868 216.054 72.0573 216.178 72.1005C216.303 72.1437 216.436 72.1585 216.567 72.144C216.699 72.1574 216.832 72.1426 216.959 72.1007C217.085 72.0587 217.202 71.9905 217.301 71.9003C217.376 71.8126 217.432 71.7105 217.468 71.6001C217.503 71.4896 217.516 71.3731 217.507 71.2573H218.927C218.927 72.5419 218.139 73.1835 216.564 73.1821" fill="white"/>
<path d="M232.265 82.8772V82.3772H231.765H225.762V74.4512H226.684V81.2278V81.7278H227.184H230.612H231.112V81.2278V74.4512H232.034V81.2278V81.7278H232.534H233.001V84.4155H232.265V82.8772Z" fill="#001C71" stroke="white"/>
<path d="M234.469 73.9512H241.007V75.6006H236.391V77.5128H240.628V79.0383H236.391V81.2278H241.105V82.8773H234.469V73.9512Z" fill="white"/>
<path d="M243.826 79.0257V82.3773H242.902V74.4512H243.826V77.3762V77.8762H244.326H247.864H248.364V77.3762V74.4512H249.288V82.3773H248.364V79.0257V78.5257H247.864H244.326H243.826V79.0257Z" fill="#001C71" stroke="white"/>
<path d="M253.411 75.6006H250.789V73.9512H257.955V75.6006H255.333V82.8773H253.411V75.6006Z" fill="white"/>
<path d="M260.379 82.377V79.6768V79.1768H260.879H262.9H262.913L262.913 79.177C263.322 79.1878 263.729 79.1169 264.111 78.9682C264.395 78.8536 264.652 78.6768 264.863 78.4496C265.052 78.2418 265.195 77.9941 265.282 77.7233L260.379 82.377ZM260.379 82.377H259.457V74.451H262.9V74.4511L262.913 74.4508C263.322 74.4399 263.729 74.5108 264.111 74.6596C264.395 74.774 264.651 74.9501 264.864 75.1763C265.053 75.3854 265.195 75.6346 265.282 75.9069L265.282 75.9069L265.282 75.9087C265.471 76.498 265.471 77.1338 265.282 77.7231L260.379 82.377ZM262.373 74.9786C262.611 74.9782 262.85 74.9971 263.086 75.0349C263.34 75.0732 263.584 75.1611 263.805 75.2933L263.812 75.2974L263.812 75.2975C264.047 75.4437 264.239 75.6513 264.366 75.8974L264.375 75.9137L264.382 75.9307C264.502 76.2101 264.564 76.5116 264.564 76.816C264.564 77.1205 264.502 77.4219 264.382 77.7013L264.375 77.7183L264.366 77.7346C264.239 77.9807 264.047 78.1883 263.812 78.3345L263.806 78.3384L263.806 78.3383C263.585 78.471 263.34 78.559 263.086 78.5971L262.373 74.9786ZM262.373 74.9786H262.373V75.4786L262.372 74.9786C262.372 74.9786 262.373 74.9786 262.373 74.9786ZM262.373 74.9786H260.879H260.379V75.4786V78.1534V78.6534H260.879H262.372H262.373V78.1534L262.373 74.9786Z" fill="#001C71" stroke="white"/>
</g>
<defs>
<clipPath id="clip0_1195_23639">
<rect width="266" height="84.9154" fill="white"/>
</clipPath>
</defs>
</svg>
