<svg width="34" height="43" viewBox="0 0 34 43" fill="none" xmlns="http://www.w3.org/2000/svg">
<path fill-rule="evenodd" clip-rule="evenodd" d="M17 0.433105C12.4913 0.433105 8.16731 2.24524 4.97919 5.47087C1.79107 8.69649 0 13.0714 0 17.6331C0 24.306 4.26911 30.6612 8.77437 35.4727C11.0022 37.8519 13.2341 39.7969 14.9104 41.1475C15.7476 41.822 16.4438 42.3462 16.9283 42.7003L17 42.7525L17.0717 42.7003C17.5562 42.3462 18.2524 41.822 19.0896 41.1475C20.7659 39.7969 22.9978 37.8519 25.2256 35.4727C29.7309 30.6612 34 24.306 34 17.6331C34 13.0714 32.2089 8.69649 29.0208 5.47087C25.8327 2.24524 21.5087 0.433105 17 0.433105ZM17 23.7676C20.3532 23.7676 23.0714 21.0173 23.0714 17.6247C23.0714 14.2321 20.3532 11.4818 17 11.4818C13.6468 11.4818 10.9286 14.2321 10.9286 17.6247C10.9286 21.0173 13.6468 23.7676 17 23.7676Z" fill="#2B298F"/>
</svg>
