<svg width="346" height="111" viewBox="0 0 346 111" fill="none" xmlns="http://www.w3.org/2000/svg">
<g clip-path="url(#clip0_3214_21567)">
<path d="M28.4193 52.5104C33.15 52.5104 37.879 52.5104 42.6062 52.5104C43.7891 52.4917 44.9453 52.8696 45.8971 53.5861C46.8488 54.3027 47.5434 55.3181 47.8741 56.4764C48.0192 57.0198 48.0904 57.581 48.0856 58.1441C48.0856 67.0178 48.0642 75.8859 48.1123 84.7677C48.1203 85.5126 47.982 86.2516 47.7056 86.9411C47.4292 87.6307 47.0203 88.2569 46.503 88.7829C45.9856 89.3089 45.3703 89.724 44.6933 90.0038C44.0163 90.2837 43.2912 90.4226 42.5607 90.4123C33.1028 90.4305 23.6448 90.4305 14.1869 90.4123C10.5358 90.4123 8.63257 87.3444 8.64863 84.7513C8.70217 75.895 8.70217 67.0387 8.64863 58.1823C8.6425 57.4336 8.7831 56.6911 9.06218 55.9985C9.34126 55.3059 9.75319 54.6771 10.2738 54.149C10.7944 53.621 11.4132 53.2042 12.0939 52.9233C12.7746 52.6424 13.5035 52.503 14.2377 52.5132H28.4246" fill="#0095A9"/>
<path d="M3.45293 77.4059C2.62612 76.4804 2.15963 75.2786 2.14131 74.0268C2.12347 64.9648 2.12347 55.902 2.14131 46.8382C2.14131 45.6045 2.59904 44.5045 3.45561 43.4536L3.45293 77.4059Z" fill="#0095A9"/>
<path d="M7.57543 51.3145V85.2122C6.92036 84.4839 6.49429 83.5721 6.35214 82.5946C6.27872 82.0731 6.2456 81.5465 6.2531 81.0197C6.2531 72.4272 6.2531 63.8347 6.2531 55.2422C6.20663 53.8107 6.68365 52.4128 7.59149 51.3199" fill="#0095A9"/>
<path d="M1.36778 39.5342V73.4592C0.706079 72.6906 0.278218 71.7422 0.136464 70.7297C0.095331 70.3737 0.0783377 70.0153 0.085605 69.657C0.085605 60.8989 0.085605 52.1399 0.085605 43.3801C0.0457894 42.2456 0.339419 41.125 0.928789 40.162C1.04389 39.9818 1.17773 39.8126 1.37581 39.5396" fill="#0095A9"/>
<path d="M5.46332 81.2793C4.71115 80.2995 4.28286 79.3223 4.23736 78.2059C4.19721 77.2096 4.2213 76.2079 4.21862 75.2035C4.21862 67.1969 4.21862 59.1904 4.21862 51.1838C4.18898 49.8196 4.63263 48.4886 5.47135 47.4253L5.46332 81.2793Z" fill="#0095A9"/>
<path d="M28.4142 12.9378C33.145 12.9378 37.8739 12.9378 42.6011 12.9378C43.85 12.9062 45.0714 13.315 46.0589 14.0953C47.0465 14.8755 47.7397 15.9793 48.0216 17.2204C48.1321 17.6952 48.1861 18.1818 48.1822 18.6697C48.1929 27.4879 48.1929 36.3051 48.1822 45.1214C48.1822 48.4623 45.8293 50.9325 42.561 50.9407C33.103 50.9625 23.6451 50.9625 14.1871 50.9407C10.9295 50.9407 8.56592 48.4841 8.56592 45.1678C8.56592 36.3333 8.56592 27.4979 8.56592 18.6616C8.56592 15.9075 10.2068 13.7676 12.8006 13.1016C13.2859 12.9879 13.783 12.9348 14.2808 12.9432C18.992 12.9323 23.704 12.9323 28.4169 12.9432" fill="#71757C"/>
<path d="M346 87.1396H91.4331V89.2632H346V87.1396Z" fill="#0095A9"/>
<path d="M1.44015 34.1434C0.772799 33.4405 0.318335 32.5563 0.131211 31.5968C0.0422676 31.1549 -0.00168626 30.7049 4.9459e-05 30.2538C4.9459e-05 21.3666 4.9459e-05 12.4729 4.9459e-05 3.57292C0.00437016 2.45459 0.345421 1.3646 0.977073 0.450368C1.0587 0.327192 1.14811 0.209574 1.24475 0.0982622C1.30484 0.0559778 1.37067 0.0228741 1.44015 0V34.1434Z" fill="#71757C"/>
<path d="M5.56226 41.9744C4.85175 41.2264 4.38443 40.2734 4.22387 39.2449C4.15281 38.7608 4.12147 38.2714 4.13018 37.7819C4.13018 29.0966 4.13018 20.4113 4.13018 11.7261C4.09663 10.5141 4.43849 9.32217 5.10721 8.31964C5.21963 8.15314 5.35347 8.00029 5.56494 7.72461L5.56226 41.9744Z" fill="#71757C"/>
<path d="M3.49587 3.83789V38.0413C2.86005 37.3858 2.42242 36.5577 2.2351 35.6557C2.13338 35.1401 2.08671 34.6148 2.09591 34.089C2.09591 25.3327 2.09145 16.5756 2.08253 7.81751C2.03619 6.54997 2.40229 5.3024 3.12379 4.26915C3.20677 4.15178 3.31117 4.05079 3.49854 3.83789" fill="#71757C"/>
<path d="M7.59396 45.8801C6.72669 44.8648 6.22613 43.7784 6.22345 42.5501C6.20026 33.3917 6.20026 24.2324 6.22345 15.0722C6.22345 13.8358 6.7026 12.733 7.59396 11.7095V45.8801Z" fill="#71757C"/>
<path d="M14.3528 98.2623H10.9453V96.1196H20.2632V98.2623H16.853V107.715H14.3528V98.2623Z" fill="#71757C"/>
<path d="M21.5693 96.1193H26.698C27.3175 96.1029 27.934 96.2105 28.5129 96.4359C28.9735 96.6209 29.3891 96.9059 29.7308 97.2712C30.0416 97.6132 30.2754 98.0203 30.4161 98.464C30.7036 99.3586 30.7036 100.323 30.4161 101.218C30.2743 101.659 30.0405 102.063 29.7308 102.403C29.3897 102.769 28.974 103.055 28.5129 103.241C27.934 103.466 27.3175 103.573 26.698 103.557H24.0694V107.714H21.5693V96.1193ZM26.0128 101.578C26.2898 101.579 26.5664 101.557 26.8399 101.513C27.0874 101.476 27.3256 101.391 27.5412 101.262C27.7483 101.129 27.9159 100.941 28.0257 100.719C28.1468 100.437 28.2094 100.132 28.2094 99.8246C28.2094 99.5169 28.1468 99.2125 28.0257 98.9307C27.9128 98.7136 27.7445 98.5316 27.5385 98.4039C27.3228 98.2749 27.0847 98.1896 26.8372 98.1528C26.5636 98.1088 26.2871 98.0869 26.0101 98.0873H24.0694V101.562L26.0128 101.578Z" fill="#71757C"/>
<path d="M35.2984 96.1196H37.8628L42.1162 107.717H39.5197L38.6604 105.135H34.407L33.5157 107.717H30.9995L35.2984 96.1196ZM38.01 103.233L36.5752 98.9774H36.5431L35.0655 103.233H38.01Z" fill="#71757C"/>
<path d="M43.104 96.1196H45.6041V100.569H50.2055V96.1196H52.7083V107.715H50.2055V102.714H45.6041V107.715H43.104V96.1196Z" fill="#71757C"/>
<path d="M60.0027 107.977C59.1935 107.991 58.3902 107.833 57.6444 107.513C56.9778 107.221 56.3807 106.786 55.8938 106.238C55.4071 105.681 55.0332 105.032 54.7936 104.327C54.534 103.568 54.4045 102.768 54.4109 101.964C54.4049 101.146 54.5343 100.333 54.7936 99.5588C55.0316 98.842 55.4054 98.1798 55.8938 97.6099C56.3783 97.0528 56.9756 96.6095 57.6444 96.3107C58.9554 95.7589 60.4141 95.6904 61.7693 96.1169C62.3138 96.2919 62.8232 96.5646 63.2737 96.9221C63.7195 97.2793 64.0909 97.7239 64.3658 98.2295C64.6601 98.7818 64.8422 99.389 64.9012 100.015H62.4921C62.4525 99.7289 62.3549 99.4546 62.2056 99.2094C62.0566 98.9653 61.8684 98.7485 61.6489 98.568C61.422 98.3817 61.1659 98.2359 60.8913 98.1367C60.6077 98.0342 60.3089 97.9825 60.008 97.9839C59.5097 97.9681 59.0158 98.0827 58.5733 98.3169C58.1883 98.5308 57.8603 98.8372 57.6176 99.2094C57.3659 99.5983 57.1846 100.03 57.0823 100.484C56.9695 100.968 56.9129 101.464 56.9137 101.961C56.9131 102.44 56.9697 102.918 57.0823 103.383C57.1867 103.826 57.368 104.247 57.6176 104.625C57.8623 104.993 58.19 105.296 58.5733 105.509C59.0158 105.743 59.5097 105.858 60.008 105.842C60.3393 105.861 60.6707 105.807 60.9796 105.683C61.2886 105.56 61.568 105.37 61.7988 105.127C62.2511 104.6 62.5276 103.941 62.5884 103.244H64.9975C64.9501 103.927 64.7852 104.597 64.5103 105.223C64.2576 105.782 63.9003 106.287 63.4584 106.707C63.0159 107.123 62.4961 107.443 61.9299 107.649C61.311 107.871 60.6587 107.981 60.0027 107.974" fill="#71757C"/>
<path d="M66.708 96.1196H76.1704V107.715H73.6676V98.2623H69.2081V107.715H66.708V96.1196Z" fill="#71757C"/>
<path d="M83.4643 107.977C82.6551 107.991 81.8519 107.833 81.1061 107.513C80.4386 107.221 79.8405 106.786 79.3528 106.238C78.866 105.681 78.4921 105.032 78.2526 104.327C77.9929 103.568 77.8634 102.768 77.8699 101.963C77.8639 101.146 77.9933 100.333 78.2526 99.5587C78.4906 98.8419 78.8644 98.1797 79.3528 97.6099C79.838 97.0523 80.4362 96.609 81.1061 96.3106C82.6143 95.6829 84.3037 95.6829 85.8118 96.3106C86.4849 96.6075 87.086 97.051 87.5732 97.6099C88.0617 98.1796 88.4355 98.8418 88.6733 99.5587C88.9328 100.333 89.0622 101.146 89.0561 101.963C89.0626 102.768 88.9331 103.568 88.6733 104.327C88.434 105.032 88.0601 105.681 87.5732 106.238C87.0835 106.788 86.4825 107.223 85.8118 107.513C85.0684 107.831 84.2681 107.989 83.4616 107.977M83.4616 105.848C83.959 105.863 84.452 105.748 84.8937 105.515C85.2767 105.301 85.6043 104.998 85.8493 104.63C86.0985 104.252 86.2798 103.831 86.3847 103.388C86.4961 102.923 86.5518 102.445 86.5506 101.966C86.552 101.469 86.4963 100.973 86.3847 100.49C86.2819 100.036 86.1006 99.6039 85.8493 99.2148C85.6063 98.8429 85.2784 98.5366 84.8937 98.3223C84.4463 98.1034 83.9565 97.9898 83.4603 97.9898C82.9641 97.9898 82.4743 98.1034 82.0269 98.3223C81.642 98.5362 81.314 98.8426 81.0713 99.2148C80.8195 99.6037 80.6382 100.035 80.5359 100.49C80.4231 100.973 80.3665 101.469 80.3673 101.966C80.3667 102.445 80.4233 102.923 80.5359 103.388C80.6403 103.831 80.8216 104.252 81.0713 104.63C81.3159 104.999 81.6436 105.302 82.0269 105.515C82.4694 105.749 82.9633 105.863 83.4616 105.848Z" fill="#71757C"/>
<path d="M90.7588 96.1193H95.8875C96.5069 96.1029 97.1235 96.2105 97.7023 96.4359C98.163 96.6209 98.5786 96.9059 98.9203 97.2712C99.231 97.6132 99.4649 98.0203 99.6055 98.464C99.893 99.3586 99.893 100.323 99.6055 101.218C99.4637 101.659 99.2299 102.063 98.9203 102.403C98.5792 102.769 98.1635 103.055 97.7023 103.241C97.1235 103.466 96.5069 103.573 95.8875 103.557H93.2589V107.714H90.7588V96.1193ZM95.2022 101.578C95.4792 101.579 95.7558 101.557 96.0294 101.513C96.2769 101.476 96.5151 101.391 96.7307 101.262C96.9366 101.134 97.1049 100.952 97.2179 100.735C97.3388 100.453 97.4012 100.149 97.4012 99.841C97.4012 99.5333 97.3388 99.229 97.2179 98.9471C97.1049 98.73 96.9366 98.5479 96.7307 98.4203C96.515 98.2913 96.2768 98.206 96.0294 98.1692C95.7558 98.1252 95.4792 98.1033 95.2022 98.1037H93.2589V101.578H95.2022Z" fill="#71757C"/>
<path d="M103.899 98.2623H100.492V96.1196H109.81V98.2623H106.402V107.715H103.899V98.2623Z" fill="#71757C"/>
<path d="M111.116 96.1196H113.616V100.569H118.22V96.1196H120.72V107.715H118.22V102.714H113.616V107.715H111.116V96.1196Z" fill="#71757C"/>
<path d="M128.014 107.977C127.205 107.991 126.402 107.833 125.656 107.513C124.988 107.221 124.39 106.786 123.903 106.238C123.416 105.681 123.042 105.032 122.802 104.327C122.543 103.568 122.413 102.768 122.42 101.963C122.414 101.146 122.543 100.333 122.802 99.5587C123.04 98.8419 123.414 98.1797 123.903 97.6099C124.388 97.0523 124.986 96.609 125.656 96.3106C127.164 95.6829 128.853 95.6829 130.362 96.3106C131.035 96.6075 131.636 97.051 132.123 97.6099C132.611 98.1796 132.985 98.8418 133.223 99.5587C133.483 100.333 133.612 101.146 133.606 101.963C133.612 102.768 133.483 103.568 133.223 104.327C132.984 105.032 132.61 105.681 132.123 106.238C131.633 106.788 131.032 107.223 130.362 107.513C129.618 107.831 128.818 107.989 128.011 107.977M128.011 105.848C128.509 105.863 129.002 105.748 129.444 105.515C129.826 105.301 130.154 104.998 130.399 104.63C130.648 104.252 130.83 103.831 130.934 103.388C131.046 102.923 131.102 102.445 131.1 101.966C131.102 101.469 131.046 100.973 130.934 100.49C130.832 100.036 130.65 99.604 130.399 99.2148C130.156 98.8429 129.828 98.5367 129.444 98.3223C128.996 98.1034 128.506 97.9898 128.01 97.9898C127.514 97.9898 127.024 98.1034 126.577 98.3223C126.192 98.5362 125.864 98.8426 125.621 99.2148C125.369 99.6037 125.188 100.035 125.086 100.49C124.973 100.973 124.916 101.469 124.917 101.966C124.917 102.445 124.973 102.923 125.086 103.388C125.19 103.831 125.371 104.252 125.621 104.63C125.866 104.999 126.193 105.302 126.577 105.515C127.019 105.749 127.513 105.863 128.011 105.848Z" fill="#71757C"/>
<path d="M139.848 102.291H135.054V104.273H139.848V102.291Z" fill="#71757C"/>
<path d="M141.968 107.845C141.603 107.848 141.24 107.783 140.897 107.652V105.572C140.955 105.598 141.017 105.614 141.079 105.621C141.145 105.631 141.211 105.636 141.278 105.637C141.462 105.643 141.646 105.61 141.817 105.54C141.989 105.47 142.144 105.365 142.273 105.231C142.579 104.869 142.787 104.432 142.878 103.964C143.043 103.233 143.142 102.489 143.173 101.74C143.226 100.83 143.253 99.7379 143.253 98.4642V96.125H151.441V107.723H148.957V98.2622H145.617C145.584 99.6051 145.539 100.861 145.48 102.029C145.443 103.06 145.301 104.084 145.057 105.086C144.888 105.841 144.527 106.537 144.011 107.106C143.532 107.599 142.852 107.845 141.971 107.845" fill="#71757C"/>
<path d="M158.733 107.977C157.924 107.991 157.12 107.833 156.375 107.513C155.707 107.221 155.109 106.786 154.621 106.238C154.135 105.681 153.761 105.032 153.521 104.327C153.261 103.568 153.132 102.768 153.138 101.963C153.132 101.146 153.262 100.333 153.521 99.5587C153.759 98.8419 154.133 98.1797 154.621 97.6099C155.107 97.0523 155.705 96.609 156.375 96.3106C157.883 95.6829 159.572 95.6829 161.08 96.3106C161.753 96.6075 162.355 97.051 162.842 97.6099C163.33 98.1796 163.704 98.8418 163.942 99.5587C164.201 100.333 164.331 101.146 164.325 101.963C164.331 102.768 164.202 103.568 163.942 104.327C163.703 105.032 163.329 105.681 162.842 106.238C162.352 106.788 161.751 107.223 161.08 107.513C160.337 107.831 159.537 107.989 158.73 107.977M158.73 105.848C159.228 105.863 159.721 105.748 160.162 105.515C160.545 105.301 160.873 104.998 161.118 104.63C161.367 104.252 161.548 103.831 161.653 103.388C161.765 102.923 161.82 102.445 161.819 101.966C161.821 101.469 161.765 100.973 161.653 100.49C161.55 100.036 161.369 99.6039 161.118 99.2148C160.875 98.8429 160.547 98.5366 160.162 98.3223C159.715 98.1034 159.225 97.9898 158.729 97.9898C158.233 97.9898 157.743 98.1034 157.295 98.3223C156.911 98.5362 156.583 98.8426 156.34 99.2148C156.088 99.6037 155.907 100.035 155.804 100.49C155.693 100.973 155.637 101.469 155.639 101.966C155.638 102.445 155.695 102.923 155.807 103.388C155.912 103.831 156.093 104.252 156.343 104.63C156.587 104.999 156.915 105.302 157.298 105.515C157.741 105.749 158.235 105.863 158.733 105.848" fill="#71757C"/>
<path d="M166.099 96.1196H173.998V98.2623H168.599V107.715H166.099V96.1196Z" fill="#71757C"/>
<path d="M175.163 96.1196H177.647V104.158H177.695L182.026 96.1196H184.828V107.715H182.344V99.6598H182.296L177.965 107.715H175.163V96.1196Z" fill="#71757C"/>
<path d="M192.125 107.977C191.316 107.991 190.513 107.833 189.767 107.513C189.1 107.221 188.502 106.786 188.014 106.238C187.527 105.681 187.153 105.032 186.914 104.327C186.654 103.568 186.525 102.768 186.531 101.964C186.525 101.146 186.654 100.333 186.914 99.5588C187.152 98.842 187.526 98.1798 188.014 97.6099C188.499 97.0525 189.097 96.6092 189.767 96.3107C191.078 95.7589 192.537 95.6904 193.892 96.1169C194.437 96.2919 194.946 96.5646 195.396 96.9221C195.842 97.2793 196.214 97.7239 196.489 98.2295C196.783 98.7818 196.965 99.389 197.024 100.015H194.615C194.575 99.7289 194.478 99.4546 194.328 99.2094C194.179 98.9653 193.991 98.7485 193.772 98.568C193.545 98.3817 193.289 98.2359 193.014 98.1367C192.731 98.0342 192.432 97.9825 192.131 97.9839C191.633 97.9681 191.139 98.0827 190.696 98.3169C190.311 98.5308 189.983 98.8372 189.74 99.2094C189.489 99.5983 189.308 100.03 189.205 100.484C189.093 100.968 189.038 101.464 189.039 101.961C189.039 102.44 189.095 102.918 189.208 103.383C189.312 103.826 189.493 104.247 189.743 104.625C189.988 104.993 190.315 105.296 190.699 105.509C191.141 105.743 191.635 105.858 192.134 105.842C192.465 105.861 192.796 105.807 193.105 105.683C193.414 105.56 193.693 105.37 193.924 105.127C194.377 104.6 194.653 103.941 194.714 103.244H197.123C197.072 103.926 196.905 104.594 196.628 105.217C196.375 105.777 196.018 106.281 195.576 106.702C195.133 107.117 194.614 107.437 194.047 107.644C193.428 107.866 192.776 107.976 192.12 107.968" fill="#71757C"/>
<path d="M201.347 98.2623H197.939V96.1196H207.257V98.2623H203.847V107.715H201.347V98.2623Z" fill="#71757C"/>
<path d="M208.563 96.1196H211.048V104.158H211.096L215.427 96.1196H218.229V107.715H215.745V99.6598H215.697L211.366 107.715H208.563V96.1196Z" fill="#71757C"/>
<path d="M226.546 103.315C226.27 103.38 225.935 103.45 225.543 103.525C225.138 103.602 224.728 103.64 224.317 103.639C223.7 103.648 223.085 103.578 222.486 103.429C221.993 103.309 221.534 103.072 221.147 102.739C220.773 102.401 220.49 101.97 220.326 101.489C220.129 100.879 220.038 100.239 220.058 99.597V96.1196H222.542V99.627C222.542 100.331 222.736 100.824 223.123 101.106C223.568 101.405 224.094 101.553 224.627 101.53C225.006 101.531 225.384 101.498 225.757 101.431C226.107 101.366 226.372 101.314 226.56 101.267V96.1196H229.06V107.717H226.56L226.546 103.315Z" fill="#71757C"/>
<path d="M231.26 96.1196H239.767V98.2623H233.76V100.749H239.272V102.73H233.76V105.572H239.893V107.715H231.26V96.1196Z" fill="#71757C"/>
<path d="M246.678 107.977C245.869 107.991 245.066 107.833 244.32 107.513C243.652 107.221 243.054 106.786 242.567 106.238C242.08 105.681 241.706 105.032 241.467 104.327C241.207 103.568 241.077 102.768 241.084 101.964C241.078 101.146 241.207 100.333 241.467 99.5588C241.704 98.842 242.078 98.1798 242.567 97.6099C243.052 97.0525 243.65 96.6092 244.32 96.3107C245.631 95.7589 247.09 95.6904 248.445 96.1169C248.989 96.2919 249.499 96.5646 249.949 96.9221C250.395 97.2793 250.766 97.7239 251.041 98.2295C251.336 98.7818 251.518 99.389 251.577 100.015H249.168C249.128 99.7289 249.03 99.4546 248.881 99.2094C248.732 98.9653 248.544 98.7485 248.324 98.568C248.098 98.3817 247.841 98.2359 247.567 98.1367C247.283 98.0342 246.984 97.9825 246.684 97.9839C246.185 97.9681 245.691 98.0827 245.249 98.3169C244.864 98.5308 244.536 98.8372 244.293 99.2094C244.042 99.5983 243.86 100.03 243.758 100.484C243.646 100.968 243.59 101.464 243.592 101.961C243.591 102.44 243.648 102.918 243.761 103.383C243.865 103.826 244.046 104.247 244.296 104.625C244.541 104.993 244.868 105.296 245.251 105.509C245.694 105.743 246.188 105.858 246.686 105.842C247.018 105.861 247.349 105.807 247.658 105.683C247.967 105.56 248.246 105.37 248.477 105.127C248.929 104.6 249.206 103.941 249.267 103.244H251.676C251.625 103.926 251.458 104.594 251.181 105.217C250.928 105.777 250.57 106.281 250.129 106.702C249.686 107.117 249.166 107.437 248.6 107.644C247.981 107.866 247.329 107.976 246.673 107.968" fill="#71757C"/>
<path d="M253.384 96.1196H255.884V100.765L260.327 96.1196H263.451L258.545 100.975L263.879 107.715H260.742L256.73 102.567L255.884 103.492V107.715H253.384V96.1196Z" fill="#71757C"/>
<path d="M264.883 96.1196H267.367V104.158H267.415L271.749 96.1196H274.551V107.715H272.067V99.6598H272.019L267.685 107.715H264.883V96.1196Z" fill="#71757C"/>
<path d="M276.749 96.1193H279.233V104.158H279.281L283.615 96.1166H286.415V107.714H283.931V99.6595H283.883L279.549 107.714H276.747L276.749 96.1193ZM281.733 95.1285C279.685 95.1285 278.66 94.2951 278.66 92.6283H280.507C280.508 92.9267 280.609 93.2157 280.794 93.4472C280.918 93.5677 281.066 93.6593 281.228 93.7154C281.391 93.7715 281.563 93.7908 281.733 93.772C281.905 93.7893 282.079 93.7701 282.244 93.7156C282.408 93.6611 282.56 93.5725 282.689 93.4554C282.786 93.3414 282.86 93.2088 282.906 93.0654C282.952 92.9219 282.969 92.7705 282.957 92.6201H284.804C284.804 94.2888 283.779 95.1222 281.731 95.1203" fill="#71757C"/>
<path d="M301.501 107.715H293.045V96.1196H295.546V105.572H300.005V96.1196H302.505V105.572H303.763V110.362H301.501V107.715Z" fill="#71757C"/>
<path d="M305.021 96.1196H313.528V98.2623H307.524V100.749H313.033V102.73H307.524V105.572H313.654V107.715H305.021V96.1196Z" fill="#71757C"/>
<path d="M315.343 96.1196H317.843V100.569H322.447V96.1196H324.947V107.715H322.447V102.714H317.843V107.715H315.343V96.1196Z" fill="#71757C"/>
<path d="M329.664 98.2623H326.253V96.1196H335.571V98.2623H332.164V107.715H329.664V98.2623Z" fill="#71757C"/>
<path d="M336.877 96.1193H342.006C342.626 96.1029 343.242 96.2105 343.821 96.4359C344.282 96.6209 344.697 96.9059 345.039 97.2712C345.35 97.6132 345.584 98.0203 345.724 98.464C346.011 99.3586 346.011 100.323 345.724 101.218C345.582 101.659 345.349 102.063 345.039 102.403C344.698 102.769 344.282 103.055 343.821 103.241C343.242 103.466 342.626 103.573 342.006 103.557H339.378V107.714H336.877V96.1193ZM341.321 101.578C341.598 101.579 341.874 101.557 342.148 101.513C342.396 101.476 342.634 101.391 342.849 101.262C343.055 101.134 343.224 100.952 343.337 100.735C343.458 100.453 343.52 100.149 343.52 99.841C343.52 99.5333 343.458 99.2289 343.337 98.9471C343.224 98.73 343.055 98.5479 342.849 98.4203C342.634 98.2913 342.395 98.206 342.148 98.1692C341.874 98.1252 341.598 98.1033 341.321 98.1037H339.378V101.578H341.321Z" fill="#71757C"/>
<path d="M69.7191 52.4694C74.4498 52.4694 79.1788 52.4694 83.906 52.4694C85.0889 52.4506 86.2451 52.8286 87.1969 53.5451C88.1486 54.2616 88.8432 55.2771 89.1739 56.4354C89.319 56.9788 89.3902 57.5399 89.3853 58.1031C89.3853 66.9767 89.3639 75.8449 89.4121 84.7267C89.4197 85.4718 89.281 86.211 89.0041 86.9006C88.7272 87.5902 88.3178 88.2163 87.7999 88.7421C87.2821 89.2678 86.6662 89.6826 85.9888 89.962C85.3113 90.2413 84.5858 90.3796 83.8551 90.3686C74.3972 90.3868 64.9393 90.3868 55.4813 90.3686C51.8302 90.3686 49.927 87.3006 49.9431 84.7076C49.9966 75.8513 49.9966 66.9949 49.9431 58.1386C49.9369 57.3898 50.0775 56.6474 50.3566 55.9548C50.6357 55.2622 51.0476 54.6334 51.5682 54.1053C52.0889 53.5772 52.7077 53.1605 53.3884 52.8796C54.0691 52.5987 54.7979 52.4592 55.5322 52.4694H69.7191Z" fill="#71757C"/>
<path d="M122.221 58.8315L111.782 79.4257C111.111 80.8007 110.08 81.9597 108.803 82.7748C107.575 83.5372 106.031 83.9175 104.172 83.9157H96.776V79.8214H104.351C105.957 79.8214 107.013 79.331 107.518 78.3502L91.4385 58.8315H96.8375L109.673 74.6872L117.666 58.8315H122.221Z" fill="#0095A9"/>
<path d="M141.521 69.2994C141.521 70.8297 141.124 72.028 140.33 72.8942C139.484 73.804 138.259 74.2589 136.655 74.2589H126.437V79.6278H123.522V64.3071H136.73C138.336 64.3071 139.553 64.7721 140.381 65.7019C141.141 66.5699 141.521 67.7681 141.521 69.2967M138.555 69.2967C138.555 67.6408 137.906 66.8128 136.607 66.8128H126.435V71.7587H136.631C137.912 71.7587 138.553 70.9398 138.553 69.3021" fill="#0095A9"/>
<path d="M164.488 79.636H161.163L159.308 76.3606H148.334L146.479 79.636H143.167L151.811 64.3071H155.842L164.488 79.636ZM157.983 73.8413L153.968 66.6245H153.701L149.685 73.8386L157.983 73.8413Z" fill="#0095A9"/>
<path d="M184.92 79.636H181.954V66.8074H171.078V69.3431C171.078 76.1996 170.063 79.6278 168.034 79.6278H165.449V77.1194H166.667C167.68 77.1194 168.187 75.0932 168.187 71.0408V64.3071H184.917L184.92 79.636Z" fill="#0095A9"/>
<path d="M206.288 74.6465C206.288 77.9747 204.691 79.6388 201.497 79.6388H188.29V64.3071H191.205V69.747H201.395C204.657 69.747 206.288 71.3793 206.288 74.6438M203.373 74.6438C203.373 73.0516 202.723 72.2554 201.422 72.2554H191.205V77.1276H201.395C202.714 77.1276 203.373 76.2997 203.373 74.6438Z" fill="#0095A9"/>
<path d="M227.405 73.9697C227.405 75.9258 227.033 77.3452 226.289 78.2277C225.631 79.0175 224.574 79.506 223.12 79.6935C222.376 79.8045 220.745 79.86 218.227 79.86C215.55 79.86 213.657 79.7098 212.549 79.4096C211.197 79.0457 210.259 78.3178 209.736 77.226C209.213 76.1342 208.952 74.3919 208.952 71.999C208.952 69.6025 209.21 67.8556 209.725 66.7583C210.241 65.6611 211.174 64.9332 212.525 64.5747C213.657 64.2599 215.558 64.1025 218.229 64.1025C220.713 64.1025 222.344 64.158 223.123 64.269C224.575 64.4747 225.623 64.9632 226.265 65.7348C227.025 66.6337 227.405 68.053 227.405 69.9928H224.461C224.461 68.699 224.199 67.8001 223.674 67.2961C223.251 66.8703 222.537 66.6337 221.533 66.5864C222.225 66.6028 221.127 66.611 218.237 66.611C216.023 66.611 214.62 66.6665 214.03 66.7775C213.118 66.9594 212.526 67.4143 212.255 68.1422C212.001 68.7918 211.875 70.0747 211.875 71.9908C211.875 73.9069 212.001 75.1898 212.255 75.8394C212.524 76.5527 213.116 77.0076 214.03 77.2042C214.604 77.2988 216.007 77.3461 218.237 77.3461C221.194 77.3461 222.943 77.2114 223.484 76.9421C224.142 76.6091 224.472 75.6165 224.472 73.9642L227.405 73.9697Z" fill="#0095A9"/>
<path d="M250.324 79.636H245.455L234.959 72.8013H233.008V79.636H230.042V64.3071H233.008V70.2929H234.959L244.593 64.3071H249.623L238.096 71.5267L250.324 79.636Z" fill="#0095A9"/>
<path d="M271.615 79.636H268.7V67.1704L255.595 79.636H251.587V64.3071H254.553V76.8765L267.731 64.3071H271.615V79.636Z" fill="#0095A9"/>
<path d="M294.606 79.6359H291.691V67.1457L278.575 79.6359H274.594V64.2852H277.509V76.901L290.708 64.2852H294.595L294.606 79.6359ZM288.294 64.6236H280.638V62.1152H288.289L288.294 64.6236Z" fill="#0095A9"/>
</g>
<defs>
<clipPath id="clip0_3214_21567">
<rect width="346" height="110.362" fill="white"/>
</clipPath>
</defs>
</svg>
